<?xml version="1.0" encoding="UTF-8"?>
<svg version="1.1" xmlns="http://www.w3.org/2000/svg" width="1920" height="1920">
<path d="M0 0 C633.6 0 1267.2 0 1920 0 C1920 633.6 1920 1267.2 1920 1920 C1286.4 1920 652.8 1920 0 1920 C0 1286.4 0 652.8 0 0 Z " fill="#FEFEFE" transform="translate(0,0)"/>
<path d="M0 0 C409.2 0 818.4 0 1240 0 C1240 64.35 1240 128.7 1240 195 C830.8 195 421.6 195 0 195 C0 130.65 0 66.3 0 0 Z " fill="#3A5769" transform="translate(340,1385)"/>
<path d="M0 0 C1.45836377 0.8204874 2.93699175 1.60476573 4.41894531 2.38183594 C25.07921181 13.75507711 40.22122697 33.9218432 47.19238281 56.26464844 C47.71501936 58.15436669 48.21884306 60.04953336 48.69238281 61.95214844 C48.88703125 62.64179688 49.08167969 63.33144531 49.28222656 64.04199219 C49.99014758 67.33888149 49.74841349 70.59030777 49.69238281 73.95214844 C50.59859375 74.06171875 51.50480469 74.17128906 52.43847656 74.28417969 C63.60533289 75.73764353 63.60533289 75.73764353 68.00488281 77.38964844 C72.94530874 79.23074349 78.03493218 79.97686146 83.22680664 80.77416992 C87.9612606 81.53250237 92.41172237 82.72162509 96.98803711 84.14453125 C102.0658786 85.66096166 107.2263486 86.84829267 112.37988281 88.07714844 C113.6224585 88.37500244 114.86503418 88.67285645 116.14526367 88.97973633 C141.31372888 94.99628656 166.54308293 100.75712596 191.81958008 106.30151367 C193.21863558 106.60931812 194.61764418 106.91733584 196.01660156 107.22558594 C197.01117119 107.4441198 197.01117119 107.4441198 198.02583313 107.66706848 C203.10271264 108.79362569 208.1329434 110.06571674 213.15258789 111.42333984 C215.7770702 111.96978113 218.02102751 112.17913379 220.69238281 111.95214844 C222.69709587 110.11228682 222.69709587 110.11228682 224.37988281 107.57714844 C231.56799296 98.04684509 239.81235565 90.61334322 249.69238281 83.95214844 C250.74232422 83.22705078 250.74232422 83.22705078 251.81347656 82.48730469 C259.68901482 77.27392021 268.62224752 74.36911859 277.69238281 71.95214844 C279.19671875 71.530625 279.19671875 71.530625 280.73144531 71.10058594 C297.30713648 66.94695841 313.3912368 68.38325866 329.69238281 72.95214844 C330.78035156 73.24089844 331.86832031 73.52964844 332.98925781 73.82714844 C345.38828415 77.50093402 355.96554576 84.5904815 365.69238281 92.95214844 C366.36527344 93.48066406 367.03816406 94.00917969 367.73144531 94.55371094 C380.9474284 105.24233471 390.7452809 121.87785151 395.69238281 137.95214844 C395.95825195 138.8081665 396.22412109 139.66418457 396.49804688 140.54614258 C398.66590331 148.27409856 399.18868819 155.71960002 399.13842773 163.70532227 C399.12993189 165.75282104 399.15877537 167.79750188 399.19042969 169.84472656 C399.25793537 182.35062257 396.59912679 193.86461574 391.31738281 205.26464844 C391.01630615 205.93069092 390.71522949 206.5967334 390.4050293 207.28295898 C387.88151918 212.75975311 385.0474703 217.93612656 381.69238281 222.95214844 C381.10972656 223.85449219 380.52707031 224.75683594 379.92675781 225.68652344 C372.81969138 236.14488949 363.06438352 242.97302254 352.69238281 249.95214844 C352.09683594 250.39171875 351.50128906 250.83128906 350.88769531 251.28417969 C332.67440909 264.03348004 306.53033212 265.98876211 285.12988281 263.32714844 C263.73807986 259.44752674 242.23960797 248.08825663 228.69238281 230.95214844 C228.05945312 230.22769531 227.42652344 229.50324219 226.77441406 228.75683594 C215.07032486 215.03792287 206.2796841 196.15848833 205.69238281 177.95214844 C203.95988281 177.76652344 203.95988281 177.76652344 202.19238281 177.57714844 C198.64701049 177.13553189 195.25995088 176.39617571 191.80224609 175.48168945 C189.56529287 174.92025095 187.3249312 174.47422656 185.05957031 174.04199219 C179.04384092 172.85352959 173.12838335 171.33799233 167.19238281 169.80761719 C163.05363602 168.75353011 158.92592223 167.77881748 154.73144531 166.97167969 C149.43816585 165.94168627 144.26914654 164.55276542 139.06738281 163.13964844 C131.02616279 160.9963686 122.97427908 159.10004017 114.81738281 157.45214844 C104.60723818 155.3884486 94.49236405 153.03277661 84.37207031 150.56933594 C76.82321448 148.73288113 69.25864709 146.9650915 61.69238281 145.20214844 C60.43409668 144.90840332 59.17581055 144.6146582 57.87939453 144.31201172 C55.52885716 143.76451352 53.1775007 143.22051547 50.82519531 142.68066406 C48.87837517 142.22794342 46.93482916 141.76056422 44.99707031 141.27050781 C39.32260676 139.80041707 39.32260676 139.80041707 33.69238281 140.95214844 C31.69694909 142.85727566 31.69694909 142.85727566 30.06738281 145.26464844 C29.49761719 146.04453125 28.92785156 146.82441406 28.34082031 147.62792969 C27.25373126 149.16067373 26.17537073 150.69965113 25.10644531 152.24511719 C24.63980469 152.8084375 24.17316406 153.37175781 23.69238281 153.95214844 C23.03238281 153.95214844 22.37238281 153.95214844 21.69238281 153.95214844 C21.39847656 154.79132813 21.39847656 154.79132813 21.09863281 155.64746094 C19.11510249 158.89824675 16.27659904 160.71172367 13.19238281 162.82714844 C12.24733887 163.48577881 12.24733887 163.48577881 11.28320312 164.15771484 C-10.74665939 179.37681834 -36.3507404 186.44913707 -63.19042969 182.30371094 C-77.25983266 179.65900696 -92.06510181 173.97950719 -103.30761719 164.95214844 C-103.30761719 164.29214844 -103.30761719 163.63214844 -103.30761719 162.95214844 C-109.59391567 166.4201483 -115.56139557 170.32058872 -121.55761719 174.26464844 C-128.20623917 178.62808181 -134.87212918 182.95760711 -141.58789062 187.21704102 C-146.1872223 190.1512825 -150.74472166 193.14919812 -155.30761719 196.13964844 C-162.60220636 200.91132815 -169.9241687 205.63165801 -177.30761719 210.26464844 C-183.58947349 214.20723061 -189.79986397 218.23687955 -195.95581055 222.37304688 C-201.78399109 226.28635517 -207.68473031 230.08106837 -213.60009766 233.86083984 C-222.99937882 239.86810133 -232.36215886 245.93046581 -241.71240234 252.01367188 C-247.0726246 255.50070363 -252.43742057 258.98049974 -257.80761719 262.45214844 C-278.13790682 275.57991625 -278.13790682 275.57991625 -298.30761719 288.95214844 C-298.06978516 290.26892578 -298.06978516 290.26892578 -297.82714844 291.61230469 C-295.56331471 307.63606559 -296.14738957 324.60093365 -301.30761719 339.95214844 C-301.89453296 341.95110008 -302.47832953 343.95097289 -303.05761719 345.95214844 C-303.4702825 347.28672561 -303.8851226 348.62065033 -304.30761719 349.95214844 C-304.96761719 349.95214844 -305.62761719 349.95214844 -306.30761719 349.95214844 C-306.43910156 350.97501953 -306.43910156 350.97501953 -306.57324219 352.01855469 C-310.90594859 369.32633398 -328.50761964 385.25969249 -343.11376953 394.03759766 C-350.83612005 398.51723818 -358.73366563 402.38739703 -367.30761719 404.95214844 C-368.24089844 405.24992187 -369.17417969 405.54769531 -370.13574219 405.85449219 C-379.65428893 408.5026007 -389.08152813 408.31454939 -398.87207031 408.02148438 C-400.9593443 407.96206318 -403.04766169 407.9414951 -405.13574219 407.92871094 C-424.42908465 407.34542384 -444.19008859 397.8030146 -458.30761719 384.95214844 C-459.21125 384.12972656 -460.11488281 383.30730469 -461.04589844 382.45996094 C-481.15998562 363.26394412 -491.3658689 338.07889512 -492.22949219 310.54589844 C-492.25527344 309.35996094 -492.28105469 308.17402344 -492.30761719 306.95214844 C-492.84837891 306.73187988 -493.38914062 306.51161133 -493.94628906 306.28466797 C-505.87330114 301.4233858 -517.78070286 296.51779522 -529.66601562 291.55541992 C-536.31875033 288.77837589 -542.97872831 286.01988143 -549.64746094 283.28149414 C-553.47828311 281.70792034 -557.30185463 280.11842492 -561.12011719 278.51464844 C-566.49307879 276.26912104 -571.89870063 274.10913341 -577.30761719 271.95214844 C-596.76933723 264.17967789 -596.76933723 264.17967789 -604.66064453 260.41870117 C-611.82339057 257.00510418 -619.05749872 254.08463622 -626.50683594 251.35839844 C-633.31615779 248.86170425 -640.05308866 246.16839702 -646.49511719 242.82714844 C-649.90278446 241.06698972 -653.3495944 239.88598972 -657.00683594 238.74902344 C-659.45978669 237.89944457 -661.722336 236.8329977 -664.05761719 235.70214844 C-666.55824797 234.59027627 -668.18516825 233.96089479 -670.93261719 233.76464844 C-674.03384211 235.3152609 -675.94479606 237.49978161 -678.32324219 239.99511719 C-694.59818584 256.0457998 -720.91048652 264.28391075 -743.30761719 264.45214844 C-770.89527834 264.19761871 -794.39957534 252.65177066 -813.84277344 233.44824219 C-823.19608338 223.45319571 -829.27924257 212.6128774 -834.30761719 199.95214844 C-834.89542969 198.65664063 -834.89542969 198.65664063 -835.49511719 197.33496094 C-844.3845767 177.39904071 -841.64214418 151.4622507 -834.3984375 131.43896484 C-830.83455103 122.60917274 -826.27051307 114.39548744 -820.30761719 106.95214844 C-819.7778125 106.283125 -819.24800781 105.61410156 -818.70214844 104.92480469 C-803.95298298 87.23281287 -781.87980229 72.43813426 -758.49511719 70.20214844 C-756.10036174 70.09211131 -753.70411013 70.01365763 -751.30761719 69.95214844 C-750.44700684 69.91573242 -749.58639648 69.87931641 -748.69970703 69.84179688 C-719.79730672 68.6757058 -696.22585366 76.77278349 -674.78295898 96.47827148 C-666.84715285 104.05749864 -660.02670988 113.03077951 -655.30761719 122.95214844 C-654.81648437 123.95246094 -654.32535156 124.95277344 -653.81933594 125.98339844 C-647.16167686 140.38905283 -644.73727076 155.18386227 -644.30761719 170.95214844 C-643.39882813 171.31566406 -643.39882813 171.31566406 -642.47167969 171.68652344 C-640.7030911 172.39395887 -638.9348911 173.10236625 -637.16699219 173.81152344 C-635.34696022 174.53754712 -633.52429685 175.2570336 -631.69824219 175.96777344 C-627.78453924 177.49922242 -623.97425209 179.07254452 -620.24511719 181.01464844 C-617.48189478 182.44351797 -614.77365273 183.51417139 -611.80761719 184.45214844 C-608.26096734 185.57435406 -605.11036444 187.04754887 -601.81152344 188.78027344 C-597.68713014 190.71056671 -593.400193 192.21619528 -589.11791992 193.75805664 C-585.0249206 195.24628415 -581.1893501 196.95970651 -577.30761719 198.95214844 C-575.7961809 199.59954273 -574.27540854 200.2256774 -572.74511719 200.82714844 C-571.89046875 201.16488281 -571.03582031 201.50261719 -570.15527344 201.85058594 C-568.12500385 202.63595771 -566.09067714 203.41087494 -564.05371094 204.17871094 C-554.3144056 207.85775328 -554.3144056 207.85775328 -550.49511719 209.88964844 C-545.96861048 212.26798247 -541.16039319 213.91305408 -536.36962891 215.66845703 C-531.47785668 217.47487722 -526.75530459 219.51156191 -522.03417969 221.72949219 C-517.87928621 223.59264642 -513.6196266 225.16087042 -509.35058594 226.74121094 C-506.2342653 227.98133854 -503.29892226 229.43837898 -500.30761719 230.95214844 C-498.77492072 231.59883432 -497.23334289 232.2249766 -495.68261719 232.82714844 C-491.87194516 234.32624164 -488.0844328 235.86957531 -484.30761719 237.45214844 C-483.30730469 237.86722656 -482.30699219 238.28230469 -481.27636719 238.70996094 C-479.33260259 239.52327297 -477.39475133 240.35090028 -475.46386719 241.19433594 C-474.58730469 241.56816406 -473.71074219 241.94199219 -472.80761719 242.32714844 C-472.03417969 242.66488281 -471.26074219 243.00261719 -470.46386719 243.35058594 C-467.91266977 244.06233304 -466.7431104 243.96610888 -464.30761719 242.95214844 C-462.67742733 241.57233512 -462.67742733 241.57233512 -461.18261719 239.82714844 C-457.0211968 235.47859779 -452.32030382 232.24913633 -447.30761719 228.95214844 C-446.61410156 228.48679687 -445.92058594 228.02144531 -445.20605469 227.54199219 C-425.13309335 214.46657714 -400.11565358 210.74388461 -376.74511719 215.20214844 C-374.25842167 215.75250338 -371.77828548 216.33380926 -369.30761719 216.95214844 C-368.21578125 217.20738281 -367.12394531 217.46261719 -365.99902344 217.72558594 C-355.55170436 220.51324268 -346.25784483 225.98533001 -337.30761719 231.95214844 C-333.40424379 231.64315765 -331.07903291 230.34264876 -327.99511719 228.01464844 C-323.74124447 224.92604866 -319.40333295 222.08460548 -314.93261719 219.32714844 C-302.03593511 211.34179284 -289.3553369 203.02150491 -276.76635742 194.56079102 C-271.53584597 191.06401652 -266.21097606 187.72668577 -260.84765625 184.43774414 C-257.14138661 182.1527876 -253.56656006 179.76098956 -250.06347656 177.17407227 C-247.87596147 175.65175399 -245.59611425 174.31755605 -243.30761719 172.95214844 C-241.64975627 171.88646416 -239.99763919 170.81180517 -238.35058594 169.72949219 C-236.94099609 168.80559692 -236.94099609 168.80559692 -235.50292969 167.86303711 C-234.0140625 166.88620972 -234.0140625 166.88620972 -232.49511719 165.88964844 C-225.64118358 161.40331031 -218.77428959 156.94908444 -211.80761719 152.63964844 C-206.24243603 149.19500409 -200.77998447 145.62582486 -195.35229492 141.96899414 C-189.01208632 137.71584894 -182.55433103 133.65323447 -176.09912109 129.57763672 C-170.90024014 126.28098198 -165.7428026 122.93039491 -160.63183594 119.49902344 C-159.80511131 118.94433884 -159.80511131 118.94433884 -158.96168518 118.37844849 C-156.26928266 116.5697059 -153.58200751 114.75380004 -150.8996582 112.93017578 C-149.45417603 111.95491943 -149.45417603 111.95491943 -147.97949219 110.95996094 C-147.12452148 110.37875488 -146.26955078 109.79754883 -145.38867188 109.19873047 C-143.30761719 107.95214844 -143.30761719 107.95214844 -141.30761719 107.95214844 C-141.4476416 107.37674316 -141.58766602 106.80133789 -141.73193359 106.20849609 C-145.40452707 89.8003486 -144.77556404 71.8523623 -139.30761719 55.95214844 C-138.95699219 54.85386719 -138.60636719 53.75558594 -138.24511719 52.62402344 C-129.94648974 28.76546953 -112.38518015 9.87851344 -90.30761719 -2.04785156 C-61.97602716 -15.5864694 -27.45046474 -15.45993916 0 0 Z " fill="#F3715B" transform="translate(1180.3076171875,352.0478515625)"/>
<path d="M0 0 C64.02 0 128.04 0 194 0 C194 203.28 194 406.56 194 616 C129.98 616 65.96 616 0 616 C0 412.72 0 209.44 0 0 Z " fill="#3A5769" transform="translate(1037,656)"/>
<path d="M0 0 C64.35 0 128.7 0 195 0 C195 177.21 195 354.42 195 537 C130.65 537 66.3 537 0 537 C0 359.79 0 182.58 0 0 Z " fill="#1B77A3" transform="translate(1385,736)"/>
<path d="M0 0 C64.35 0 128.7 0 195 0 C195 177.21 195 354.42 195 537 C130.65 537 66.3 537 0 537 C0 359.79 0 182.58 0 0 Z " fill="#1B77A3" transform="translate(340,736)"/>
<path d="M0 0 C64.02 0 128.04 0 194 0 C194 129.03 194 258.06 194 391 C129.98 391 65.96 391 0 391 C0 261.97 0 132.94 0 0 Z " fill="#F3715B" transform="translate(689,881)"/>
<path d="M0 0 C0.66 0.33 1.32 0.66 2 1 C2 2.32 2 3.64 2 5 C0.68 4.67 -0.64 4.34 -2 4 C-2 4.66 -2 5.32 -2 6 C-2.66 6 -3.32 6 -4 6 C-4.33 7.32 -4.66 8.64 -5 10 C-6.8125 10.6875 -6.8125 10.6875 -9 11 C-9.99 10.01 -10.98 9.02 -12 8 C-8.04 5.36 -4.08 2.72 0 0 Z " fill="#F37C69" transform="translate(952,515)"/>
<path d="M0 0 C0 3 0 3 -2.125 5.6875 C-5 8 -5 8 -8.3125 8.3125 C-9.6428125 8.1578125 -9.6428125 8.1578125 -11 8 C-11.66 9.32 -12.32 10.64 -13 12 C-15 11 -15 11 -16 9 C-13.71180854 7.49445366 -11.41978831 5.99542957 -9.125 4.5 C-8.47402344 4.07074219 -7.82304688 3.64148438 -7.15234375 3.19921875 C-2.2265625 0 -2.2265625 0 0 0 Z " fill="#F47E6C" transform="translate(1004,483)"/>
<path d="M0 0 C0.66 0.66 1.32 1.32 2 2 C1.60858572 4.93560712 0.63969895 7.54045158 -1 10 C-2.65438613 10.69658363 -4.32254318 11.36096883 -6 12 C-8.27191416 14.02040748 -8.27191416 14.02040748 -10 16 C-8.6619772 12.20109104 -6.97380503 9.43125504 -4.4375 6.3125 C-1.97527569 3.31223679 -1.97527569 3.31223679 0 0 Z " fill="#FAF1EF" transform="translate(1564,570)"/>
<path d="M0 0 C0.66 0.33 1.32 0.66 2 1 C-0.74978297 3.33314919 -3.45424876 5.30354711 -6.625 7 C-10.01512752 8.70576079 -10.01512752 8.70576079 -11.625 11.25 C-12.07875 11.8275 -12.5325 12.405 -13 13 C-15.6875 13.25 -15.6875 13.25 -18 13 C-14.67595538 9.36693615 -10.98946746 6.82160752 -6.875 4.1875 C-6.24207031 3.76791016 -5.60914063 3.34832031 -4.95703125 2.91601562 C-3.34557286 1.87763426 -1.67608969 0.93046082 0 0 Z " fill="#FADED9" transform="translate(1002,562)"/>
<path d="M0 0 C0.99 0 1.98 0 3 0 C3.33 1.32 3.66 2.64 4 4 C5.32 4.33 6.64 4.66 8 5 C8 5.66 8 6.32 8 7 C8.66 7 9.32 7 10 7 C9.67 8.65 9.34 10.3 9 12 C1.51708428 5.84965831 1.51708428 5.84965831 -1 2 C-0.67 1.34 -0.34 0.68 0 0 Z " fill="#FBF3F0" transform="translate(1547,443)"/>
<path d="M0 0 C2 3 2 3 1.75 5.5 C1 8 1 8 -1 11 C-1.66 11 -2.32 11 -3 11 C-3.12375 12.134375 -3.2475 13.26875 -3.375 14.4375 C-3.58125 15.613125 -3.7875 16.78875 -4 18 C-4.66 18.33 -5.32 18.66 -6 19 C-4.91081033 12.13523882 -3.09761199 6.22529789 0 0 Z " fill="#F58A79" transform="translate(349,477)"/>
<path d="M0 0 C3.3 0.33 6.6 0.66 10 1 C9.01 2.32 8.02 3.64 7 5 C7.99 5 8.98 5 10 5 C10 5.66 10 6.32 10 7 C6.51329166 5.8905928 3.22515763 4.73662334 0 3 C0 2.01 0 1.02 0 0 Z " fill="#F58271" transform="translate(1088,521)"/>
<path d="M0 0 C0.66 0.33 1.32 0.66 2 1 C1.67 1.66 1.34 2.32 1 3 C3.31 2.34 5.62 1.68 8 1 C8.33 1.99 8.66 2.98 9 4 C10.49985609 5.66710346 10.49985609 5.66710346 12 7 C11.01 7.495 11.01 7.495 10 8 C7.92803369 7.26821134 5.8891448 6.44100997 3.875 5.5625 C2.77929688 5.08941406 1.68359375 4.61632812 0.5546875 4.12890625 C-0.28835938 3.75636719 -1.13140625 3.38382813 -2 3 C-1.34 2.67 -0.68 2.34 0 2 C0 1.34 0 0.68 0 0 Z " fill="#F48675" transform="translate(576,609)"/>
<path d="M0 0 C0.66 0.33 1.32 0.66 2 1 C-0.13518274 3.90748288 -2.28705144 6.61176729 -5 9 C-8.9375 9.5 -8.9375 9.5 -12 9 C-8.63378119 5.21300384 -4.58358196 2.1727369 0 0 Z " fill="#F37C69" transform="translate(900,549)"/>
<path d="M0 0 C0.66 0.33 1.32 0.66 2 1 C1.67 2.32 1.34 3.64 1 5 C0.34 5 -0.32 5 -1 5 C-1.33 5.99 -1.66 6.98 -2 8 C-3.32 7.67 -4.64 7.34 -6 7 C-6 6.01 -6 5.02 -6 4 C-3 1.8125 -3 1.8125 0 0 Z " fill="#F27D69" transform="translate(909,543)"/>
<path d="M0 0 C0.66 0 1.32 0 2 0 C2 0.99 2 1.98 2 3 C1.34 3 0.68 3 0 3 C-0.33 3.99 -0.66 4.98 -1 6 C-1.99 6 -2.98 6 -4 6 C-4.969375 6.680625 -5.93875 7.36125 -6.9375 8.0625 C-10 10 -10 10 -12.19140625 9.62109375 C-12.78824219 9.41613281 -13.38507813 9.21117187 -14 9 C-13.07316406 8.43410156 -12.14632813 7.86820313 -11.19140625 7.28515625 C-9.98172588 6.54434424 -8.77209291 5.80345482 -7.5625 5.0625 C-6.95083984 4.68931641 -6.33917969 4.31613281 -5.70898438 3.93164062 C-2.68972694 2.18538519 -2.68972694 2.18538519 0 0 Z " fill="#FAE5E0" transform="translate(1193,514)"/>
<path d="M0 0 C3.33557632 2.9905167 5.15083921 5.93184627 7 10 C3.25 11.125 3.25 11.125 1 10 C0.5859375 7.71484375 0.5859375 7.71484375 0.375 4.9375 C0.30023437 4.01839844 0.22546875 3.09929687 0.1484375 2.15234375 C0.09945313 1.44207031 0.05046875 0.73179687 0 0 Z " fill="#F57E6C" transform="translate(1211,378)"/>
<path d="M0 0 C1.32 0.66 2.64 1.32 4 2 C-0.95 4.97 -0.95 4.97 -6 8 C-6.33 7.01 -6.66 6.02 -7 5 C-2.25 1.125 -2.25 1.125 0 0 Z " fill="#F37A67" transform="translate(1034,538)"/>
<path d="M0 0 C0.66 0.66 1.32 1.32 2 2 C0.23086176 2.22226864 -1.54044371 2.42733873 -3.3125 2.625 C-4.29863281 2.74101562 -5.28476563 2.85703125 -6.30078125 2.9765625 C-9 3 -9 3 -12 1 C-7.68024478 -1.22532845 -4.70081591 -1.06433568 0 0 Z " fill="#F27F6B" transform="translate(1460,426)"/>
<path d="M0 0 C0.66 0.33 1.32 0.66 2 1 C1.67 1.66 1.34 2.32 1 3 C1.28112064 5.00800456 1.61067967 7.01014051 2 9 C-0.475 8.01 -0.475 8.01 -3 7 C-2.25 2.25 -2.25 2.25 0 0 Z M-5 7 C-4.34 7 -3.68 7 -3 7 C-3 7.66 -3 8.32 -3 9 C-3.66 9 -4.32 9 -5 9 C-5 8.34 -5 7.68 -5 7 Z " fill="#F9F6F2" transform="translate(1198,510)"/>
<path d="M0 0 C0.33 0.99 0.66 1.98 1 3 C1.66 3 2.32 3 3 3 C2.67 3.99 2.34 4.98 2 6 C1.34 6 0.68 6 0 6 C-0.66 7.32 -1.32 8.64 -2 10 C-2.66 10 -3.32 10 -4 10 C-4.33 8.68 -4.66 7.36 -5 6 C-3.35 5.34 -1.7 4.68 0 4 C0 2.68 0 1.36 0 0 Z " fill="#F27C68" transform="translate(1202,500)"/>
<path d="M0 0 C0.66 0.33 1.32 0.66 2 1 C-0.0140476 4.0210714 -1.63279613 5.60667426 -5 7 C-5 7.66 -5 8.32 -5 9 C-6.32 9.33 -7.64 9.66 -9 10 C-9 7 -9 7 -7.3125 5 C-4.97195262 2.97574281 -2.76837018 1.38418509 0 0 Z " fill="#F9EDE8" transform="translate(934,606)"/>
<path d="M0 0 C0 3 0 3 -2.25 5.5625 C-4.54755437 7.59896864 -6.27696606 8.73573424 -9 10 C-9.33 10.66 -9.66 11.32 -10 12 C-10.66 11.34 -11.32 10.68 -12 10 C-11.30132812 9.44570313 -10.60265625 8.89140625 -9.8828125 8.3203125 C-8.97273438 7.59585938 -8.06265625 6.87140625 -7.125 6.125 C-6.22007812 5.40570312 -5.31515625 4.68640625 -4.3828125 3.9453125 C-1.99734824 2.06439526 -1.99734824 2.06439526 0 0 Z " fill="#FBEFEB" transform="translate(505,588)"/>
<path d="M0 0 C4.21878192 -0.19622241 7.17010894 0.19769832 11 2 C10.34 3.32 9.68 4.64 9 6 C5.56404834 4.47291037 2.88087546 2.40072955 0 0 Z " fill="#FBEEEC" transform="translate(1531,434)"/>
<path d="M0 0 C1.79068573 2.6860286 2.66055791 4.6626589 3.625 7.6875 C3.88539063 8.49574219 4.14578125 9.30398438 4.4140625 10.13671875 C4.60742188 10.75160156 4.80078125 11.36648438 5 12 C3.29115995 10.37660195 1.62553283 8.70680947 0 7 C0 6.34 0 5.68 0 5 C-0.66 5 -1.32 5 -2 5 C-1.125 1.125 -1.125 1.125 0 0 Z " fill="#F38370" transform="translate(526,479)"/>
<path d="M0 0 C0.33 0.99 0.66 1.98 1 3 C0.34 3.66 -0.32 4.32 -1 5 C-0.67 5.66 -0.34 6.32 0 7 C-1.65 8.32 -3.3 9.64 -5 11 C-5.66 10.67 -6.32 10.34 -7 10 C-4.93992341 6.39486597 -2.6486859 3.19668988 0 0 Z " fill="#F37C69" transform="translate(1065,368)"/>
<path d="M0 0 C3.78496138 1.51398455 4.0072198 2.0144396 6 6 C2.7 5.01 -0.6 4.02 -4 3 C-2.68 2.01 -1.36 1.02 0 0 Z " fill="#F9EBE6" transform="translate(633,560)"/>
<path d="M0 0 C0.33 1.65 0.66 3.3 1 5 C-2.37503669 3.8141763 -4.64722731 2.72426311 -7 0 C-3.98968256 -0.93423645 -3.13349732 -1.04449911 0 0 Z " fill="#F47F6D" transform="translate(735,741)"/>
<path d="M0 0 C1.98 0 3.96 0 6 0 C5.34 0.66 4.68 1.32 4 2 C4.3185177 4.10820797 4.3185177 4.10820797 5 6 C3.35 5.67 1.7 5.34 0 5 C0 3.35 0 1.7 0 0 Z " fill="#F27C69" transform="translate(617,625)"/>
<path d="M0 0 C1.98 0.99 3.96 1.98 6 3 C5.1875 4.9375 5.1875 4.9375 4 7 C3.01 7.33 2.02 7.66 1 8 C0.67 5.36 0.34 2.72 0 0 Z " fill="#FAF7F6" transform="translate(1079,518)"/>
<path d="M0 0 C0.33 0 0.66 0 1 0 C1.33 3.3 1.66 6.6 2 10 C0.02 10.99 0.02 10.99 -2 12 C-1.34 8.04 -0.68 4.08 0 0 Z " fill="#FBF2ED" transform="translate(1037,450)"/>
<path d="M0 0 C1.34110539 2.20887947 2.06609767 3.45469419 1.75 6.0625 C1 8 1 8 -1 11 C-1.33 7.7 -1.66 4.4 -2 1 C-1.34 0.67 -0.68 0.34 0 0 Z " fill="#F47D6C" transform="translate(1228,414)"/>
<path d="M0 0 C1.65 0.33 3.3 0.66 5 1 C4.01 2.485 4.01 2.485 3 4 C-1 4 -1 4 -4 3 C-4 2.34 -4 1.68 -4 1 C-2.68 1.33 -1.36 1.66 0 2 C0 1.34 0 0.68 0 0 Z " fill="#F67664" transform="translate(646,570)"/>
<path d="M0 0 C-0.66 2.31 -1.32 4.62 -2 7 C-2.33 6.34 -2.66 5.68 -3 5 C-5.02463255 4.34786708 -5.02463255 4.34786708 -7 4 C-3.375 0 -3.375 0 0 0 Z " fill="#F37B67" transform="translate(375,446)"/>
<path d="M0 0 C2.31 1.98 4.62 3.96 7 6 C5.68 6.33 4.36 6.66 3 7 C2.34 6.34 1.68 5.68 1 5 C1.33 4.34 1.66 3.68 2 3 C1.01 2.67 0.02 2.34 -1 2 C-0.67 1.34 -0.34 0.68 0 0 Z " fill="#FBEBE8" transform="translate(713,728)"/>
<path d="M0 0 C0.86625 0.3403125 0.86625 0.3403125 1.75 0.6875 C-0.30233685 2.9352975 -1.25667261 3.6897242 -4.25 4.6875 C-4.91 4.0275 -5.57 3.3675 -6.25 2.6875 C-2.80384615 -0.38942308 -2.80384615 -0.38942308 0 0 Z " fill="#F37865" transform="translate(974.25,578.3125)"/>
<path d="M0 0 C2.2870771 0.26970249 4.53591335 0.60689229 6.796875 1.04296875 C6.796875 1.37296875 6.796875 1.70296875 6.796875 2.04296875 C5.83974609 2.11644531 5.83974609 2.11644531 4.86328125 2.19140625 C4.03699219 2.26617187 3.21070313 2.3409375 2.359375 2.41796875 C1.53566406 2.48757813 0.71195313 2.5571875 -0.13671875 2.62890625 C-0.81863281 2.76554687 -1.50054688 2.9021875 -2.203125 3.04296875 C-2.533125 3.70296875 -2.863125 4.36296875 -3.203125 5.04296875 C-3.863125 4.71296875 -4.523125 4.38296875 -5.203125 4.04296875 C-3.94603213 1.27736445 -3.13780685 0.06119836 0 0 Z " fill="#FCE6E1" transform="translate(1217.203125,490.95703125)"/>
<path d="M0 0 C0 0.66 0 1.32 0 2 C0.99 2.33 1.98 2.66 3 3 C3 3.66 3 4.32 3 5 C0.36 4.34 -2.28 3.68 -5 3 C-2.25 0 -2.25 0 0 0 Z " fill="#F47F6C" transform="translate(637,633)"/>
<path d="M0 0 C0 0.66 0 1.32 0 2 C-0.99 2.33 -1.98 2.66 -3 3 C-3.99 4.485 -3.99 4.485 -5 6 C-7.625 6.1875 -7.625 6.1875 -10 6 C-2.6 0 -2.6 0 0 0 Z " fill="#F18472" transform="translate(743,576)"/>
<path d="M0 0 C0.33 0.99 0.66 1.98 1 3 C-1.8125 3.625 -1.8125 3.625 -5 4 C-5.99 3.34 -6.98 2.68 -8 2 C-4.91190305 0.23537317 -3.76687864 0 0 0 Z " fill="#F17F6B" transform="translate(762,569)"/>
<path d="M0 0 C4.875 4.625 4.875 4.625 6 8 C5.34 8 4.68 8 4 8 C4 7.34 4 6.68 4 6 C2.35 5.67 0.7 5.34 -1 5 C-0.67 3.35 -0.34 1.7 0 0 Z " fill="#F58271" transform="translate(1558,458)"/>
<path d="M0 0 C2 3.75 2 3.75 2 6 C1.01 6 0.02 6 -1 6 C-1.99 6.33 -2.98 6.66 -4 7 C-2.92598892 4.08482708 -2.22189824 2.22189824 0 0 Z " fill="#F58878" transform="translate(364,454)"/>
<path d="M0 0 C0.33 0 0.66 0 1 0 C0.4140625 6.15234375 0.4140625 6.15234375 0 8 C-0.99 8.495 -0.99 8.495 -2 9 C-2.98120464 5.94736336 -2.98120464 4.05263664 -2 1 C-1.67 1.66 -1.34 2.32 -1 3 C-0.67 2.01 -0.34 1.02 0 0 Z " fill="#F8FAF5" transform="translate(1035,454)"/>
<path d="M0 0 C0.66 0.33 1.32 0.66 2 1 C2 1.66 2 2.32 2 3 C2.66 3.33 3.32 3.66 4 4 C2.39504433 3.88557539 0.79101881 3.75805306 -0.8125 3.625 C-1.70582031 3.55539062 -2.59914063 3.48578125 -3.51953125 3.4140625 C-6 3 -6 3 -9 1 C-7.700625 1.020625 -6.40125 1.04125 -5.0625 1.0625 C-3.70834367 1.08399454 -2.35243917 1.07148199 -1 1 C-0.67 0.67 -0.34 0.34 0 0 Z " fill="#F9D7D0" transform="translate(1318,443)"/>
<path d="M0 0 C0 0.99 0 1.98 0 3 C-3 5 -3 5 -5.6875 4.625 C-6.450625 4.41875 -7.21375 4.2125 -8 4 C-7.67 3.34 -7.34 2.68 -7 2 C-4.6859378 1.26924352 -2.35171131 0.59861742 0 0 Z " fill="#F8F4F2" transform="translate(1184,522)"/>
<path d="M0 0 C-0.625 1.9375 -0.625 1.9375 -2 4 C-5.125 4.75 -5.125 4.75 -8 5 C-3.16129032 0 -3.16129032 0 0 0 Z " fill="#F48072" transform="translate(1024,470)"/>
<path d="M0 0 C1.04449911 3.13349732 0.93423645 3.98968256 0 7 C-1.32 7 -2.64 7 -4 7 C-2.92598892 4.08482708 -2.22189824 2.22189824 0 0 Z " fill="#F47D6B" transform="translate(359,461)"/>
<path d="M0 0 C0.66 0 1.32 0 2 0 C1.67 1.65 1.34 3.3 1 5 C-1.31 5.33 -3.62 5.66 -6 6 C-4 4 -2 2 0 0 Z " fill="#F4816F" transform="translate(1428,437)"/>
<path d="M0 0 C-4.55426184 2.66590937 -7.73946963 3.31563182 -13 3 C-8.8341563 0.22277086 -4.9360889 -1.89849573 0 0 Z " fill="#F59787" transform="translate(1112,344)"/>
<path d="M0 0 C0 3 0 3 -2 6 C-3.32 5.34 -4.64 4.68 -6 4 C-4.02 2.68 -2.04 1.36 0 0 Z " fill="#F9E7E2" transform="translate(894,632)"/>
<path d="M0 0 C0.66 0 1.32 0 2 0 C2 0.66 2 1.32 2 2 C1.34 2 0.68 2 0 2 C0 1.34 0 0.68 0 0 Z M0 2 C0.66 3.65 1.32 5.3 2 7 C0.35 6.67 -1.3 6.34 -3 6 C-3.33 5.01 -3.66 4.02 -4 3 C-2 2 -2 2 0 2 Z " fill="#F67F6D" transform="translate(526,585)"/>
<path d="M0 0 C0.66 0.33 1.32 0.66 2 1 C0.8125 3 0.8125 3 -1 5 C-3.6875 5.25 -3.6875 5.25 -6 5 C-2.25 1.125 -2.25 1.125 0 0 Z " fill="#FAEDE7" transform="translate(990,570)"/>
<path d="M0 0 C2.475 0.99 2.475 0.99 5 2 C2.64046906 4.35953094 1.22104383 4.49141413 -2 5 C-2.33 4.34 -2.66 3.68 -3 3 C-2.01 3 -1.02 3 0 3 C0 2.01 0 1.02 0 0 Z " fill="#F37A68" transform="translate(547,528)"/>
<path d="M0 0 C2.12508244 3.18762365 2.5020163 5.26512223 3 9 C2.01 8.67 1.02 8.34 0 8 C0 5.36 0 2.72 0 0 Z " fill="#F48474" transform="translate(1571,479)"/>
<path d="M0 0 C0.99 0 1.98 0 3 0 C3.625 1.875 3.625 1.875 4 4 C3.34 4.66 2.68 5.32 2 6 C1.01 4.68 0.02 3.36 -1 2 C-0.67 1.34 -0.34 0.68 0 0 Z " fill="#FAEBE7" transform="translate(1547,443)"/>
<path d="M0 0 C0.99 0 1.98 0 3 0 C3 1.32 3 2.64 3 4 C0.36 3.67 -2.28 3.34 -5 3 C-4.360625 2.690625 -3.72125 2.38125 -3.0625 2.0625 C-1.06389179 1.1654837 -1.06389179 1.1654837 0 0 Z " fill="#F38876" transform="translate(421,611)"/>
<path d="M0 0 C1.32 1.32 2.64 2.64 4 4 C2.35 4.33 0.7 4.66 -1 5 C-1.33 4.01 -1.66 3.02 -2 2 C-1.34 1.34 -0.68 0.68 0 0 Z " fill="#FAEEEA" transform="translate(1412,586)"/>
<path d="M0 0 C0.33 0.99 0.66 1.98 1 3 C0.38125 3.144375 -0.2375 3.28875 -0.875 3.4375 C-3.03258322 3.93152225 -3.03258322 3.93152225 -5 5 C-5.66 4.34 -6.32 3.68 -7 3 C-2.25 0 -2.25 0 0 0 Z " fill="#F3816F" transform="translate(865,573)"/>
<path d="M0 0 C3.68754757 0.49831724 5.60490662 1.10067643 8 4 C5.36 3.67 2.72 3.34 0 3 C0 2.01 0 1.02 0 0 Z " fill="#F37C68" transform="translate(1224,490)"/>
<path d="M0 0 C1.32 0.66 2.64 1.32 4 2 C2.02 2.99 0.04 3.98 -2 5 C-2.33 4.34 -2.66 3.68 -3 3 C-2.01 2.01 -1.02 1.02 0 0 Z " fill="#FAF5F1" transform="translate(1012,473)"/>
</svg>
