<?xml version="1.0" encoding="UTF-8"?>
<svg version="1.1" xmlns="http://www.w3.org/2000/svg" width="512" height="512">
<path d="M0 0 C6.59419472 6.20374898 11.79904742 14.1396864 12.546875 23.3515625 C12.5599558 24.98012216 12.47874285 26.60907039 12.375 28.234375 C13.550625 28.440625 14.72625 28.646875 15.9375 28.859375 C21.90441364 30.40908579 25.64059228 33.39416764 28.8515625 38.65234375 C34.95777918 51.02546702 34.71994039 64.19950982 34.4140625 77.72070312 C34.46918937 84.27046464 34.75023503 88.34192357 39.2734375 93.29296875 C39.97903809 93.9367749 40.68463867 94.58058105 41.41162109 95.24389648 C46.2455113 100.14450664 47.57932554 107.18125847 47.8125 113.859375 C47.42004212 122.77196688 44.2462347 130.48816148 38.375 137.234375 C31.55848019 142.86070881 25.06587105 145.3505576 16.375 146.234375 C16.24544922 147.10835938 16.24544922 147.10835938 16.11328125 148 C13.00855736 166.11563663 3.09912837 181.43897979 -11.625 192.359375 C-14.625 194.234375 -14.625 194.234375 -16.625 194.234375 C-16.625 198.194375 -16.625 202.154375 -16.625 206.234375 C-14.975 205.904375 -13.325 205.574375 -11.625 205.234375 C-6.96707335 207.00243616 -3.85648246 209.59585436 -0.375 213.109375 C0.47578125 213.95242188 1.3265625 214.79546875 2.203125 215.6640625 C4.375 218.234375 4.375 218.234375 5.109375 220.9296875 C6.10862743 223.3778564 6.10862743 223.3778564 8.17442322 223.80397034 C8.91986893 223.9389946 9.66531464 224.07401886 10.43334961 224.21313477 C14.99123889 225.12567152 19.30513993 226.39894074 23.70703125 227.87890625 C24.84382576 228.25640266 24.84382576 228.25640266 26.00358582 228.64152527 C27.59500613 229.17132343 29.18568368 229.70335763 30.77563477 230.23754883 C33.16920569 231.04073616 35.56580713 231.83431948 37.96289062 232.62695312 C68.53255422 242.79948656 68.53255422 242.79948656 76.125 256.51953125 C80.60552612 266.25067392 81.09772771 276.68298236 81.375 287.234375 C81.40223145 288.15299316 81.42946289 289.07161133 81.45751953 290.01806641 C81.53550797 292.98604149 81.58514653 295.953158 81.625 298.921875 C81.64651123 299.86659668 81.66802246 300.81131836 81.69018555 301.78466797 C81.72100657 308.24312684 80.72708755 311.58827651 76.375 316.484375 C73.4303731 319.06092354 70.94465151 319.35948728 67.17794991 319.36580276 C66.31814494 319.36964391 65.45833998 319.37348505 64.57248032 319.3774426 C63.62745616 319.37657612 62.68243201 319.37570963 61.70877075 319.37481689 C60.70518143 319.37778802 59.7015921 319.38075914 58.66759098 319.3838203 C55.28896507 319.39252441 51.91037453 319.39401698 48.53173828 319.39550781 C46.11579309 319.40013472 43.69984863 319.40515921 41.28390503 319.41055298 C34.7095773 319.42369002 28.13525694 319.43016085 21.56091928 319.43456364 C17.45670727 319.43732578 13.35249762 319.44156305 9.2482872 319.44606781 C-2.11300191 319.4582599 -13.47428913 319.4685597 -24.83558464 319.4719429 C-25.56275384 319.47216247 -26.28992303 319.47238203 -27.03912766 319.47260825 C-28.13250107 319.47293567 -28.13250107 319.47293567 -29.24796283 319.4732697 C-30.72504163 319.47371317 -32.20212042 319.47415973 -33.67919922 319.47460938 C-34.77822398 319.47494152 -34.77822398 319.47494152 -35.89945127 319.47528037 C-47.77492016 319.47922947 -59.65032772 319.49668714 -71.52577291 319.5199689 C-83.71533825 319.54367382 -95.9048728 319.55614434 -108.09446156 319.55731082 C-114.93962451 319.55822801 -121.78470753 319.56399131 -128.62984848 319.58213043 C-135.06645915 319.59912682 -141.50295848 319.60079048 -147.93958664 319.59199142 C-150.30472723 319.59121845 -152.66987583 319.59559781 -155.03499603 319.60544968 C-158.25844816 319.6180917 -161.48135571 319.61233439 -164.70480347 319.60186768 C-165.64536618 319.60992408 -166.5859289 319.61798048 -167.55499351 319.62628102 C-173.82064998 319.57854839 -177.12317471 318.4582197 -181.875 314.234375 C-184.54460092 311.18340252 -184.7523442 308.58991156 -184.7578125 304.69140625 C-184.75998779 303.79019043 -184.76216309 302.88897461 -184.7644043 301.96044922 C-184.75965088 300.99896973 -184.75489746 300.03749023 -184.75 299.046875 C-184.74589111 298.05961426 -184.74178223 297.07235352 -184.73754883 296.05517578 C-184.46962447 260.51054442 -184.46962447 260.51054442 -172.87890625 247.234375 C-163.33988813 238.03249473 -148.22025545 234.94170874 -135.94018555 230.87573242 C-133.03529454 229.91285729 -130.1337803 228.94025812 -127.23242188 227.96679688 C-125.38300492 227.35098432 -123.53340225 226.73572915 -121.68359375 226.12109375 C-120.81802353 225.83054611 -119.95245331 225.53999847 -119.06065369 225.24064636 C-118.258741 224.97649429 -117.45682831 224.71234222 -116.63061523 224.44018555 C-115.57571144 224.08974434 -115.57571144 224.08974434 -114.49949646 223.73222351 C-112.625 223.234375 -112.625 223.234375 -109.625 223.234375 C-109.29048828 222.17283203 -109.29048828 222.17283203 -108.94921875 221.08984375 C-107.34017667 217.62019844 -105.11257785 215.2074734 -102.4375 212.546875 C-101.98052734 212.06154297 -101.52355469 211.57621094 -101.05273438 211.07617188 C-97.55120823 207.55521979 -94.48474255 206.119522 -89.625 205.234375 C-88.635 205.564375 -87.645 205.894375 -86.625 206.234375 C-86.625 202.274375 -86.625 198.314375 -86.625 194.234375 C-88.275 193.574375 -89.925 192.914375 -91.625 192.234375 C-95.1839105 189.47650545 -98.39012939 186.36243384 -101.625 183.234375 C-102.57632813 182.33912109 -102.57632813 182.33912109 -103.546875 181.42578125 C-111.60843737 173.12385119 -119.625 157.98286684 -119.625 146.234375 C-120.30304688 146.15960938 -120.98109375 146.08484375 -121.6796875 146.0078125 C-130.81703561 144.71694061 -138.27679654 141.6731366 -144.0625 134.234375 C-149.72003798 125.84395851 -151.53801261 118.29074581 -150.625 108.234375 C-149.27407445 101.97021066 -147.29155953 97.64483653 -142.51953125 93.34375 C-137.01515169 87.31633551 -137.60752002 80.87427871 -137.8125 73.109375 C-138.05057896 50.0270531 -133.16792839 29.86540623 -116.96875 12.61328125 C-102.81031948 -1.75752573 -86.61469145 -9.37131655 -66.625 -11.765625 C-65.78195313 -11.87648437 -64.93890625 -11.98734375 -64.0703125 -12.1015625 C-42.63375254 -14.51236104 -17.58754363 -13.92347204 0 0 Z " fill="#020202" transform="translate(307.625,192.765625)"/>
<path d="M0 0 C0.75665955 -0.0049649 1.51331909 -0.00992981 2.29290771 -0.01504517 C4.79269325 -0.02963188 7.29241525 -0.03646405 9.79223633 -0.04199219 C11.53615825 -0.04774787 13.28008017 -0.05350555 15.02400208 -0.05926514 C18.68153172 -0.06976614 22.33903944 -0.07561425 25.99658203 -0.07910156 C30.66580667 -0.08457497 35.33473804 -0.10858204 40.00387096 -0.13707352 C43.608005 -0.15577162 47.21206952 -0.16090937 50.81624794 -0.16243744 C52.53650828 -0.16544989 54.25676781 -0.17343047 55.97698021 -0.18662262 C68.34473076 -0.27467573 79.03897283 0.07923032 88.43676758 9.16113281 C93.0454552 14.57133132 95.17840943 19.05628386 95.43676758 26.16113281 C96.71551758 26.20238281 97.99426758 26.24363281 99.31176758 26.28613281 C106.05813099 27.061699 111.59955507 30.21663075 116.29614258 35.09082031 C123.16074384 43.82449618 123.89519886 51.15258498 123.87036133 62.05566406 C123.87493124 63.41176106 123.88023921 64.76785575 123.88624573 66.12394714 C123.8951501 68.95911087 123.89278611 71.79399256 123.8828125 74.62915039 C123.8713492 78.2368427 123.89150585 81.84355228 123.92072964 85.45111561 C123.93920869 88.25068708 123.93877578 91.05002836 123.93309212 93.84964561 C123.93286706 95.81807501 123.94966339 97.78648313 123.96690369 99.75483704 C123.89859707 108.62314713 122.60630211 116.24178992 117.18676758 123.47363281 C110.08655878 130.41247323 102.24726759 133.38992495 92.34655762 133.38772583 C91.2929303 133.37224197 91.2929303 133.37224197 90.21801758 133.35644531 C89.10299866 133.35220047 89.10299866 133.35220047 87.9654541 133.34786987 C85.62238541 133.33679438 83.27971811 133.31171509 80.93676758 133.28613281 C79.33521065 133.27608662 77.73364765 133.26696366 76.13208008 133.25878906 C72.23349108 133.23689672 68.33519706 133.20245667 64.43676758 133.16113281 C64.49477539 134.3303125 64.5527832 135.49949219 64.61254883 136.70410156 C64.65946207 138.25223861 64.70496056 139.80041898 64.74926758 141.34863281 C64.79116211 142.11755859 64.83305664 142.88648438 64.8762207 143.67871094 C64.9690795 148.00593089 64.8537045 149.63324243 62.07348633 153.15332031 C59.29852255 155.26640384 57.90220811 156.0744968 54.43676758 156.16113281 C50.17208603 154.88185942 47.99515497 152.96394398 45.06567383 149.66113281 C44.24260742 148.77425781 43.41954102 147.88738281 42.5715332 146.97363281 C40.87261202 145.11604246 39.19237927 143.24116515 37.5324707 141.34863281 C31.59937895 135.04443648 27.28383147 132.98961371 18.61010742 132.45458984 C11.77402532 131.82241792 7.08908082 128.14626238 2.56176758 123.22363281 C-1.27371995 118.50030095 -3.45724632 114.14351216 -4.56323242 108.16113281 C-5.18069336 108.01417969 -5.7981543 107.86722656 -6.43432617 107.71582031 C-16.56472465 105.03288373 -24.17345088 100.33259714 -29.56323242 91.16113281 C-31.40546619 87.2667508 -31.8239597 84.1560799 -31.85375977 79.86132812 C-31.86651947 78.60942688 -31.87927917 77.35752563 -31.89242554 76.06768799 C-31.89548406 74.70821284 -31.89771136 73.34873561 -31.89916992 71.98925781 C-31.90560424 70.58306749 -31.91233307 69.17687849 -31.91934204 67.77069092 C-31.93129889 64.82528586 -31.93502468 61.87999792 -31.93383789 58.93457031 C-31.93363516 55.1810485 -31.96089551 51.42828775 -31.99538231 47.67494583 C-32.01774893 44.76992423 -32.02167242 41.86508268 -32.02061844 38.95998383 C-32.02296135 37.57743466 -32.03171022 36.19487952 -32.04728317 34.81241608 C-32.15652702 24.10978184 -30.77705042 15.81595868 -23.40698242 7.73144531 C-16.48243159 1.83384058 -8.83815444 0.01391154 0 0 Z " fill="#030403" transform="translate(31.563232421875,100.8388671875)"/>
<path d="M0 0 C0.598125 0.38671875 1.19625 0.7734375 1.8125 1.171875 C9.93950385 6.52994391 9.93950385 6.52994391 11.578125 10.765625 C11.96875 12.71875 12.359375 14.671875 12.75 16.625 C20.79385057 17.72188871 27.00546909 13.26978559 33.82421875 9.46875 C38.68559079 7.33881823 43.96534982 7.6001378 48.90722656 9.41894531 C52.08350416 10.78173558 55.20434623 12.2243757 58.29150391 13.77880859 C63.08890122 16.14327774 66.39241771 17.07855194 71.75 16.625 C71.976875 15.408125 72.20375 14.19125 72.4375 12.9375 C73.36137356 7.98217818 76.44881275 5.26459183 80.46704102 2.40161133 C82.34812581 1.17739745 84.25645282 0.01861119 86.1875 -1.125 C86.83009766 -1.52332031 87.47269531 -1.92164062 88.13476562 -2.33203125 C91.97924372 -4.63481508 95.18070863 -6.1027869 99.75 -6.375 C107.17323881 -4.07123623 110.08066496 0.36807105 114.03515625 6.73046875 C114.64351318 7.7054834 115.25187012 8.68049805 115.87866211 9.68505859 C117.18861317 11.80353772 118.49800388 13.92236342 119.80688477 16.04150391 C120.47131592 17.11706543 121.13574707 18.19262695 121.8203125 19.30078125 C122.48063477 20.37021973 123.14095703 21.4396582 123.82128906 22.54150391 C125.57107851 25.3389521 127.36185988 28.1019473 129.1796875 30.85546875 C129.69136475 31.64606689 130.20304199 32.43666504 130.73022461 33.2512207 C131.6691565 34.70012363 132.62459442 36.13852807 133.59985352 37.56323242 C136.91867899 42.76232199 137.96998216 47.50254468 136.75 53.625 C133.5691022 58.86086853 129.32277618 61.47317366 124.0625 64.4375 C123.38638672 64.83130859 122.71027344 65.22511719 122.01367188 65.63085938 C116.70150451 68.71244502 113.96169435 69.94084887 107.75 69.625 C106.06677662 69.00131637 104.39578556 68.34166738 102.75 67.625 C102.25371094 68.33785156 101.75742187 69.05070312 101.24609375 69.78515625 C100.56675781 70.74292969 99.88742187 71.70070313 99.1875 72.6875 C98.19556641 74.09708984 98.19556641 74.09708984 97.18359375 75.53515625 C91.6873812 82.51349354 85.88912845 87.11606432 78.1875 91.5 C76.41554961 92.53324294 74.64472239 93.56841435 72.875 94.60546875 C72.00875 95.11126465 71.1425 95.61706055 70.25 96.13818359 C65.5393162 98.93975238 60.975935 101.96222482 56.40234375 104.98046875 C51.90544087 107.76868099 47.83773952 107.90138793 42.6875 108 C41.61725586 108.05607422 41.61725586 108.05607422 40.52539062 108.11328125 C29.97121214 108.28305356 21.28049072 101.25778182 12.75 95.75 C11.82960938 95.16347656 10.90921875 94.57695312 9.9609375 93.97265625 C7.21037889 92.20997432 4.47722147 90.42354917 1.75 88.625 C0.84781738 88.03662354 -0.05436523 87.44824707 -0.98388672 86.84204102 C-6.06143434 83.43331467 -9.83467611 80.30575251 -13.375 75.3125 C-14.12007813 74.28511719 -14.86515625 73.25773437 -15.6328125 72.19921875 C-17.25 69.625 -17.25 69.625 -17.25 67.625 C-18.219375 67.975625 -19.18875 68.32625 -20.1875 68.6875 C-26.52136454 70.37821284 -30.93489906 69.87912031 -36.76171875 66.72265625 C-51.16447909 57.88156274 -51.16447909 57.88156274 -53.4375 51.0625 C-54.05680837 39.91494932 -42.60778763 27.02348338 -36.83007812 18.08398438 C-35.26960146 15.65550462 -33.7335575 13.21312601 -32.203125 10.765625 C-31.23984967 9.2394152 -30.27631887 7.71336661 -29.3125 6.1875 C-28.87655518 5.48407471 -28.44061035 4.78064941 -27.99145508 4.0559082 C-25.21944079 -0.29066567 -22.45126483 -4.30355793 -17.33520508 -6.01586914 C-10.91014547 -7.1224448 -5.089852 -3.44578476 0 0 Z " fill="#020202" transform="translate(375.25,127.375)"/>
<path d="M0 0 C4.00922315 0.48052432 6.14026201 1.88512679 9.4765625 4.13671875 C25.29769557 14.43685313 43.00722793 16.90182994 61.5703125 13.76953125 C71.92105096 11.31231813 80.44536098 6.2408531 89.2265625 0.38671875 C92.0390625 -0.17578125 92.0390625 -0.17578125 95.2265625 0.38671875 C100.07383251 4.23877632 102.74971522 9.44035849 104.2265625 15.38671875 C104.68689786 20.34122972 104.6982967 25.28974911 104.6953125 30.26171875 C104.70243199 31.71411424 104.71013352 33.16650698 104.71838379 34.61889648 C104.73178617 37.65828255 104.73341918 40.69740918 104.72753906 43.73681641 C104.72168041 47.58504171 104.75209237 51.43198894 104.79265594 55.27996826 C104.81883944 58.28137624 104.8213825 61.28249019 104.81776428 64.28399658 C104.81943057 65.69984111 104.82882549 67.11570308 104.84690857 68.53143311 C105.04429144 85.90895315 100.04977437 102.39829223 87.9140625 115.26171875 C74.586609 127.77459106 58.78511182 132.06885563 40.96484375 131.703125 C34.63312107 131.40113304 29.06556539 129.80894248 23.2265625 127.38671875 C22.370625 127.05929687 21.5146875 126.731875 20.6328125 126.39453125 C7.09184742 120.52392297 -2.48186757 108.52671597 -8.0859375 95.19921875 C-8.69952378 93.6138895 -9.25649632 92.00614111 -9.7734375 90.38671875 C-10.1135083 89.32533691 -10.4535791 88.26395508 -10.80395508 87.17041016 C-12.40584824 80.65222084 -12.10247359 73.93621365 -12.109375 67.265625 C-12.11581437 65.79646174 -12.12254355 64.32729972 -12.12954712 62.85813904 C-12.14147183 59.789429 -12.14523277 56.72083115 -12.14404297 53.65209961 C-12.14383968 49.74061706 -12.1711729 45.8298602 -12.20558739 41.91854954 C-12.22793596 38.88743349 -12.23187815 35.85649019 -12.23082352 32.82530022 C-12.23316632 31.38413931 -12.24191452 29.94297266 -12.25748825 28.501894 C-12.35625569 18.42233325 -11.31668533 11.06749781 -5.3984375 2.82421875 C-2.7734375 0.38671875 -2.7734375 0.38671875 0 0 Z " fill="#F7CFB3" transform="translate(209.7734375,254.61328125)"/>
<path d="M0 0 C0.77762695 -0.00817749 1.55525391 -0.01635498 2.35644531 -0.02478027 C4.93138872 -0.04960229 7.50627703 -0.06614403 10.08129883 -0.08056641 C11.40265052 -0.08855192 11.40265052 -0.08855192 12.75069618 -0.09669876 C17.41533157 -0.12341928 22.07994032 -0.14279578 26.74462891 -0.15722656 C30.59838661 -0.17055405 34.45161335 -0.19838595 38.30517578 -0.23925781 C42.96415557 -0.28866904 47.62265454 -0.3133582 52.28188515 -0.32045364 C54.0532487 -0.3271517 55.82460214 -0.34233606 57.59581566 -0.36634445 C74.31775929 -0.58003479 74.31775929 -0.58003479 80.00947571 3.81234741 C84.70435811 8.64432655 86.45696013 13.02128635 86.54370117 19.62304688 C86.5597641 20.73495392 86.57582703 21.84686096 86.59237671 22.99246216 C86.63694613 28.08757877 86.67790883 33.18256582 86.70092773 38.27783203 C86.71422621 40.96079921 86.74200321 43.6429984 86.78295898 46.32568359 C86.83789632 50.20091533 86.8596312 54.07511415 86.87426758 57.95068359 C86.89693695 59.14162628 86.91960632 60.33256897 86.94296265 61.55960083 C86.92448901 68.88945631 85.97645262 74.33816655 81.35083008 80.19287109 C76.08134365 84.93961284 70.7339789 85.35007491 63.92114258 85.43896484 C62.22191868 85.47190356 60.52270006 85.5051152 58.82348633 85.53857422 C56.14855574 85.58596375 53.4736465 85.63040315 50.79858398 85.66967773 C48.21421211 85.70948498 45.63027379 85.76100683 43.04614258 85.81396484 C42.25015656 85.822379 41.45417053 85.83079315 40.63406372 85.83946228 C36.51062118 85.93087 33.01711709 86.07954701 29.35083008 88.19287109 C28.16387455 91.75373768 27.9998759 95.16618133 27.78833008 98.88037109 C27.72355469 99.93321289 27.72355469 99.93321289 27.6574707 101.00732422 C27.55165648 102.73562316 27.45076427 104.46422219 27.35083008 106.19287109 C22.08920962 101.8879089 17.32167661 97.22874708 12.61547852 92.33251953 C7.40401631 86.99851477 4.4194254 86.06599874 -2.96166992 85.44287109 C-8.46754907 84.84293928 -12.36339564 83.92296197 -16.35229492 79.92333984 C-19.56530815 75.63609629 -21.02476502 72.67078273 -21.0690918 67.24438477 C-21.08500366 66.06933884 -21.10091553 64.89429291 -21.11730957 63.68363953 C-21.11751099 62.42211563 -21.1177124 61.16059174 -21.11791992 59.86083984 C-21.12553345 58.55512527 -21.13314697 57.24941071 -21.14099121 55.90412903 C-21.15441543 53.14278569 -21.15601507 50.3817281 -21.15014648 47.62036133 C-21.14426261 44.09967245 -21.17479369 40.58036847 -21.21526337 37.05994701 C-21.24750008 33.68103656 -21.24302394 30.30240326 -21.24291992 26.92333984 C-21.25931519 25.66788864 -21.27571045 24.41243744 -21.29260254 23.11894226 C-21.23552962 15.85403522 -20.55529963 10.74898752 -15.64916992 5.19287109 C-10.62065744 0.52353807 -6.63786652 0.03852156 0 0 Z " fill="#6ED3F5" transform="translate(58.649169921875,137.80712890625)"/>
<path d="M0 0 C1.17626953 -0.00555908 2.35253906 -0.01111816 3.56445312 -0.0168457 C17.45687594 0.09787857 33.3670478 1.91987009 43.625 12.3125 C48.80257159 18.66626826 50.11969048 24.43919325 51.08984375 32.4453125 C51.47249949 35.53566988 51.47249949 35.53566988 53.75 38.5 C56.38931487 40.1639159 57.68401306 40.62704777 60.625 41.1875 C64.77089298 42.02450103 66.30892785 43.72172095 68.6171875 47.16796875 C71.11146185 52.47555254 71.87203082 57.52153321 71.8203125 63.33984375 C71.81064453 65.26860352 71.81064453 65.26860352 71.80078125 67.23632812 C71.78407601 68.57422154 71.76714619 69.91211217 71.75 71.25 C71.73995322 72.61522783 71.73083036 73.9804628 71.72265625 75.34570312 C71.69917605 78.66815199 71.66633359 81.99023321 71.625 85.3125 C69.315 84.9825 67.005 84.6525 64.625 84.3125 C64.48964844 83.42949219 64.35429687 82.54648437 64.21484375 81.63671875 C62.4115796 71.58379107 59.40844276 63.67999121 51.75 56.6875 C46.75899026 54.49145571 42.47583817 53.32129949 37.17578125 55.1640625 C33.73582423 56.83813892 30.51303283 58.71946956 27.33203125 60.84375 C14.13697539 69.50784028 -1.69682328 71.22629966 -17 68.1875 C-25.2460661 66.05818695 -32.55161982 62.28014558 -39.5625 57.5 C-43.68656794 54.87015958 -47.48460426 53.91783648 -52.375 54.3125 C-58.94911292 55.85216213 -62.35574918 60.16266388 -65.90234375 65.65625 C-69.19912704 71.60270263 -70.66049253 77.59612975 -71.375 84.3125 C-74.84 84.8075 -74.84 84.8075 -78.375 85.3125 C-78.93323105 58.85521073 -77.47673423 39.2703679 -58.625 19.1875 C-42.30441657 3.4004741 -21.73623979 0.08681971 0 0 Z " fill="#5A5C5F" transform="translate(259.375,190.6875)"/>
<path d="M0 0 C6.07048364 3.75602909 10.92640605 9.53949937 13.0625 16.375 C14.71305303 24.39197188 13.53287011 31.3796507 9.5 38.5 C5.16321259 44.51628598 -0.37591979 47.66152769 -7.5 49.5 C-16.07803223 50.76868376 -23.27574742 47.89850541 -30.5 43.5 C-31.19561035 43.96374023 -31.8912207 44.42748047 -32.60791016 44.90527344 C-54.5 59.5 -54.5 59.5 -57.77319336 61.49414062 C-60.54745625 63.53490917 -61.34111777 64.19613888 -61.96484375 67.484375 C-62.72981288 72.79653599 -62.92951128 77.60529076 -60.5 82.5 C-54.21837482 88.75242013 -46.05655831 92.93275964 -38.24902344 96.9921875 C-35.80479548 98.33282266 -33.67401607 99.76390588 -31.5 101.5 C-29.50010516 100.50898068 -27.51644322 99.50908355 -25.5625 98.4296875 C-18.61999449 94.87954264 -11.79005063 94.34806268 -4.16796875 96.0078125 C2.92537006 98.36773784 7.86542753 103.00969201 11.5 109.5 C14.28607303 116.88309352 14.65980548 124.21349278 11.5390625 131.51953125 C8.07404041 138.12391546 4.28405708 142.35923283 -2.5 145.5 C-9.48517907 147.65718766 -17.1538204 147.53872361 -23.8125 144.5 C-30.20397992 140.87713216 -35.34932701 135.62474132 -37.5 128.5 C-37.73046875 124.80078125 -37.73046875 124.80078125 -37.6875 120.8125 C-37.6865332 119.79833008 -37.6865332 119.79833008 -37.68554688 118.76367188 C-37.6409337 113.7818674 -37.6409337 113.7818674 -36.5 111.5 C-37.46679688 111.18482422 -37.46679688 111.18482422 -38.453125 110.86328125 C-42.72280406 108.95287357 -46.40232086 106.3303826 -50.25 103.6875 C-53.31095379 101.58893084 -56.38783243 99.52194687 -59.5 97.5 C-60.29398193 96.97986328 -61.08796387 96.45972656 -61.90600586 95.92382812 C-66.29087648 93.04502896 -66.29087648 93.04502896 -71.28515625 93.0703125 C-72.03667969 93.58335938 -72.78820312 94.09640625 -73.5625 94.625 C-80.54599181 98.78927016 -86.11668025 99.17789626 -94.04296875 97.3515625 C-100.97223266 94.95000522 -105.94726757 89.78560354 -109.5 83.5 C-112.68983678 76.66463547 -112.42622104 69.33005246 -109.9375 62.3125 C-106.83291493 55.42183557 -102.52679246 51.13829881 -95.625 48.0625 C-87.4725178 45.20111442 -80.33695319 45.97653113 -72.5 49.5 C-71.736875 50.0775 -70.97375 50.655 -70.1875 51.25 C-69.630625 51.6625 -69.07375 52.075 -68.5 52.5 C-63.46847002 51.71543777 -59.59613287 48.39837864 -55.51342773 45.55297852 C-52.3643269 43.37265589 -49.29881852 41.32839439 -45.84765625 39.65625 C-42.40870875 37.85703847 -40.00865792 36.47441978 -37.5 33.5 C-36.86599766 29.07519199 -37.06358262 25.07855652 -37.37890625 20.64453125 C-37.71680618 15.00989054 -36.02551862 10.88147386 -32.5 6.5 C-24.03776792 -1.638074 -11.11190374 -4.93377258 0 0 Z " fill="#010100" transform="translate(289.5,1.5)"/>
<path d="M0 0 C1.4387207 1.45996094 1.4387207 1.45996094 3.11328125 3.484375 C6.92726598 7.96909157 11.00111397 12.11471539 15.1875 16.25 C16.23454102 17.29027344 16.23454102 17.29027344 17.30273438 18.3515625 C18.63032296 19.67030891 19.95948311 20.98747593 21.29052734 22.30273438 C22.66074847 23.663171 24.01476312 25.03992254 25.36328125 26.421875 C26.92935099 28.08921192 26.92935099 28.08921192 29 29 C30.27875 28.896875 31.5575 28.79375 32.875 28.6875 C36.36627712 28.67480445 36.77372887 28.79069921 39.5 31.3125 C43.25531551 40.5443173 40.53068522 52.03967133 39.5 61.6875 C39.005 66.410625 38.51 71.13375 38 76 C18.2 76 -1.6 76 -22 76 C-22.4375 61.0625 -22.4375 61.0625 -22.56811523 56.34399414 C-22.60622314 55.12832764 -22.64433105 53.91266113 -22.68359375 52.66015625 C-22.73858032 50.78275757 -22.73858032 50.78275757 -22.79467773 48.86743164 C-22.67803906 46.10369496 -22.67803906 46.10369496 -24 45 C-27 44.83333333 -27 44.83333333 -30 45 C-31.88631543 46.88631543 -31.24265292 50.14200693 -31.31640625 52.66015625 C-31.33718735 53.32462265 -31.35796844 53.98908905 -31.37937927 54.6736908 C-31.44493658 56.80318543 -31.50378785 58.93280668 -31.5625 61.0625 C-31.60567939 62.50326847 -31.64929349 63.94402399 -31.69335938 65.38476562 C-31.80062393 68.9230404 -31.90187371 72.46145869 -32 76 C-36.50232334 76.07417023 -41.00429091 76.1286105 -45.50708008 76.16479492 C-47.03871861 76.17987936 -48.57031398 76.20034978 -50.10180664 76.22631836 C-52.30365654 76.26271847 -54.50493533 76.27972913 -56.70703125 76.29296875 C-57.39150833 76.30845261 -58.07598541 76.32393646 -58.78120422 76.33988953 C-61.63342208 76.34089867 -63.54482718 76.31306784 -65.93310547 74.67041016 C-68.85364733 70.09779061 -67.24705614 62.31635879 -67 57 C-66.96277832 56.10555176 -66.92555664 55.21110352 -66.88720703 54.28955078 C-65.7721099 30.72546517 -65.7721099 30.72546517 -57.390625 21.1640625 C-53.4266529 17.70874169 -48.67423146 15.99469561 -43.796875 14.203125 C-43.09968353 13.94457733 -42.40249207 13.68602966 -41.68417358 13.41964722 C-34.43825051 10.75510988 -27.13167226 8.27593497 -19.80371094 5.84765625 C-17.57592885 5.1087236 -15.35042402 4.36318833 -13.125 3.6171875 C-11.70064933 3.14284313 -10.27617507 2.66886971 -8.8515625 2.1953125 C-8.19024323 1.97352325 -7.52892395 1.75173401 -6.8475647 1.52322388 C-2.23008469 0 -2.23008469 0 0 0 Z " fill="#D8E4EF" transform="translate(200,426)"/>
<path d="M0 0 C2.16261817 0.63438149 4.30493819 1.31579305 6.44784546 2.0138092 C7.23547775 2.26688843 8.02311005 2.51996765 8.83460999 2.78071594 C10.49365399 3.31580204 12.15174911 3.85383823 13.80892944 4.39466858 C16.31368305 5.21013597 18.82280178 6.01093333 21.33261108 6.8106842 C46.69318107 14.98290173 46.69318107 14.98290173 53.95565796 27.1856842 C58.91716043 37.79930121 58.07095791 51.64828076 58.27206421 63.1544342 C58.29349487 63.83787903 58.31492554 64.52132385 58.33700562 65.22547913 C58.36887718 69.91709131 58.36887718 69.91709131 56.95736694 72.15492249 C54.04034165 74.13247944 51.12678789 73.83676364 47.72909546 73.75990295 C46.67005257 73.75353569 46.67005257 73.75353569 45.58961487 73.74703979 C43.33754118 73.73026454 41.08636678 73.69261663 38.83456421 73.6544342 C37.30658235 73.63938578 35.77858645 73.62569764 34.25057983 73.61341858 C30.50739549 73.58036509 26.76488225 73.52859252 23.02206421 73.4669342 C22.99700806 72.56338196 22.9719519 71.65982971 22.94613647 70.72889709 C22.85119104 67.3872914 22.751948 64.04587168 22.64974976 60.70448303 C22.60634791 59.25629181 22.56467677 57.80804766 22.52474976 56.35975647 C22.46717359 54.28203861 22.40344393 52.20458847 22.33847046 50.12709045 C22.30181274 48.87549133 22.26515503 47.62389221 22.22738647 46.33436584 C22.34402515 43.57062917 22.34402515 43.57062917 21.02206421 42.4669342 C18.02206421 42.30026754 18.02206421 42.30026754 15.02206421 42.4669342 C13.13574878 44.35324963 13.77941129 47.60894114 13.70565796 50.12709045 C13.66755005 51.34275696 13.62944214 52.55842346 13.59017944 53.81092834 C13.54707642 55.36803528 13.50397339 56.92514221 13.45956421 58.5294342 C13.31518921 63.4588092 13.17081421 68.3881842 13.02206421 73.4669342 C-6.77793579 73.4669342 -26.57793579 73.4669342 -46.97793579 73.4669342 C-47.47293579 68.7438092 -47.96793579 64.0206842 -48.47793579 59.1544342 C-48.71286743 56.95533386 -48.71286743 56.95533386 -48.95254517 54.71180725 C-50.97707074 34.92314095 -50.97707074 34.92314095 -48.47793579 28.7794342 C-45.97793579 26.4669342 -45.97793579 26.4669342 -42.10293579 26.3419342 C-41.40555298 26.39091858 -40.70817017 26.43990295 -39.98965454 26.4903717 C-36.43229493 26.44892674 -34.6204858 24.71591294 -31.97793579 22.4669342 C-30.89771872 21.27689364 -29.83815868 20.06793386 -28.79434204 18.84584045 C-24.96109563 14.4257649 -21.03065297 10.12407364 -16.97793579 5.9044342 C-16.30504517 5.16902405 -15.63215454 4.43361389 -14.93887329 3.67591858 C-14.27113892 2.98691467 -13.60340454 2.29791077 -12.91543579 1.58802795 C-12.32633423 0.96339661 -11.73723267 0.33876526 -11.13027954 -0.30479431 C-7.39816718 -2.43458756 -3.97604999 -1.0715698 0 0 Z " fill="#D8E4EF" transform="translate(320.9779357910156,428.53306579589844)"/>
<path d="M0 0 C1.2684375 0.2165625 1.2684375 0.2165625 2.5625 0.4375 C8.53206267 1.41433753 14.0605955 1.1878809 20 0 C20.4125 1.0725 20.825 2.145 21.25 3.25 C22.67483678 6.56574166 24.26875611 8.59007892 27 11 C32 16 32 16 34.12109375 18.3125 C38.30747797 22.22054931 43.07270514 24.99533922 47.9375 27.98242188 C55.58464836 32.77865966 55.58464836 32.77865966 57 36 C58.48374634 43.69022145 55.41340803 48.91074957 51.375 55.25 C50.85292969 56.12140625 50.33085937 56.9928125 49.79296875 57.890625 C45.85718475 64.26562327 42.65881453 68.88644775 35.2265625 71.1484375 C29.74554222 71.51002356 25.7972769 68.52533837 21.375 65.625 C20.50415771 65.07642334 19.63331543 64.52784668 18.73608398 63.96264648 C16.97648017 62.85049141 15.22270145 61.72906251 13.47509766 60.59814453 C11.25225673 59.16287952 9.01382303 57.75979221 6.76171875 56.37109375 C-1.25955127 51.37494164 -7.09825919 46.45537103 -12.6875 38.75 C-15.31865334 34.77150047 -15.31865334 34.77150047 -19 32 C-17.53192964 27.97175249 -15.59283355 24.502602 -13.33984375 20.859375 C-12.9899086 20.29172424 -12.63997345 19.72407349 -12.2794342 19.13922119 C-11.54416297 17.94812467 -10.80702517 16.75817857 -10.06811523 15.56933594 C-8.93382118 13.74408021 -7.8053148 11.91534672 -6.67773438 10.0859375 C-1.16059724 1.16059724 -1.16059724 1.16059724 0 0 Z " fill="#F7CEB2" transform="translate(381,154)"/>
<path d="M0 0 C1.76302232 -0.00082975 3.52604456 -0.00329314 5.2890625 -0.00730896 C8.97419675 -0.0101592 12.65872063 0.00445795 16.34375 0.03198242 C21.05129015 0.06606407 25.75773966 0.06003971 30.46533203 0.04131985 C34.10295594 0.03071694 37.74032906 0.03971744 41.37792969 0.05470467 C43.11294814 0.05986282 44.84799304 0.05943361 46.58300781 0.05315971 C49.01423845 0.04766736 51.44394357 0.06820835 53.875 0.09545898 C54.93509277 0.08567017 54.93509277 0.08567017 56.01660156 0.07568359 C62.58959671 0.20003942 67.77212871 2.45815986 72.4375 7.00390625 C74.18412258 9.93823219 74.52459003 12.27795831 75 15.62890625 C74.22262985 15.63255188 73.4452597 15.63619751 72.64433289 15.63995361 C65.27469741 15.67801161 57.90555757 15.73506322 50.53624249 15.81280899 C46.74867348 15.85211491 42.96133108 15.88438511 39.17358398 15.89990234 C35.5098542 15.91518165 31.84674814 15.94982211 28.18329811 15.99721527 C26.79411084 16.01191414 25.40483446 16.01994057 24.01556969 16.0207901 C14.21562791 16.03279606 4.72623291 16.80125089 -3.375 22.87890625 C-11.59242647 31.48763875 -13.26893082 40.46156916 -13.4140625 52.03515625 C-13.43342865 53.00046265 -13.4527948 53.96576904 -13.4727478 54.96032715 C-13.53210018 58.01643282 -13.57875038 61.07257707 -13.625 64.12890625 C-13.66322064 66.2122552 -13.7022747 68.29558903 -13.7421875 70.37890625 C-13.83776489 75.46211555 -13.92195813 80.54539872 -14 85.62890625 C-21.7886358 84.64093056 -21.7886358 84.64093056 -24.75 82.00390625 C-25.30171875 81.53726563 -25.8534375 81.070625 -26.421875 80.58984375 C-31.81129041 73.8930949 -31.46737545 66.7792638 -31.46875 58.5390625 C-31.47636353 57.28056992 -31.48397705 56.02207733 -31.49182129 54.72544861 C-31.50260354 52.0699792 -31.50685879 49.41540271 -31.50097656 46.76000977 C-31.49508146 43.37612061 -31.52568487 39.99366675 -31.56609344 36.61005497 C-31.59832541 33.3572525 -31.59385404 30.10449985 -31.59375 26.8515625 C-31.61014526 25.64613297 -31.62654053 24.44070343 -31.64343262 23.19874573 C-31.58524326 16.0824836 -31.00277608 10.92998145 -26 5.62890625 C-25.51221069 5.11055206 -25.02442139 4.59219788 -24.52185059 4.05813599 C-17.815961 -1.39461951 -8.15676832 -0.06948889 0 0 Z " fill="#F3C74B" transform="translate(41,111.37109375)"/>
<path d="M0 0 C3.82012968 1.51295324 7.48179767 3.36350912 11.15234375 5.20507812 C17.60851001 8.26705063 23.16351514 9.25272975 30.0625 7 C31.0215625 6.505 31.0215625 6.505 32 6 C35.19356665 10.90188999 38.37293798 15.81248234 41.53710938 20.73339844 C42.86421084 22.78960839 44.2042372 24.83673528 45.546875 26.8828125 C46.28205186 28.02552618 47.0164782 29.16872322 47.75 30.3125 C48.40484375 31.31925781 49.0596875 32.32601562 49.734375 33.36328125 C51 36 51 36 50.8984375 38.08984375 C48.96641637 42.19748868 45.85920967 45.51118658 43 49 C42.49597656 49.67546875 41.99195313 50.3509375 41.47265625 51.046875 C36.22443612 57.72399985 29.18895517 61.69260939 22 66 C22 62.83467782 22.4881352 61.72336163 23.9375 59 C27.24575798 52.73921071 28.07366349 46.84335495 26.0625 40 C22.3260339 31.18400626 12.88938724 26.49277713 4.91796875 22.0546875 C1.62575093 19.73647254 0.14824625 17.36752115 -2 14 C-4.08007269 12.29616615 -4.08007269 12.29616615 -6.25 11 C-9.91357346 8.40070486 -9.91357346 8.40070486 -10.6875 4.8125 C-10 2 -10 2 -8.9375 0.0625 C-5.93859898 -1.58205862 -3.18375425 -0.80116687 0 0 Z " fill="#F5CDB1" transform="translate(421,147)"/>
<path d="M0 0 C0.65226563 0.13277344 1.30453125 0.26554687 1.9765625 0.40234375 C2.85054687 0.57894531 3.72453125 0.75554687 4.625 0.9375 C5.48351562 1.11152344 6.34203125 1.28554688 7.2265625 1.46484375 C19.31738584 3.79786177 30.26754694 3.59156377 42.171875 0.65625 C45 0 45 0 48 0 C48.36590746 1.72672034 48.71722195 3.45653655 49.0625 5.1875 C49.35833984 6.63189453 49.35833984 6.63189453 49.66015625 8.10546875 C50.15832179 12.3484649 49.79737378 14.92976893 47.20922852 18.40356445 C44.68611879 21.06677352 42.13998325 23.70180651 39.5625 26.3125 C38.69689453 27.24384766 37.83128906 28.17519531 36.93945312 29.13476562 C29.58536438 36.60932344 29.58536438 36.60932344 24.0390625 37.234375 C17.59768288 36.53727247 13.49304058 31.91981244 9.21850586 27.41235352 C7.80741144 25.93216227 6.35386534 24.50652673 4.88867188 23.08007812 C-0.32398513 17.75611884 -0.32398513 17.75611884 -2 15 C-1.77880859 11.32226562 -1.77880859 11.32226562 -1 8 C-0.80776365 6.52144142 -0.61924031 5.04238538 -0.4375 3.5625 C-0.293125 2.386875 -0.14875 1.21125 0 0 Z " fill="#F8CFB3" transform="translate(232,393)"/>
<path d="M0 0 C6.26418531 1.48362284 10.91513505 5.24162156 16 9 C15.34772983 12.39589983 14.03737353 14.85626771 12.2265625 17.7890625 C11.65373535 18.72290771 11.0809082 19.65675293 10.49072266 20.61889648 C9.87503418 21.61091064 9.2593457 22.6029248 8.625 23.625 C7.68793213 25.14879272 7.68793213 25.14879272 6.73193359 26.70336914 C5.44959889 28.78834554 4.16524678 30.87208248 2.87890625 32.95458984 C0.11196514 37.4393642 -2.63090463 41.93872698 -5.375 46.4375 C-6.91605957 48.95870517 -8.45803018 51.47935138 -10 54 C-14.23646725 53.42019153 -17.14731197 51.96108826 -20.75 49.6875 C-21.71421875 49.09324219 -22.6784375 48.49898437 -23.671875 47.88671875 C-26.23836876 45.80682532 -26.65765362 45.18996227 -27 42 C-26.23413086 40.15087891 -26.23413086 40.15087891 -24.96484375 38.2265625 C-24.49151611 37.49421387 -24.01818848 36.76186523 -23.53051758 36.00732422 C-23.00482178 35.22115723 -22.47912598 34.43499023 -21.9375 33.625 C-20.83564651 31.93248107 -19.73409716 30.23976411 -18.6328125 28.546875 C-18.04532227 27.65291016 -17.45783203 26.75894531 -16.85253906 25.83789062 C-13.61897413 20.88441688 -10.47389831 15.87470654 -7.3125 10.875 C-6.12277869 8.99632774 -4.93150726 7.11863573 -3.73828125 5.2421875 C-3.23337158 4.4466748 -2.72846191 3.65116211 -2.20825195 2.83154297 C-1 1 -1 1 0 0 Z " fill="#F8637C" transform="translate(360,132)"/>
<path d="M0 0 C2.85775993 1.25852015 3.69279921 2.94861187 5.30419922 5.60400391 C5.91271729 6.59239258 6.52123535 7.58078125 7.14819336 8.59912109 C7.78619873 9.66420898 8.4242041 10.72929687 9.08154297 11.82666016 C9.73823975 12.90592773 10.39493652 13.98519531 11.0715332 15.09716797 C12.41215818 17.30065846 13.74882874 19.5065597 15.08154297 21.71484375 C16.85461585 24.61976986 18.67155054 27.48821853 20.51904297 30.34619141 C21.03974365 31.161604 21.56044434 31.9770166 22.09692383 32.81713867 C23.06836732 34.33652678 24.05058092 35.84909562 25.04467773 37.35375977 C28.12032712 42.24094162 28.12032712 42.24094162 27.66748047 45.13916016 C25.39685953 47.54967717 22.96000625 49.00628644 20.08154297 50.63916016 C18.49019531 51.55955078 18.49019531 51.55955078 16.86669922 52.49853516 C14.01904297 53.88916016 14.01904297 53.88916016 11.01904297 53.88916016 C9.3684082 51.75634766 9.3684082 51.75634766 7.57763672 48.76416016 C6.91562256 47.67184082 6.2536084 46.57952148 5.5715332 45.45410156 C4.86613513 44.26602595 4.1611458 43.07770757 3.45654297 41.88916016 C2.37983202 40.09567057 1.30012647 38.30400614 0.22035217 36.51235962 C-0.49722603 35.32078733 -1.21342353 34.12838248 -1.92823792 32.93515015 C-3.99175948 29.49699438 -6.1051645 26.10073152 -8.29345703 22.74072266 C-8.76581787 22.01240234 -9.23817871 21.28408203 -9.72485352 20.53369141 C-10.58236467 19.22035457 -11.44863648 17.91268212 -12.32495117 16.61181641 C-13.80992478 14.3144919 -14.94899519 12.51584049 -15.09033203 9.74462891 C-13.35361321 6.83990553 -10.97042356 5.42995603 -8.16845703 3.57666016 C-7.11013672 2.85865234 -6.05181641 2.14064453 -4.96142578 1.40087891 C-1.98095703 -0.11083984 -1.98095703 -0.11083984 0 0 Z " fill="#6ED2F5" transform="translate(473.98095703125,132.11083984375)"/>
<path d="M0 0 C4.79198648 2.15863316 7.7072448 4.37743361 9.90234375 9.31640625 C10.78882204 14.90306629 10.51268301 20.06662321 7.2890625 24.83984375 C4.03781153 28.30173915 0.34663492 30.0728171 -4.37109375 30.54296875 C-9.68000372 30.30741984 -12.82103637 28.54005904 -16.6875 24.984375 C-20.02708608 21.03422747 -20.53839158 17.61026047 -20.4140625 12.5625 C-19.74443944 7.809003 -16.94484528 5.06273944 -13.47265625 2.00390625 C-9.08352788 -1.11468496 -5.27643426 -1.71950837 0 0 Z " fill="#F6627B" transform="translate(282.09765625,107.68359375)"/>
<path d="M0 0 C4.73829769 1.66717882 7.2011938 3.85362045 10 8 C11.67374639 13.02123916 11.56044001 17.32232007 9.5 22.1875 C7.03277044 26.66152543 3.84291626 28.59115163 -1 30 C-5.25250091 30.76449455 -8.32895943 30.33552028 -12.25 28.375 C-16.06843074 25.07726436 -18.55713049 22.52741047 -19.453125 17.4140625 C-19.75893242 12.34043936 -19.52166285 8.91188864 -16.1875 4.9375 C-11.09571149 -0.20457778 -7.00227239 -0.69913484 0 0 Z " fill="#F1C54A" transform="translate(208,59)"/>
<path d="M0 0 C3.5677811 2.35149209 5.84221079 4.99692157 7.75 8.8125 C8.29035594 13.7377115 8.29435469 17.68191718 6.125 22.1875 C2.88226355 25.77157713 0.28524104 28.40785241 -4.6484375 29.1953125 C-8.9072367 29.3871503 -11.72171739 29.05707528 -15.625 27.25 C-19.80446347 23.36906963 -22.41182019 19.62919272 -22.75 13.8125 C-22.48759536 9.44473247 -21.09773511 6.13065743 -18.25 2.8125 C-12.69812512 -1.95227363 -6.84966997 -2.50276403 0 0 Z " fill="#6ED2F5" transform="translate(284.25,11.1875)"/>
<path d="M0 0 C1.9375 1 1.9375 1 3 3 C3.23595284 5.71882023 3.13477523 8.25957022 3 11 C4.8871875 10.87625 4.8871875 10.87625 6.8125 10.75 C10.70928484 10.76379393 10.70928484 10.76379393 13 12.625 C14.2766188 15.65696965 14.41616519 17.74003936 14 21 C13 22.875 13 22.875 11 24 C8.28121737 24.24131207 5.7407889 24.1347929 3 24 C3.061875 25.258125 3.12375 26.51625 3.1875 27.8125 C3.16521115 30.33113951 3.13502197 31.72995606 2 34 C-1.26417672 35.63208836 -4.43875614 35.65289471 -8 35 C-10 33.4375 -10 33.4375 -11 31 C-11.1875 27.25 -11.1875 27.25 -11 24 C-12.8871875 24.12375 -12.8871875 24.12375 -14.8125 24.25 C-18.69727609 24.2293363 -18.69727609 24.2293363 -21.0625 22.4375 C-22.40411569 18.9492992 -21.92678615 16.57474656 -21 13 C-17.3558226 10.5705484 -15.28758728 10.83820425 -11 11 C-10.96261719 10.37351562 -10.92523438 9.74703125 -10.88671875 9.1015625 C-10.82097656 8.28429687 -10.75523438 7.46703125 -10.6875 6.625 C-10.62949219 5.81289063 -10.57148437 5.00078125 -10.51171875 4.1640625 C-9.27398608 -1.07031843 -4.37302482 -0.39044864 0 0 Z " fill="#87D146" transform="translate(115,365)"/>
<path d="M0 0 C1.29151474 -0.00953201 2.58302948 -0.01906403 3.91368103 -0.02888489 C5.32990547 -0.02862347 6.74612992 -0.02768645 8.16235352 -0.02612305 C9.60962548 -0.03000862 11.05689631 -0.034343 12.50416565 -0.03910828 C15.53976129 -0.04657653 18.57524064 -0.046275 21.61083984 -0.04101562 C25.50279384 -0.03522161 29.39427184 -0.0521469 33.28614712 -0.0753603 C36.27585132 -0.09008614 39.2654406 -0.09097091 42.25517464 -0.08785057 C43.69011439 -0.08836442 45.12506047 -0.09361404 46.55996513 -0.10366249 C48.56598157 -0.11598521 50.57209393 -0.10730749 52.578125 -0.09765625 C53.72014877 -0.09828568 54.86217255 -0.0989151 56.0388031 -0.0995636 C58.85375977 0.2746582 58.85375977 0.2746582 60.76161194 1.60261536 C61.85375977 3.2746582 61.85375977 3.2746582 61.60375977 6.3996582 C60.85375977 9.2746582 60.85375977 9.2746582 59.85375977 10.2746582 C57.81450932 10.38457037 55.77142308 10.42378291 53.72924805 10.43579102 C52.41763702 10.44539856 51.106026 10.4550061 49.75466919 10.46490479 C48.31113864 10.46975235 46.86760608 10.47403128 45.42407227 10.4777832 C43.95295203 10.48353232 42.48183184 10.48929008 41.01071167 10.49505615 C37.92209523 10.50557571 34.83350489 10.51141199 31.74487305 10.51489258 C27.78454345 10.52037696 23.82455774 10.54439937 19.86433601 10.57286453 C16.82403554 10.59147732 13.78381807 10.59669579 10.74346542 10.59822845 C9.28339637 10.60125902 7.8233289 10.60930115 6.36331558 10.62241364 C4.32129952 10.63944258 2.27914232 10.63575365 0.23706055 10.63110352 C-1.50714676 10.63657196 -1.50714676 10.63657196 -3.28659058 10.64215088 C-6.14624023 10.2746582 -6.14624023 10.2746582 -8.05691528 8.91253662 C-9.14624023 7.2746582 -9.14624023 7.2746582 -8.95874023 4.7121582 C-7.28680672 -0.30364234 -4.8206589 0.01946207 0 0 Z " fill="#030708" transform="translate(65.146240234375,175.725341796875)"/>
<path d="M0 0 C1.29151474 -0.00953201 2.58302948 -0.01906403 3.91368103 -0.02888489 C5.32990547 -0.02862347 6.74612992 -0.02768645 8.16235352 -0.02612305 C9.60962548 -0.03000862 11.05689631 -0.034343 12.50416565 -0.03910828 C15.53976129 -0.04657653 18.57524064 -0.046275 21.61083984 -0.04101562 C25.50279384 -0.03522161 29.39427184 -0.0521469 33.28614712 -0.0753603 C36.27585132 -0.09008614 39.2654406 -0.09097091 42.25517464 -0.08785057 C43.69011439 -0.08836442 45.12506047 -0.09361404 46.55996513 -0.10366249 C48.56598157 -0.11598521 50.57209393 -0.10730749 52.578125 -0.09765625 C53.72014877 -0.09828568 54.86217255 -0.0989151 56.0388031 -0.0995636 C58.85375977 0.2746582 58.85375977 0.2746582 60.75770569 1.60261536 C61.85375977 3.2746582 61.85375977 3.2746582 61.66625977 6.3996582 C61.39813477 7.3484082 61.13000977 8.2971582 60.85375977 9.2746582 C58.08088652 10.66109483 55.81034659 10.41722671 52.70751953 10.43579102 C50.77024742 10.45020233 50.77024742 10.45020233 48.7938385 10.46490479 C47.37761613 10.46975201 45.96139171 10.47403102 44.54516602 10.4777832 C43.09789528 10.4835341 41.65062457 10.48929184 40.20335388 10.49505615 C37.1677922 10.50556546 34.13225701 10.51140878 31.09667969 10.51489258 C27.20475769 10.5203816 23.31318481 10.54441822 19.42137241 10.57286453 C16.43168612 10.59147568 13.44208423 10.59669565 10.45234489 10.59822845 C9.01739528 10.60125826 7.58244727 10.60929787 6.1475544 10.62241364 C4.1415713 10.6394427 2.13544452 10.63575363 0.12939453 10.63110352 C-1.01262924 10.63474915 -2.15465302 10.63839478 -3.33128357 10.64215088 C-6.14624023 10.2746582 -6.14624023 10.2746582 -8.05018616 8.91253662 C-9.14624023 7.2746582 -9.14624023 7.2746582 -8.95874023 4.7121582 C-7.28680672 -0.30364234 -4.8206589 0.01946207 0 0 Z " fill="#020506" transform="translate(65.146240234375,195.725341796875)"/>
<path d="M0 0 C1.27141846 -0.00953201 2.54283691 -0.01906403 3.8527832 -0.02888489 C5.2416995 -0.02862349 6.63061581 -0.02768656 8.01953125 -0.02612305 C9.44295375 -0.03000986 10.86637509 -0.0343445 12.28979492 -0.03910828 C15.27233644 -0.046569 18.25475958 -0.04628002 21.23730469 -0.04101562 C25.06085176 -0.03521651 28.88391513 -0.0521628 32.7073822 -0.0753603 C35.64647254 -0.0900848 38.58544597 -0.0909712 41.52456665 -0.08785057 C42.93438679 -0.08836428 44.3442134 -0.09361143 45.7539978 -0.10366249 C47.72398184 -0.1159853 49.69406356 -0.10730745 51.6640625 -0.09765625 C52.78530518 -0.09828568 53.90654785 -0.0989151 55.06176758 -0.0995636 C57.83203125 0.2746582 57.83203125 0.2746582 59.7331543 1.60261536 C60.83203125 3.2746582 60.83203125 3.2746582 60.58203125 6.3996582 C59.83203125 9.2746582 59.83203125 9.2746582 58.83203125 10.2746582 C56.7927808 10.38457037 54.74969457 10.42378291 52.70751953 10.43579102 C51.39590851 10.44539856 50.08429749 10.4550061 48.73294067 10.46490479 C47.28941012 10.46975235 45.84587757 10.47403128 44.40234375 10.4777832 C42.93122352 10.48353232 41.46010332 10.48929008 39.98898315 10.49505615 C36.90036671 10.50557571 33.81177638 10.51141199 30.72314453 10.51489258 C26.76281493 10.52037696 22.80282923 10.54439937 18.8426075 10.57286453 C15.80230702 10.59147732 12.76208955 10.59669579 9.72173691 10.59822845 C8.26166785 10.60125902 6.80160039 10.60930115 5.34158707 10.62241364 C3.299571 10.63944258 1.2574138 10.63575365 -0.78466797 10.63110352 C-2.52887527 10.63657196 -2.52887527 10.63657196 -4.30831909 10.64215088 C-7.16796875 10.2746582 -7.16796875 10.2746582 -9.07473755 8.91253662 C-10.16796875 7.2746582 -10.16796875 7.2746582 -10.04296875 4.7121582 C-8.25126458 -0.27901771 -4.65630199 0.0191336 0 0 Z " fill="#04090A" transform="translate(66.16796875,155.725341796875)"/>
<path d="M0 0 C0 13.86 0 27.72 0 42 C-8.39690127 40.95038734 -11.04980326 40.12975113 -16.546875 34.3828125 C-20.55761997 29.1327924 -20.73012495 23.80533427 -20.48828125 17.3515625 C-19.59563695 11.224452 -16.88520917 7.79094871 -12.5 3.625 C-8.00157448 0.70102341 -5.4717995 0 0 0 Z " fill="#F3CBB0" transform="translate(188,286)"/>
<path d="M0 0 C8.52788007 1.06598501 11.83633794 2.41529346 17.390625 8.53125 C21.04309994 13.77846753 20.68460566 19.8635956 20 26 C18.44199709 32.60353542 14.1205865 36.81796144 8.5 40.3125 C5 42 5 42 0 42 C0 28.14 0 14.28 0 0 Z " fill="#F4CCB0" transform="translate(324,286)"/>
<path d="M0 0 C3.13227391 1.56613695 4.89352459 2.55806574 7.3125 4.875 C7.84488281 5.36742187 8.37726563 5.85984375 8.92578125 6.3671875 C10 8 10 8 9.74707031 9.89013672 C8.89394756 12.29951151 7.87902402 13.54590644 6.12109375 15.390625 C5.2386499 16.32636353 5.2386499 16.32636353 4.33837891 17.28100586 C3.71108887 17.93077393 3.08379883 18.58054199 2.4375 19.25 C1.48883057 20.24882202 1.48883057 20.24882202 0.52099609 21.26782227 C-3.91141654 25.91862227 -8.39286108 30.52163204 -13 35 C-14.08839774 34.11032656 -15.17044608 33.21288426 -16.25 32.3125 C-16.85328125 31.81363281 -17.4565625 31.31476563 -18.078125 30.80078125 C-20 29 -20 29 -24 24 C-16.08 16.08 -8.16 8.16 0 0 Z " fill="#E9F0F8" transform="translate(294,410)"/>
<path d="M0 0 C3.86328627 1.5847358 6.28876923 4.05956887 9.203125 7.0078125 C9.6857782 7.49329559 10.1684314 7.97877869 10.66571045 8.47897339 C12.19858562 10.02299866 13.72434004 11.57384824 15.25 13.125 C16.29120361 14.17624009 17.33286541 15.22702657 18.375 16.27734375 C20.92199464 18.84633004 23.46265177 21.42148161 26 24 C22.6189962 28.13621084 19.33409466 31.81316569 15 35 C12.28740084 32.31677754 9.58072673 29.627651 6.875 26.9375 C6.11445313 26.18533203 5.35390625 25.43316406 4.5703125 24.65820312 C2.36008199 22.45749948 0.17252207 20.23791063 -2 18 C-2.95471191 17.01990967 -2.95471191 17.01990967 -3.92871094 16.02001953 C-5.6171875 14.19140625 -5.6171875 14.19140625 -8 11 C-7.56291963 7.35395345 -6.06985387 5.73877093 -3.4375 3.25 C-2.79683594 2.63640625 -2.15617188 2.0228125 -1.49609375 1.390625 C-1.00238281 0.93171875 -0.50867188 0.4728125 0 0 Z " fill="#E9F0F8" transform="translate(216,410)"/>
<path d="M0 0 C0.66 0 1.32 0 2 0 C2.23074219 0.51949219 2.46148437 1.03898438 2.69921875 1.57421875 C6.64717484 10.01629087 11.42782903 13.65704008 20 17 C20 17.66 20 18.32 20 19 C19.33613281 19.29132812 18.67226563 19.58265625 17.98828125 19.8828125 C9.31086639 23.91115984 5.40367489 28.04296082 2 37 C1.34 37 0.68 37 0 37 C-0.29132813 36.33613281 -0.58265625 35.67226563 -0.8828125 34.98828125 C-4.91115984 26.31086639 -9.04296082 22.40367489 -18 19 C-18 18.34 -18 17.68 -18 17 C-17.40832031 16.76925781 -16.81664062 16.53851562 -16.20703125 16.30078125 C-7.67714496 12.78028985 -3.70389735 8.33894207 0 0 Z " fill="#F5C84C" transform="translate(369,0)"/>
<path d="M0 0 C3.3 0 6.6 0 10 0 C10.50737777 4.33250237 11.00457148 8.66611627 11.5 13 C11.64308594 14.22074219 11.78617187 15.44148438 11.93359375 16.69921875 C12.06894531 17.89160156 12.20429688 19.08398438 12.34375 20.3125 C12.46943359 21.40175781 12.59511719 22.49101562 12.72460938 23.61328125 C13.03232054 27.39747393 13 31.20331718 13 35 C7.72 35 2.44 35 -3 35 C-2.54561845 23.22195201 -1.81862084 11.65329858 0 0 Z " fill="#F7637B" transform="translate(251,467)"/>
<path d="M0 0 C3.13123175 1.11829705 5.12297282 2.77358461 7.625 4.9375 C12.04028169 7.14514085 17.82076138 6.36644988 22.625 5.9375 C26.28012847 4.65211315 28.87920683 2.68329317 31.625 -0.0625 C34.92214793 0.26721479 36.2476839 0.5601839 38.625 2.9375 C38.75 5.6875 38.75 5.6875 37.625 8.9375 C31.71841059 14.88617913 25.20195496 17.21830368 16.875 17.3125 C8.79037853 17.18444369 2.88015706 15.47652251 -3.5 10.5 C-5.375 7.9375 -5.375 7.9375 -5.875 5.3125 C-5.375 2.9375 -5.375 2.9375 -4.1875 1.0625 C-2.375 -0.0625 -2.375 -0.0625 0 0 Z " fill="#070605" transform="translate(240.375,340.0625)"/>
<path d="M0 0 C3.45398119 0.78099575 5.28375199 2.21103523 7.5234375 4.90625 C8.453125 6.5546875 8.453125 6.5546875 8.515625 9.1171875 C7.9896875 10.32375 7.9896875 10.32375 7.453125 11.5546875 C6.90011719 12.85792969 6.90011719 12.85792969 6.3359375 14.1875 C4.453125 16.5546875 4.453125 16.5546875 1.09765625 17.04296875 C-0.79919922 16.95595703 -0.79919922 16.95595703 -2.734375 16.8671875 C-4.00667969 16.82207031 -5.27898437 16.77695312 -6.58984375 16.73046875 C-7.56566406 16.67246094 -8.54148438 16.61445313 -9.546875 16.5546875 C-13.52537967 10.28552862 -13.52537967 10.28552862 -13.609375 7.4296875 C-10.18067988 1.37904906 -6.77870817 -0.34502407 0 0 Z " fill="#F9637C" transform="translate(258.546875,439.4453125)"/>
<path d="M0 0 C3 1 3 1 4.6875 4.3125 C7.02343781 8.76452265 10.45500204 10.2239207 15 12 C14 14 14 14 11.1875 15.3125 C7.71385004 17.15149116 6.24659417 18.82378065 4 22 C3.00270658 23.33535898 2.00316209 24.6690441 1 26 C0.64808594 25.38511719 0.29617188 24.77023437 -0.06640625 24.13671875 C-3.45164707 18.59482321 -5.73353153 15.87994054 -12 14 C-12 13.34 -12 12.68 -12 12 C-10.35546875 10.8515625 -10.35546875 10.8515625 -8.1875 9.625 C-3.8257467 7.00486551 -1.63097275 4.89291826 0 0 Z " fill="#FC657D" transform="translate(410,286)"/>
<path d="M0 0 C4.0553591 1.35178637 5.39946313 2.33855434 7.375 6.125 C7.375 10.04516134 6.92726285 12.29660572 4.75 15.5625 C1.37262021 17.78446039 -0.66023594 17.75101538 -4.625 17.125 C-8.30851539 14.53870196 -9.44227257 13.05524874 -10.3125 8.625 C-9.625 5.125 -9.625 5.125 -7.0625 2.125 C-3.625 0.125 -3.625 0.125 0 0 Z " fill="#090706" transform="translate(286.625,300.875)"/>
<path d="M0 0 C4.0553591 1.35178637 5.39946313 2.33855434 7.375 6.125 C7.375 10.04516134 6.92726285 12.29660572 4.75 15.5625 C1.43705459 17.74206935 -0.73504934 17.61124383 -4.625 17.125 C-7 16.1875 -7 16.1875 -8.625 14.125 C-9.64655306 11.04252303 -10.04288436 8.35513312 -9.625 5.125 C-7.3220379 1.28095799 -4.44138893 0.15315134 0 0 Z " fill="#090806" transform="translate(229.625,300.875)"/>
<path d="M0 0 C2 1.0625 2 1.0625 3 3 C3.50030235 6.93094707 3.5996142 9.1005787 1.375 12.4375 C-1.71685231 14.47161336 -3.36367425 14.60605429 -7 14 C-9.375 12.4375 -9.375 12.4375 -11 10 C-11.42213381 6.56262469 -11.60856522 4.17909511 -10 1.0625 C-6.75978228 -0.65886567 -3.58042244 -0.52960415 0 0 Z " fill="#F5C74B" transform="translate(85,305)"/>
<path d="M0 0 C2 1.0625 2 1.0625 3 3 C3.50030235 6.93094707 3.5996142 9.1005787 1.375 12.4375 C-1.71685231 14.47161336 -3.36367425 14.60605429 -7 14 C-9.375 12.4375 -9.375 12.4375 -11 10 C-11.42213381 6.56262469 -11.60856522 4.17909511 -10 1.0625 C-6.75978228 -0.65886567 -3.58042244 -0.52960415 0 0 Z " fill="#70D6F9" transform="translate(423,72)"/>
</svg>
