<?xml version="1.0" encoding="UTF-8"?>
<svg version="1.1" xmlns="http://www.w3.org/2000/svg" width="866" height="650">
<path d="M0 0 C285.78 0 571.56 0 866 0 C866 214.5 866 429 866 650 C580.22 650 294.44 650 0 650 C0 435.5 0 221 0 0 Z " fill="#FEFEFE" transform="translate(0,0)"/>
<path d="M0 0 C1.8308538 1.15019841 3.52474465 2.35857036 5.22265625 3.6953125 C8.24280681 5.91230214 11.57767028 7.55428279 14.87890625 9.3125 C19.07423923 11.5808152 23.19735013 13.96915864 27.31665039 16.37231445 C29.86470246 17.84498188 32.19770852 19.06590284 35 20 C35 20.66 35 21.32 35 22 C35.86238281 22.25910156 36.72476562 22.51820312 37.61328125 22.78515625 C41.09069863 24.03253434 44.00197233 25.57119207 47.1875 27.4375 C47.77772949 27.78095459 48.36795898 28.12440918 48.97607422 28.47827148 C50.27713565 29.23563814 51.57688238 29.99526662 52.87548828 30.75683594 C55.15066586 32.08816256 57.43198964 33.40844467 59.71484375 34.7265625 C66.59055434 38.69675303 73.45872095 42.6795491 80.3125 46.6875 C84.84221053 49.33449134 89.39501591 51.93861285 93.95532227 54.5324707 C98.86793677 57.33526868 103.74966525 60.18950284 108.63012695 63.04785156 C116.89542804 67.88841134 125.16938659 72.69642548 133.5625 77.3125 C139.53343812 80.59721034 145.42081528 83.98509931 151.23730469 87.53637695 C154.72334197 89.65873662 158.23826272 91.70653362 161.8046875 93.69140625 C175.03908013 101.08101783 187.8477252 108.33999951 192.54020119 123.77713394 C194.76463255 133.09467246 194.29608705 142.6750953 194.29052734 152.19042969 C194.29651834 154.23813114 194.3033252 156.28583034 194.31088257 158.33352661 C194.32849139 163.87503221 194.33323578 169.41647598 194.33451414 174.95800686 C194.33593918 178.42596256 194.34021545 181.89390272 194.34550858 185.36185455 C194.3639918 197.47692354 194.37218131 209.59194863 194.37060547 221.70703125 C194.36940449 232.97349186 194.39050288 244.23976077 194.4220928 255.5061729 C194.44830249 265.20163898 194.4589708 274.89704263 194.45769465 284.59254384 C194.45718641 290.3731939 194.46279334 296.15367347 194.48405075 301.93428802 C194.50351233 307.37467293 194.50350359 312.81472606 194.48901749 318.25512314 C194.48693811 320.24237685 194.49157778 322.22965177 194.5037384 324.21686935 C194.58736371 338.83899971 194.11005848 353.35847009 184 365 C179.00119793 369.94635743 173.63404411 373.67785754 167.5 377.0625 C165.81463696 378.01479863 164.1297644 378.96796567 162.4453125 379.921875 C161.11741699 380.66920898 161.11741699 380.66920898 159.76269531 381.43164062 C155.940919 383.60123156 152.15425789 385.82885508 148.36547852 388.05541992 C137.93765336 394.18237376 127.42793821 400.14666363 116.86254883 406.03271484 C110.38563123 409.64686433 103.95891344 413.3294306 97.58007812 417.11352539 C91.26944579 420.85463548 84.91896451 424.524881 78.5625 428.1875 C77.46180176 428.82187988 76.36110352 429.45625977 75.22705078 430.10986328 C70.67369807 432.73332688 66.11954268 435.35539553 61.56542969 437.97753906 C58.18909213 439.92190036 54.81315583 441.86695541 51.4375 443.8125 C49.80373413 444.75391846 49.80373413 444.75391846 48.13696289 445.71435547 C42.07124628 449.21389626 36.02520684 452.74375108 30 456.3125 C22.11364555 460.97728874 14.12429059 465.44662048 6.09082031 469.85253906 C4.09710845 470.94670601 2.1070501 472.04729125 0.1171875 473.1484375 C-1.61144531 474.09589844 -1.61144531 474.09589844 -3.375 475.0625 C-4.37273437 475.61035156 -5.37046875 476.15820312 -6.3984375 476.72265625 C-14.58095785 480.74020002 -25.96912058 480.18843868 -34.6875 478.12890625 C-41.07745667 475.78643415 -46.67835156 472.53833683 -52.31640625 468.7578125 C-55.87696951 466.42556582 -59.59339511 464.45608 -63.34375 462.44921875 C-65.79548644 461.11158019 -68.17997515 459.7064407 -70.5625 458.25 C-75.01936755 455.5437956 -79.55813556 453.01355331 -84.125 450.5 C-92.58315147 445.83868685 -100.92261476 440.98636237 -109.25439453 436.10351562 C-114.80907703 432.85156263 -120.37707268 429.63242394 -126 426.5 C-132.57244175 422.83713861 -139.07024061 419.05296261 -145.5625 415.25 C-153.50455217 410.59879816 -161.47726206 406.01059069 -169.5 401.5 C-179.51589054 395.86579256 -189.45913266 390.11460453 -199.3671875 384.29296875 C-202.89630759 382.22064356 -206.43919628 380.17927775 -210.0078125 378.17578125 C-220.29786464 372.36359556 -228.57027363 366.85945275 -234 356 C-234.3406461 355.36528715 -234.68129219 354.7305743 -235.03226089 354.07662773 C-239.69893244 344.06262758 -238.28270157 331.38483201 -238.25878906 320.61669922 C-238.26150262 318.5607389 -238.2650656 316.50477955 -238.26940918 314.44882202 C-238.27849088 308.89117067 -238.27500667 303.33359395 -238.26865101 297.77594137 C-238.2635705 291.94788513 -238.26828803 286.11983507 -238.27142334 280.29177856 C-238.27505643 270.50879779 -238.27028052 260.72584727 -238.26074219 250.94287109 C-238.24985283 239.64396743 -238.25338938 228.34513593 -238.264395 217.04623401 C-238.27347932 207.32959752 -238.27474772 197.61298272 -238.26951766 187.89634335 C-238.26640505 182.09971568 -238.26596926 176.3031219 -238.27259064 170.50649643 C-238.27838033 165.05797837 -238.27433746 159.60955314 -238.26280212 154.16104507 C-238.26016449 152.16524662 -238.26090526 150.16944032 -238.26532745 148.17364502 C-238.27081965 145.44255307 -238.26390449 142.71175573 -238.25396729 139.98068237 C-238.25842873 139.19730212 -238.26289017 138.41392187 -238.26748681 137.60680282 C-238.21491194 130.12052081 -236.99589229 123.0623169 -233.375 116.4375 C-232.92898437 115.59058594 -232.48296875 114.74367188 -232.0234375 113.87109375 C-226.71342812 106.33662098 -220.11672683 101.40209342 -212.1875 96.875 C-211.30239746 96.35711914 -210.41729492 95.83923828 -209.50537109 95.30566406 C-204.24471823 92.24186293 -198.94346854 89.25634842 -193.57421875 86.38671875 C-182.41342313 80.37445404 -171.51582806 73.84005139 -160.5390625 67.50146484 C-154.84685562 64.21528472 -149.15028534 60.93776374 -143.4375 57.6875 C-137.69181487 54.41338276 -131.99386435 51.06198449 -126.29882812 47.70092773 C-122.02979531 45.18456152 -117.74532967 42.69965284 -113.4375 40.25 C-106.92978851 36.54850398 -100.46387457 32.7774601 -94 29 C-86.00192329 24.32761353 -77.99228637 19.68083556 -69.93798828 15.10595703 C-67.56789055 13.75340693 -65.20397448 12.39029608 -62.83984375 11.02734375 C-61.45671997 10.23191162 -61.45671997 10.23191162 -60.0456543 9.42041016 C-58.23990764 8.38184169 -56.43529903 7.34129088 -54.63208008 6.29833984 C-36.61844885 -4.04387115 -19.77188205 -10.47593168 0 0 Z " fill="#5E95CE" transform="translate(455,88)"/>
<path d="M0 0 C0.65365399 1.53836708 1.29753603 3.08088766 1.9375 4.625 C2.29714844 5.48351562 2.65679688 6.34203125 3.02734375 7.2265625 C5.03024363 12.93764248 5.14857039 18.60285297 5.14717102 24.59973145 C5.15084771 25.45252607 5.1545244 26.30532069 5.1583125 27.18395758 C5.16930441 30.03475394 5.17318555 32.88551379 5.17700195 35.73632812 C5.18327008 37.78343826 5.18991719 39.83054726 5.19691467 41.87765503 C5.21791891 48.59551202 5.22831485 55.31336913 5.23828125 62.03125 C5.2423304 64.34828198 5.24644737 66.66531384 5.25063133 68.98234558 C5.26967637 79.87144199 5.28390788 90.76053166 5.2922433 101.64964151 C5.30200826 114.19743351 5.32831148 126.74504875 5.36874419 139.29277849 C5.39896071 149.00514131 5.4137175 158.71745361 5.41702431 168.4298625 C5.41936878 174.2239972 5.42825048 180.01794292 5.45348549 185.81202698 C5.47686761 191.26875946 5.48095875 196.7251799 5.47072411 202.18194962 C5.47023107 204.17565579 5.47648229 206.16937786 5.49028015 208.16303635 C5.58588957 222.80674587 5.12703271 237.33892461 -5 249 C-9.99880207 253.94635743 -15.36595589 257.67785754 -21.5 261.0625 C-23.18536304 262.01479863 -24.8702356 262.96796567 -26.5546875 263.921875 C-27.88258301 264.66920898 -27.88258301 264.66920898 -29.23730469 265.43164062 C-33.059081 267.60123156 -36.84574211 269.82885508 -40.63452148 272.05541992 C-51.06234664 278.18237376 -61.57206179 284.14666363 -72.13745117 290.03271484 C-78.61436877 293.64686433 -85.04108656 297.3294306 -91.41992188 301.11352539 C-97.73055421 304.85463548 -104.08103549 308.524881 -110.4375 312.1875 C-111.53819824 312.82187988 -112.63889648 313.45625977 -113.77294922 314.10986328 C-118.32630193 316.73332688 -122.88045732 319.35539553 -127.43457031 321.97753906 C-130.81090787 323.92190036 -134.18684417 325.86695541 -137.5625 327.8125 C-139.19626587 328.75391846 -139.19626587 328.75391846 -140.86303711 329.71435547 C-146.92875372 333.21389626 -152.97479316 336.74375108 -159 340.3125 C-166.88635445 344.97728874 -174.87570941 349.44662048 -182.90917969 353.85253906 C-184.90289155 354.94670601 -186.8929499 356.04729125 -188.8828125 357.1484375 C-190.61144531 358.09589844 -190.61144531 358.09589844 -192.375 359.0625 C-193.37273437 359.61035156 -194.37046875 360.15820312 -195.3984375 360.72265625 C-203.58095785 364.74020002 -214.96912058 364.18843868 -223.6875 362.12890625 C-230.07745667 359.78643415 -235.67835156 356.53833683 -241.31640625 352.7578125 C-244.87696951 350.42556582 -248.59339511 348.45608 -252.34375 346.44921875 C-254.79548644 345.11158019 -257.17997515 343.7064407 -259.5625 342.25 C-264.01936755 339.5437956 -268.55813556 337.01355331 -273.125 334.5 C-281.58315147 329.83868685 -289.92261476 324.98636237 -298.25439453 320.10351562 C-303.80907703 316.85156263 -309.37707268 313.63242394 -315 310.5 C-321.57244175 306.83713861 -328.07024061 303.05296261 -334.5625 299.25 C-342.50455217 294.59879816 -350.47726206 290.01059069 -358.5 285.5 C-368.51589054 279.86579256 -378.45913266 274.11460453 -388.3671875 268.29296875 C-391.89630759 266.22064356 -395.43919628 264.17927775 -399.0078125 262.17578125 C-407.75493835 257.23243782 -415.30733158 252.53900263 -421 244 C-421 243.01 -421 242.02 -421 241 C-419.865625 240.38125 -418.73125 239.7625 -417.5625 239.125 C-408.12806484 233.88530579 -398.85211353 228.34532164 -389.625 222.75 C-386.39866077 220.80335162 -383.1317272 218.9710379 -379.8125 217.1875 C-375.2922669 214.75156109 -370.88997669 212.16015692 -366.5 209.5 C-361.27986461 206.33997835 -356.02398475 203.29500383 -350.640625 200.41796875 C-348.74399754 199.39951347 -346.8599033 198.357588 -344.984375 197.30078125 C-343.99953125 196.74777344 -343.0146875 196.19476563 -342 195.625 C-341.113125 195.12226563 -340.22625 194.61953125 -339.3125 194.1015625 C-337 193 -337 193 -334 193 C-332.4887892 195.07867349 -331.17808879 197.10838754 -329.875 199.3125 C-310.57327714 230.53076709 -280.00242098 250.54150161 -245 260 C-244.01652588 260.27118652 -244.01652588 260.27118652 -243.01318359 260.54785156 C-223.4187962 265.67716557 -198.51046898 265.11182434 -179 260 C-177.94087402 259.72663818 -177.94087402 259.72663818 -176.86035156 259.44775391 C-139.37382641 249.61185505 -108.38646404 227.12800406 -88 194 C-87.67 193.01 -87.34 192.02 -87 191 C-87.76570313 190.79890625 -88.53140625 190.5978125 -89.3203125 190.390625 C-94.5256329 188.42343385 -99.10365509 185.59297758 -103.875 182.75 C-106.01818751 181.48690847 -108.16141797 180.22388984 -110.3046875 178.9609375 C-111.40522461 178.30963867 -112.50576172 177.65833984 -113.63964844 176.98730469 C-119.08395613 173.76755282 -124.54091318 170.56960825 -130 167.375 C-130.98339355 166.79588867 -131.96678711 166.21677734 -132.97998047 165.62011719 C-138.23620437 162.54122582 -143.51532989 159.65178625 -149 157 C-149.56847656 157.78503906 -150.13695312 158.57007813 -150.72265625 159.37890625 C-162.81581347 175.83286808 -177.32350702 187.70336726 -198.01171875 191.5234375 C-217.38229858 194.13665242 -235.86988628 191.59787715 -252 180 C-255.52993184 177.1770718 -258.80211701 174.19230205 -262 171 C-262.62519531 170.38640625 -263.25039063 169.7728125 -263.89453125 169.140625 C-277.18745734 155.09753378 -282.78210127 137.039321 -282.52392578 118.03564453 C-281.73066275 97.18050357 -272.39710164 80.65732381 -257.6484375 66.3515625 C-242.53970625 52.93643534 -224.32569429 49.13779011 -204.69873047 49.81201172 C-195.15240391 50.47699014 -185.37602431 53.39626605 -177 58 C-176.154375 58.45761719 -175.30875 58.91523438 -174.4375 59.38671875 C-164.67599003 65.11328639 -155.84884239 73.25192934 -150 83 C-150 83.66 -150 84.32 -150 85 C-138.2378853 78.44377594 -126.56698647 71.73353752 -114.91015625 64.9921875 C-110.84263343 62.63995485 -106.77225079 60.29299051 -102.69604492 57.95584106 C-100.94519401 56.95196369 -99.19493431 55.94706277 -97.44482422 54.94189453 C-95.2613758 53.68831082 -93.07687944 52.43654979 -90.89111328 51.18701172 C-84.97800083 47.78789702 -79.17945622 44.26135269 -73.45825195 40.54760742 C-70.18888081 38.48935499 -66.80989992 36.67955125 -63.40625 34.85546875 C-51.69292049 28.47492802 -40.15431004 21.78626654 -28.8359375 14.73046875 C-24.3185124 11.97396831 -19.66742432 9.49057347 -15 7 C-13.84371094 6.36449219 -12.68742187 5.72898438 -11.49609375 5.07421875 C-10.30991802 4.42443866 -9.12372045 3.77469845 -7.9375 3.125 C-6.85339844 2.52945313 -5.76929688 1.93390625 -4.65234375 1.3203125 C-2 0 -2 0 0 0 Z " fill="#0161A0" transform="translate(644,204)"/>
<path d="M0 0 C4.14758073 3.51736064 8.08062176 7.23223094 12 11 C12.75539063 11.66902344 13.51078125 12.33804688 14.2890625 13.02734375 C22.17309356 20.26631772 28.67472193 29.73181327 34 39 C34 39.66 34 40.32 34 41 C32.9790625 41.55945313 31.958125 42.11890625 30.90625 42.6953125 C21.82295612 47.69611963 12.82193348 52.82143469 3.875 58.0625 C-3.12566395 62.16085498 -10.12725833 66.25488339 -17.1875 70.25 C-17.8160791 70.60843994 -18.4446582 70.96687988 -19.09228516 71.33618164 C-22.31900481 73.15149069 -25.52570202 74.71758492 -29 76 C-29.40089844 75.38253906 -29.80179688 74.76507813 -30.21484375 74.12890625 C-41.4640702 57.36985461 -56.73866373 47.11359224 -76.4140625 42.765625 C-95.57039567 39.15439165 -114.19067395 42.76418065 -130.4296875 53.625 C-143.17260871 63.14912104 -151.62804282 74.04614756 -157 89 C-157.48339844 90.31677734 -157.48339844 90.31677734 -157.9765625 91.66015625 C-163.50660067 109.61985966 -160.60020705 129.43476508 -152.1875 145.9375 C-148.9686051 151.37660702 -145.15041709 156.24499459 -141 161 C-140.46890625 161.62648438 -139.9378125 162.25296875 -139.390625 162.8984375 C-129.90644653 173.27469216 -113.99991498 181.20549783 -99.90185547 182.13891602 C-78.40485524 183.02107765 -58.32956001 179.13189921 -42 164.1875 C-36.56184989 159.00309706 -32.10400254 153.29859 -28 147 C-20.91187851 150.36586775 -14.12183573 154.03459137 -7.42260742 158.11230469 C-1.23882498 161.87372577 4.99941983 165.53828401 11.25 169.1875 C12.24354492 169.76951172 13.23708984 170.35152344 14.26074219 170.95117188 C20.77776098 174.7536674 27.35634828 178.42346285 34 182 C29.70311763 202.0422707 5.30752064 221.23443924 -11 232 C-42.63894245 252.11157582 -82.93160376 261.21435255 -120.0078125 253.1015625 C-121.34164883 252.74582747 -122.67220905 252.37767443 -124 252 C-124.81436523 251.76893555 -125.62873047 251.53787109 -126.46777344 251.29980469 C-138.62503107 247.73732042 -149.91501488 243.11368942 -161 237 C-161.94230469 236.48566406 -162.88460937 235.97132813 -163.85546875 235.44140625 C-173.94091083 229.6715952 -182.52262987 221.87484631 -191 214 C-191.66644531 213.39929688 -192.33289063 212.79859375 -193.01953125 212.1796875 C-204.11828263 201.73646318 -211.99924701 188.3975739 -219 175 C-219.3417627 174.35740234 -219.68352539 173.71480469 -220.03564453 173.05273438 C-235.90569178 142.470379 -237.67282565 102.48028344 -227.69213867 69.88256836 C-216.03699325 34.1731178 -191.40104033 2.76613451 -158 -15 C-147.39986829 -20.3719782 -136.52029715 -24.59409631 -124.99560547 -27.49609375 C-123.15804023 -27.96009359 -121.330327 -28.46265799 -119.50390625 -28.96875 C-78.52902338 -38.66269819 -32.21715785 -26.47558571 0 0 Z " fill="#FDFEFE" transform="translate(523,213)"/>
<path d="M0 0 C0.33 0 0.66 0 1 0 C1.1169386 27.28641016 1.20503987 54.57278262 1.25906086 81.85939312 C1.2848134 94.5298012 1.3199077 107.20005335 1.37719727 119.87036133 C1.42712232 130.91720732 1.45931244 141.96394034 1.47044247 153.01089603 C1.47694575 158.85712951 1.49216912 164.70303988 1.52865028 170.54916954 C1.56275339 176.05919778 1.57302403 181.5687718 1.56553841 187.07889557 C1.56690656 189.09399451 1.57675308 191.10910967 1.59602737 193.1241169 C1.7282717 207.67102227 0.85074985 220.45456338 -9.92578125 231.48046875 C-16.98278812 237.26416561 -25.07184859 241.53826977 -33 246 C-34.7092985 246.97748084 -36.41764724 247.95662453 -38.125 248.9375 C-41.5889475 250.9252281 -45.05839233 252.90288567 -48.53125 254.875 C-54.2996994 258.15934836 -60.02430653 261.5168575 -65.75 264.875 C-73.94872154 269.67809098 -82.19786281 274.37807839 -90.5 279 C-100.70077535 284.68029206 -110.8027338 290.51339458 -120.875 296.41796875 C-127.37704536 300.22802415 -133.90609172 303.99056856 -140.4375 307.75 C-147.64750622 311.90039777 -154.84273057 316.07181574 -162 320.3125 C-169.88627411 324.97741698 -177.87571517 329.44662364 -185.90917969 333.85253906 C-187.90289155 334.94670601 -189.8929499 336.04729125 -191.8828125 337.1484375 C-193.61144531 338.09589844 -193.61144531 338.09589844 -195.375 339.0625 C-196.37273437 339.61035156 -197.37046875 340.15820312 -198.3984375 340.72265625 C-206.58095785 344.74020002 -217.96912058 344.18843868 -226.6875 342.12890625 C-233.07745667 339.78643415 -238.67835156 336.53833683 -244.31640625 332.7578125 C-247.87696951 330.42556582 -251.59339511 328.45608 -255.34375 326.44921875 C-257.79548644 325.11158019 -260.17997515 323.7064407 -262.5625 322.25 C-267.01936755 319.5437956 -271.55813556 317.01355331 -276.125 314.5 C-284.58315147 309.83868685 -292.92261476 304.98636237 -301.25439453 300.10351562 C-306.80907703 296.85156263 -312.37707268 293.63242394 -318 290.5 C-324.57244175 286.83713861 -331.07024061 283.05296261 -337.5625 279.25 C-345.50455217 274.59879816 -353.47726206 270.01059069 -361.5 265.5 C-371.51589054 259.86579256 -381.45913266 254.11460453 -391.3671875 248.29296875 C-394.89630759 246.22064356 -398.43919628 244.17927775 -402.0078125 242.17578125 C-410.75493835 237.23243782 -418.30733158 232.53900263 -424 224 C-424 223.01 -424 222.02 -424 221 C-422.865625 220.38125 -421.73125 219.7625 -420.5625 219.125 C-411.12806484 213.88530579 -401.85211353 208.34532164 -392.625 202.75 C-389.39866077 200.80335162 -386.1317272 198.9710379 -382.8125 197.1875 C-378.2922669 194.75156109 -373.88997669 192.16015692 -369.5 189.5 C-364.27986461 186.33997835 -359.02398475 183.29500383 -353.640625 180.41796875 C-351.74399754 179.39951347 -349.8599033 178.357588 -347.984375 177.30078125 C-346.99953125 176.74777344 -346.0146875 176.19476563 -345 175.625 C-344.113125 175.12226563 -343.22625 174.61953125 -342.3125 174.1015625 C-340 173 -340 173 -337 173 C-335.4887892 175.07867349 -334.17808879 177.10838754 -332.875 179.3125 C-313.57327714 210.53076709 -283.00242098 230.54150161 -248 240 C-247.01652588 240.27118652 -247.01652588 240.27118652 -246.01318359 240.54785156 C-226.4187962 245.67716557 -201.51046898 245.11182434 -182 240 C-181.29391602 239.81775879 -180.58783203 239.63551758 -179.86035156 239.44775391 C-144.39643654 230.14255744 -115.6561535 210.03803589 -95.07226562 179.71240234 C-94.58693359 179.00293457 -94.10160156 178.2934668 -93.6015625 177.5625 C-93.17182129 176.92441406 -92.74208008 176.28632813 -92.29931641 175.62890625 C-91 174 -91 174 -88 172 C-87.67 172.66 -87.34 173.32 -87 174 C-85.11736119 174.90343684 -85.11736119 174.90343684 -82.9375 175.625 C-82.20402344 175.88539063 -81.47054688 176.14578125 -80.71484375 176.4140625 C-80.14894531 176.60742188 -79.58304688 176.80078125 -79 177 C-79 177.66 -79 178.32 -79 179 C-77.35 179.33 -75.7 179.66 -74 180 C-74 180.66 -74 181.32 -74 182 C-73.484375 182.0825 -72.96875 182.165 -72.4375 182.25 C-68.95544268 183.32140225 -66.12799115 185.13523605 -63 187 C-63 187.66 -63 188.32 -63 189 C-62.195625 189.1546875 -62.195625 189.1546875 -61.375 189.3125 C-58.34815748 190.18869126 -55.80224049 191.54698641 -53 193 C-51.20940683 193.89797711 -49.41767833 194.79369286 -47.625 195.6875 C-46.08333333 196.45833333 -44.54166667 197.22916667 -43 198 C-43 198.66 -43 199.32 -43 200 C-42.319375 200.268125 -41.63875 200.53625 -40.9375 200.8125 C-39.968125 201.204375 -38.99875 201.59625 -38 202 C-37.38769531 202.24105469 -36.77539062 202.48210937 -36.14453125 202.73046875 C-31.11287193 204.77425614 -31.11287193 204.77425614 -30 207 C-28.9275 207.268125 -27.855 207.53625 -26.75 207.8125 C-22.48067668 209.16445238 -21.11473672 210.88526328 -18 214 C-15.37149223 215.250264 -12.78106541 216.10440266 -10 217 C-10 217.66 -10 218.32 -10 219 C-8.35 219.33 -6.7 219.66 -5 220 C-5 219.34 -5 218.68 -5 218 C-4.34 218 -3.68 218 -3 218 C-1.42395914 211.91355313 -0.70609463 206.26073117 -0.7215271 199.98326111 C-0.7128385 198.69153271 -0.7128385 198.69153271 -0.70397437 197.37370878 C-0.68708754 194.5133418 -0.68410768 191.65313726 -0.68115234 188.79272461 C-0.67184635 186.73230601 -0.66167668 184.67189115 -0.65071106 182.61148071 C-0.62347275 177.03575314 -0.60827993 171.46005075 -0.59528303 165.88427424 C-0.57962549 160.05063291 -0.55284363 154.2170428 -0.5272522 148.38343811 C-0.48051086 137.34460013 -0.44374425 126.30575247 -0.41057932 115.26686627 C-0.37232512 102.6961274 -0.32292359 90.12544002 -0.27259517 77.5547446 C-0.16934439 51.70320126 -0.0800617 25.85162482 0 0 Z " fill="#064F85" transform="translate(647,224)"/>
<path d="M0 0 C1.2684375 0.68642578 1.2684375 0.68642578 2.5625 1.38671875 C13.20382233 7.62942631 23.01882833 16.53172104 28 28 C27.33097656 28.31710937 26.66195312 28.63421875 25.97265625 28.9609375 C17.4540868 33.10016185 9.35805702 37.81484241 1.23193359 42.66796875 C-2.46359137 44.87348004 -6.16793035 47.06396005 -9.875 49.25 C-10.59131592 49.67249023 -11.30763184 50.09498047 -12.0456543 50.53027344 C-16.67618856 53.25063839 -21.35812544 55.84991351 -26.08984375 58.390625 C-30.53353189 60.84807401 -34.88529389 63.45833831 -39.25219727 66.04907227 C-44.43010062 69.10830328 -49.66424015 72.0463425 -54.9375 74.9375 C-61.20905043 78.38091816 -67.35030304 81.99046742 -73.4375 85.75 C-91.65505226 97 -91.65505226 97 -95 97 C-95.495 97.99 -95.495 97.99 -96 99 C-105.33119628 80.26112223 -108.64002813 60.64919488 -102.26171875 40.328125 C-95.68179007 22.97178061 -83.77635996 7.55510893 -67 -1 C-45.50694959 -10.40187558 -21.10868635 -11.60201695 0 0 Z " fill="#5E95CE" transform="translate(467,262)"/>
<path d="M0 0 C2.29314707 1.17317292 4.48059642 2.37221337 6.6875 3.6875 C7.60462769 4.22225952 7.60462769 4.22225952 8.5402832 4.76782227 C13.06360711 7.41387502 17.55153007 10.12001939 22.01171875 12.87109375 C24.09680904 14.13972195 24.09680904 14.13972195 27 15 C27 15.66 27 16.32 27 17 C27.99 17.0928125 27.99 17.0928125 29 17.1875 C32.56073634 18.15186609 35.08804315 19.80600553 38.1328125 21.84375 C40.10083909 23.16172777 40.10083909 23.16172777 43 24 C43 24.66 43 25.32 43 26 C44.051875 26.0928125 44.051875 26.0928125 45.125 26.1875 C49.02719119 27.29029316 50.94348424 29.34216021 54 32 C55.485 32.495 55.485 32.495 57 33 C55.78166311 42.30216681 46.9057696 49.69869729 40.16796875 55.609375 C23.89457002 67.88967096 4.0757294 72.12494346 -16 70 C-35.0214757 66.86459192 -50.1962864 55.98415865 -62 41 C-65 36.64516129 -65 36.64516129 -65 33 C-63.19921875 31.60546875 -63.19921875 31.60546875 -60.6875 30.1875 C-59.759375 29.65769531 -58.83125 29.12789063 -57.875 28.58203125 C-54.3978377 26.6686471 -50.91474301 24.76738253 -47.421875 22.8828125 C-42.89583109 20.392455 -38.41893279 17.81952704 -33.9375 15.25 C-32.11334875 14.20951706 -30.28912958 13.1691532 -28.46484375 12.12890625 C-24.90240676 10.09566731 -21.35500873 8.03924363 -17.81640625 5.96484375 C-16.2111723 5.03865543 -14.60571438 4.11285516 -13 3.1875 C-12.26515381 2.74889648 -11.53030762 2.31029297 -10.77319336 1.85839844 C-4.37316344 -1.79448063 -4.37316344 -1.79448063 0 0 Z " fill="#074F85" transform="translate(437,326)"/>
<path d="M0 0 C5.61 0 11.22 0 17 0 C17 5.28 17 10.56 17 16 C22.28 16 27.56 16 33 16 C33 21.61 33 27.22 33 33 C27.72 33 22.44 33 17 33 C17 38.61 17 44.22 17 50 C11.39 50 5.78 50 0 50 C0 44.39 0 38.78 0 33 C-5.28 33 -10.56 33 -16 33 C-16 27.39 -16 21.78 -16 16 C-10.72 16 -5.44 16 0 16 C0 10.72 0 5.44 0 0 Z " fill="#F5FCFC" transform="translate(604,300)"/>
<path d="M0 0 C5.61 0 11.22 0 17 0 C17 5.28 17 10.56 17 16 C22.28 16 27.56 16 33 16 C33 21.61 33 27.22 33 33 C27.72 33 22.44 33 17 33 C17 38.61 17 44.22 17 50 C11.39 50 5.78 50 0 50 C0 44.39 0 38.78 0 33 C-5.28 33 -10.56 33 -16 33 C-16 27.39 -16 21.78 -16 16 C-10.72 16 -5.44 16 0 16 C0 10.72 0 5.44 0 0 Z " fill="#FBFEFE" transform="translate(544,300)"/>
<path d="M0 0 C1.31223496 3.93670488 0.24296256 6.12488144 -1 10 C-1.66 10 -2.32 10 -3 10 C-2.89129624 31.24992384 -2.77831923 52.49982147 -2.66066074 73.74969769 C-2.60608563 83.62308037 -2.55278012 93.49646653 -2.50268555 103.36987305 C-2.26562866 155.88726782 -2.26562866 155.88726782 -1.64414787 208.40110207 C-1.60836924 210.66159243 -1.57562675 212.92213321 -1.54614449 215.18271446 C-1.5054361 218.19475323 -1.4521437 221.20626635 -1.39428711 224.21801758 C-1.38452032 225.08110094 -1.37475353 225.9441843 -1.36469078 226.83342171 C-1.27464588 230.71706163 -1.20232294 232.6965156 1 236 C1 236.99 1 237.98 1 239 C1.66 239.33 2.32 239.66 3 240 C2.01 240.99 1.02 241.98 0 243 C-5.95437215 230.82060242 -5.2881741 217.84918862 -5.25878906 204.61669922 C-5.26150262 202.5607389 -5.2650656 200.50477955 -5.26940918 198.44882202 C-5.27849088 192.89117067 -5.27500667 187.33359395 -5.26865101 181.77594137 C-5.2635705 175.94788513 -5.26828803 170.11983507 -5.27142334 164.29177856 C-5.27505643 154.50879779 -5.27028052 144.72584727 -5.26074219 134.94287109 C-5.24985283 123.64396743 -5.25338938 112.34513593 -5.264395 101.04623401 C-5.27347932 91.32959752 -5.27474772 81.61298272 -5.26951766 71.89634335 C-5.26640505 66.09971568 -5.26596926 60.3031219 -5.27259064 54.50649643 C-5.27838033 49.05797837 -5.27433746 43.60955314 -5.26280212 38.16104507 C-5.26016449 36.16524662 -5.26090526 34.16944032 -5.26532745 32.17364502 C-5.27081965 29.44255307 -5.26390449 26.71175573 -5.25396729 23.98068237 C-5.25842873 23.19730212 -5.26289017 22.41392187 -5.26748681 21.60680282 C-5.21267633 13.80218553 -3.86669619 6.8545978 0 0 Z " fill="#86A9C9" transform="translate(222,204)"/>
<path d="M0 0 C0.66 0.33 1.32 0.66 2 1 C3.18947601 5.86171785 3.14336549 10.70231553 3.13371277 15.67375183 C3.13597833 16.53430768 3.13824388 17.39486353 3.14057809 18.28149682 C3.14689593 21.15797451 3.14609017 24.03440482 3.14526367 26.91088867 C3.14825641 28.97584596 3.15165921 31.04080268 3.15544128 33.10575867 C3.16427054 38.70873489 3.16661886 44.31169583 3.16725707 49.91467834 C3.16820676 54.58960072 3.17188548 59.26451954 3.17542917 63.93944055 C3.18356849 74.9628027 3.18601375 85.98615668 3.18530273 97.00952148 C3.18470104 108.39307285 3.19527238 119.77657697 3.2110464 131.16011637 C3.22410134 140.92835851 3.22948754 150.69658515 3.22884732 160.46483594 C3.22859187 166.3015934 3.2314694 172.13830881 3.24202538 177.9750576 C3.25167277 183.45877635 3.25180875 188.94241253 3.24450874 194.42613411 C3.24345893 196.44218948 3.24584913 198.45824991 3.2518692 200.47429657 C3.25953579 203.21869598 3.25498006 205.96280634 3.24723816 208.7071991 C3.25238172 209.511467 3.25752529 210.3157349 3.26282471 211.14437455 C3.23887297 214.96612616 3.17218669 216.74171996 1 220 C0.01 221.98 0.01 221.98 -1 224 C-0.67 150.08 -0.34 76.16 0 0 Z " fill="#4081A9" transform="translate(646,213)"/>
<path d="M0 0 C0.33 0 0.66 0 1 0 C1.1169386 27.28641016 1.20503987 54.57278262 1.25906086 81.85939312 C1.2848134 94.5298012 1.3199077 107.20005335 1.37719727 119.87036133 C1.42712232 130.91720732 1.45931244 141.96394034 1.47044247 153.01089603 C1.47694575 158.85712951 1.49216912 164.70303988 1.52865028 170.54916954 C1.56275339 176.05919778 1.57302403 181.5687718 1.56553841 187.07889557 C1.56690656 189.09399451 1.57675308 191.10910967 1.59602737 193.1241169 C1.71699258 206.43031556 1.39241749 219.42711769 -8.4375 229.625 C-9.15808594 230.40101563 -9.87867188 231.17703125 -10.62109375 231.9765625 C-13.24459531 234.20804659 -15.87058051 235.58613278 -19 237 C-18.67 236.01 -18.34 235.02 -18 234 C-17.34 234 -16.68 234 -16 234 C-16 233.34 -16 232.68 -16 232 C-15.34 232 -14.68 232 -14 232 C-13.95875 231.38125 -13.9175 230.7625 -13.875 230.125 C-13.58625 229.42375 -13.2975 228.7225 -13 228 C-9.9375 226.75 -9.9375 226.75 -7 226 C-6.67 224.35 -6.34 222.7 -6 221 C-5.34 221 -4.68 221 -4 221 C-0.37064816 210.22819688 -0.55765659 199.66799858 -0.56762695 188.45214844 C-0.55859761 186.39128537 -0.54826754 184.33042765 -0.53674316 182.26957703 C-0.50928479 176.70640107 -0.49990384 171.14332734 -0.49388909 165.58009243 C-0.48447628 159.754465 -0.45827059 153.92891304 -0.43388367 148.10333252 C-0.39029482 137.08583978 -0.3617011 126.06836175 -0.33856028 115.05080914 C-0.31146774 102.50175378 -0.26755875 89.95277463 -0.22227156 77.40377378 C-0.12953435 51.60255724 -0.05780366 25.8013168 0 0 Z " fill="#195B86" transform="translate(647,224)"/>
<path d="M0 0 C0.66 0 1.32 0 2 0 C4.67590815 10.4246818 4.24203156 20.94421633 4.16699219 31.61450195 C4.15983076 33.69503001 4.1535422 35.77556122 4.14805603 37.85609436 C4.13050557 43.47970444 4.10007524 49.10317562 4.06672192 54.72671151 C4.03341269 60.62020435 4.01021563 66.51373873 3.9854126 72.40727234 C3.94212355 82.29703384 3.89026271 92.18672332 3.83349609 102.07641602 C3.76800275 113.50824198 3.71701717 124.94006498 3.67355418 136.37199432 C3.6312931 147.38020538 3.57793766 158.38833704 3.51981354 169.39647484 C3.49534252 174.07774243 3.47492069 178.75900185 3.45778656 183.4403019 C3.43718509 188.94876872 3.40692657 194.45709973 3.36920357 199.96547508 C3.35693406 201.98670565 3.34801987 204.00795977 3.34270287 206.02922058 C3.33489813 208.78767687 3.31495337 211.54578821 3.29193115 214.30415344 C3.29250165 215.10405412 3.29307214 215.90395479 3.29365993 216.72809488 C3.24167945 221.17175273 2.81889526 224.86013392 1 229 C0.34 229.33 -0.32 229.66 -1 230 C-0.51251534 228.15160522 -0.51251534 228.15160522 -0.0151825 226.26586914 C1.71256761 217.53775317 1.26981268 208.6036799 1.24291992 199.74609375 C1.24399404 197.69190409 1.24593464 195.63771473 1.24867249 193.58352661 C1.25350329 188.02574318 1.24588699 182.46804054 1.23571944 176.91026688 C1.22690834 171.08267566 1.22869699 165.25508675 1.2290802 159.42749023 C1.22814484 149.64272721 1.21947838 139.85799528 1.20581055 130.07324219 C1.19008644 118.77496401 1.18481254 107.47671985 1.1855461 96.17843151 C1.18622264 84.1294836 1.17927546 72.08054873 1.1700995 60.03160477 C1.16797254 56.56866659 1.16725891 53.10573052 1.16686058 49.64279175 C1.16585275 44.19266398 1.15972027 38.74256454 1.14969444 33.29244614 C1.1467848 31.29706877 1.14554095 29.30168815 1.14612198 27.30630875 C1.14661644 24.57339816 1.14092032 21.84056566 1.13371277 19.10766602 C1.13526137 18.32651649 1.13680997 17.54536695 1.1384055 16.74054623 C1.11406179 11.11405813 0.64060171 5.58844092 0 0 Z " fill="#E2FDFE" transform="translate(647,210)"/>
<path d="M0 0 C5.61 0 11.22 0 17 0 C18.7213061 5.16391829 18.05353552 10.59291236 18 16 C22.95 16 27.9 16 33 16 C34.13945516 18.27891033 34.12894214 19.56782104 34.1328125 22.09765625 C34.13474609 23.29938477 34.13474609 23.29938477 34.13671875 24.52539062 C34.13285156 25.36263672 34.12898437 26.19988281 34.125 27.0625 C34.13080078 28.32416992 34.13080078 28.32416992 34.13671875 29.61132812 C34.12662682 35.87337318 34.12662682 35.87337318 33 37 C30.65012738 37.23527773 28.29443961 37.41386417 25.9375 37.5625 C24.64714844 37.64628906 23.35679687 37.73007812 22.02734375 37.81640625 C21.02832031 37.87699219 20.02929688 37.93757813 19 38 C18.95101562 38.90363281 18.90203125 39.80726563 18.8515625 40.73828125 C18.77679687 41.91777344 18.70203125 43.09726562 18.625 44.3125 C18.55539062 45.48425781 18.48578125 46.65601563 18.4140625 47.86328125 C18 51 18 51 16 54 C13.40573202 54.27668225 11.08736354 54.37295242 8.5 54.3125 C7.81035156 54.31572266 7.12070312 54.31894531 6.41015625 54.32226562 C1.26712592 54.26712592 1.26712592 54.26712592 -1 52 C4.61 52 10.22 52 16 52 C16 46.39 16 40.78 16 35 C21.28 35 26.56 35 32 35 C32 29.39 32 23.78 32 18 C26.72 18 21.44 18 16 18 C16 12.72 16 7.44 16 2 C10.39 2 4.78 2 -1 2 C-0.67 1.34 -0.34 0.68 0 0 Z " fill="#19618C" transform="translate(545,298)"/>
<path d="M0 0 C1.27157959 -0.00467285 2.54315918 -0.0093457 3.85327148 -0.01416016 C5.04251221 -0.01206543 6.23175293 -0.0099707 7.45703125 -0.0078125 C9.07508667 -0.00612061 9.07508667 -0.00612061 10.72583008 -0.00439453 C13.1875 0.125 13.1875 0.125 14.1875 1.125 C16.95633432 1.5949535 19.72250695 2.02553402 22.5 2.4375 C30.0784933 3.61716402 37.01495286 5.35442787 44.1875 8.125 C43.8575 8.785 43.5275 9.445 43.1875 10.125 C42.22714844 9.83753906 41.26679688 9.55007812 40.27734375 9.25390625 C35.81135861 7.97935429 31.29446944 7.01182126 26.75 6.0625 C25.94240234 5.88912109 25.13480469 5.71574219 24.30273438 5.53710938 C14.05247033 3.38133265 4.13833274 2.88381549 -6.3125 2.875 C-7.38880173 2.87398788 -7.38880173 2.87398788 -8.48684692 2.87295532 C-18.9075037 2.8885405 -28.69497209 3.31144941 -38.8125 6.125 C-39.49231934 6.30192383 -40.17213867 6.47884766 -40.87255859 6.66113281 C-49.94140446 9.02372528 -58.51077448 12.04487297 -67.0546875 15.890625 C-69.8125 17.125 -69.8125 17.125 -72.8125 18.125 C-72.8125 17.135 -72.8125 16.145 -72.8125 15.125 C-71.0222939 14.45442113 -69.23028511 13.7886531 -67.4375 13.125 C-66.43976563 12.75375 -65.44203125 12.3825 -64.4140625 12 C-61.8125 11.125 -61.8125 11.125 -59.8125 11.125 C-59.8125 10.465 -59.8125 9.805 -59.8125 9.125 C-37.44355854 2.13655481 -37.44355854 2.13655481 -28.8125 1.125 C-27.43384766 0.96064453 -27.43384766 0.96064453 -26.02734375 0.79296875 C-17.3676508 -0.01183543 -8.69059137 0.02292888 0 0 Z " fill="#6F97BD" transform="translate(438.8125,179.875)"/>
<path d="M0 0 C5.61 0 11.22 0 17 0 C17 5.28 17 10.56 17 16 C22.28 16 27.56 16 33 16 C33 16.33 33 16.66 33 17 C27.39 17 21.78 17 16 17 C16 11.72 16 6.44 16 1 C11.05 1 6.1 1 1 1 C1 6.61 1 12.22 1 18 C-1.76692708 18.22786458 -4.53385417 18.45572917 -7.30078125 18.68359375 C-10.09375599 18.91812559 -10.09375599 18.91812559 -13 20 C-13.33 23.63 -13.66 27.26 -14 31 C-13.00097656 30.98839844 -12.00195312 30.97679687 -10.97265625 30.96484375 C-9.68230469 30.95582031 -8.39195312 30.94679688 -7.0625 30.9375 C-5.77472656 30.92589844 -4.48695313 30.91429687 -3.16015625 30.90234375 C0 31 0 31 1 32 C1.07325168 34.86267567 1.09238205 37.700719 1.0625 40.5625 C1.05798828 41.36880859 1.05347656 42.17511719 1.04882812 43.00585938 C1.03700518 45.00393756 1.01906914 47.00197783 1 49 C5.95 49 10.9 49 16 49 C16 43.72 16 38.44 16 33 C16.33 33 16.66 33 17 33 C17 38.61 17 44.22 17 50 C11.39 50 5.78 50 0 50 C0 44.39 0 38.78 0 33 C-5.28 33 -10.56 33 -16 33 C-16 27.39 -16 21.78 -16 16 C-10.72 16 -5.44 16 0 16 C0 10.72 0 5.44 0 0 Z " fill="#B8DDEC" transform="translate(544,300)"/>
<path d="M0 0 C0 3.86695678 -1.41909971 6.5088452 -3 10 C-3.66 10 -4.32 10 -5 10 C-5.1546875 11.5778125 -5.1546875 11.5778125 -5.3125 13.1875 C-6.00389452 17.02159688 -6.98983757 18.75281454 -9 22 C-13.78805943 34.12824487 -13.46192482 45.77407843 -12.125 58.5625 C-12.04660889 59.34850586 -11.96821777 60.13451172 -11.88745117 60.94433594 C-11.46787409 64.64691258 -11.09959396 66.85060906 -9 70 C-9 71.32 -9 72.64 -9 74 C-9.66 74 -10.32 74 -11 74 C-18.07992033 54.93478598 -18.58248136 35.62414817 -10.609375 16.69921875 C-7.72580348 10.60577682 -4.30189128 5.18667743 0 0 Z " fill="#7199BF" transform="translate(378,279)"/>
<path d="M0 0 C0.80566406 0.00322266 1.61132812 0.00644531 2.44140625 0.00976562 C3.70404297 0.02233398 3.70404297 0.02233398 4.9921875 0.03515625 C6.26642578 0.04192383 6.26642578 0.04192383 7.56640625 0.04882812 C9.66669659 0.06062751 11.7669508 0.07856319 13.8671875 0.09765625 C14.3621875 8.01765625 14.3621875 8.01765625 14.8671875 16.09765625 C21.7971875 16.59265625 21.7971875 16.59265625 28.8671875 17.09765625 C28.8671875 17.42765625 28.8671875 17.75765625 28.8671875 18.09765625 C23.5871875 18.09765625 18.3071875 18.09765625 12.8671875 18.09765625 C12.8671875 12.81765625 12.8671875 7.53765625 12.8671875 2.09765625 C7.2571875 2.09765625 1.6471875 2.09765625 -4.1328125 2.09765625 C-4.1328125 7.37765625 -4.1328125 12.65765625 -4.1328125 18.09765625 C-9.4128125 18.42765625 -14.6928125 18.75765625 -20.1328125 19.09765625 C-20.4628125 24.37765625 -20.7928125 29.65765625 -21.1328125 35.09765625 C-21.7928125 34.76765625 -22.4528125 34.43765625 -23.1328125 34.09765625 C-22.99227378 31.47227341 -22.84562303 28.84748198 -22.6953125 26.22265625 C-22.65599609 25.47628906 -22.61667969 24.72992188 -22.57617188 23.9609375 C-22.24609375 18.32421875 -22.24609375 18.32421875 -21.1328125 16.09765625 C-16.1828125 16.09765625 -11.2328125 16.09765625 -6.1328125 16.09765625 C-6.1328125 11.14765625 -6.1328125 6.19765625 -6.1328125 1.09765625 C-3.8362755 -0.05061225 -2.54968083 -0.0179555 0 0 Z " fill="#145D8B" transform="translate(608.1328125,297.90234375)"/>
<path d="M0 0 C0.763125 0.309375 1.52625 0.61875 2.3125 0.9375 C4.18789677 1.67893593 6.08684652 2.36228217 8 3 C8 3.66 8 4.32 8 5 C8.86238281 5.25910156 9.72476562 5.51820312 10.61328125 5.78515625 C14.09069863 7.03253434 17.00197233 8.57119207 20.1875 10.4375 C20.77772949 10.78095459 21.36795898 11.12440918 21.97607422 11.47827148 C23.27713565 12.23563814 24.57688238 12.99526662 25.87548828 13.75683594 C28.15066586 15.08816256 30.43198964 16.40844467 32.71484375 17.7265625 C39.69574357 21.75757036 46.66840259 25.80219616 53.625 29.875 C58.37869074 32.65356572 63.17135732 35.35400136 68 38 C66.21630859 38.61035156 66.21630859 38.61035156 64 39 C61.40369654 37.67547498 59.05867713 36.32614129 56.625 34.75 C55.32681898 33.93023231 54.02735483 33.11249277 52.7265625 32.296875 C52.10297852 31.90435547 51.47939453 31.51183594 50.83691406 31.10742188 C48.30068272 29.57840202 45.67170351 28.2738153 43 27 C43 26.34 43 25.68 43 25 C41.68 25 40.36 25 39 25 C39 24.34 39 23.68 39 23 C38.236875 22.79375 37.47375 22.5875 36.6875 22.375 C30.0873941 19.91394356 24.08207679 16.21278018 18 12.6875 C15.08487406 10.9230212 15.08487406 10.9230212 12 10 C12 9.34 12 8.68 12 8 C11.38511719 7.81824219 10.77023437 7.63648437 10.13671875 7.44921875 C9.32847656 7.19785156 8.52023437 6.94648437 7.6875 6.6875 C6.88699219 6.44386719 6.08648437 6.20023437 5.26171875 5.94921875 C2.87242107 4.94645651 1.60410493 4.01940718 0 2 C0 1.34 0 0.68 0 0 Z " fill="#7298BE" transform="translate(482,105)"/>
<path d="M0 0 C2.0625 0.4375 2.0625 0.4375 4 1 C1.35808104 2.52418401 -1.28384186 4.04836118 -3.92578125 5.57250977 C-6.24876287 6.91272941 -8.57168918 8.25304442 -10.89453125 9.59350586 C-16.39588274 12.76804018 -21.89762129 15.94188764 -27.4022522 19.11073303 C-29.14804826 20.11578067 -30.89363451 21.12119178 -32.63916016 22.12670898 C-34.82331798 23.38474962 -37.00786668 24.64211197 -39.19287109 25.89868164 C-45.5021051 29.53397339 -51.77046185 33.22971675 -58 37 C-58.66 36.34 -59.32 35.68 -60 35 C-53.25 31 -53.25 31 -51 31 C-51 30.34 -51 29.68 -51 29 C-50.01 29 -49.02 29 -48 29 C-48 28.34 -48 27.68 -48 27 C-46.68 27 -45.36 27 -44 27 C-44 26.34 -44 25.68 -44 25 C-42.71086513 24.32845067 -41.41859796 23.66291141 -40.125 23 C-39.40570313 22.62875 -38.68640625 22.2575 -37.9453125 21.875 C-36 21 -36 21 -34 21 C-34 20.34 -34 19.68 -34 19 C-28.66666667 16.33333333 -23.33333333 13.66666667 -18 11 C-18 10.34 -18 9.68 -18 9 C-15.36 8.34 -12.72 7.68 -10 7 C-10 6.34 -10 5.68 -10 5 C-9.36191406 4.72285156 -8.72382812 4.44570313 -8.06640625 4.16015625 C-7.24011719 3.79792969 -6.41382813 3.43570312 -5.5625 3.0625 C-4.73878906 2.70285156 -3.91507813 2.34320313 -3.06640625 1.97265625 C-1.05589883 1.16877677 -1.05589883 1.16877677 0 0 Z " fill="#1F5378" transform="translate(542,508)"/>
<path d="M0 0 C1.38268489 4.14805468 0.14127918 7.44690586 -0.875 11.5625 C-3.5340083 22.39108208 -4.21750708 32.85968414 -4.25 44 C-4.25394775 45.17957275 -4.25789551 46.35914551 -4.26196289 47.57446289 C-4.20526039 56.15992323 -3.32191017 64.2340899 -1.55859375 72.62109375 C-1.06221086 75.62368958 -0.92335728 77.21213707 -2 80 C-3.79210776 76.88739179 -4.31478453 74.38065683 -4.5625 70.8125 C-4.54989247 67.59996202 -4.54989247 67.59996202 -6 65 C-8.93876333 45.0817152 -6.62433118 24.66392451 -3 5 C-2.34 5 -1.68 5 -1 5 C-0.67 3.35 -0.34 1.7 0 0 Z " fill="#759BBF" transform="translate(295,281)"/>
<path d="M0 0 C0 0.66 0 1.32 0 2 C-0.66 2 -1.32 2 -2 2 C-2.33 2.99 -2.66 3.98 -3 5 C-4.70703125 5.80859375 -4.70703125 5.80859375 -6.8125 6.4375 C-9.70166228 7.40739639 -10.91656551 7.91656551 -13.125 10.125 C-15 12 -15 12 -18.125 12.5 C-19.07375 12.665 -20.0225 12.83 -21 13 C-22.43637698 14.95163118 -22.43637698 14.95163118 -23 17 C-24.65 17 -26.3 17 -28 17 C-28.33 17.99 -28.66 18.98 -29 20 C-31.31104818 21.05047644 -33.64583651 22.05007438 -36 23 C-36.66 23.66 -37.32 24.32 -38 25 C-40.625 25.125 -40.625 25.125 -43 25 C-43 25.66 -43 26.32 -43 27 C-44.32 26.67 -45.64 26.34 -47 26 C-39.35633657 21.35809913 -31.71357425 16.76933595 -23.83203125 12.5390625 C-17.21067819 8.94069959 -10.60575802 5.24728616 -4.2109375 1.26171875 C-2 0 -2 0 0 0 Z " fill="#739BC1" transform="translate(285,162)"/>
<path d="M0 0 C3.9492568 0.55105909 7.34920174 1.38935371 11 3 C11 3.66 11 4.32 11 5 C15.29 5 19.58 5 24 5 C24 5.66 24 6.32 24 7 C35.34340667 5.83645149 35.34340667 5.83645149 46 2 C46.99 2 47.98 2 49 2 C49 1.34 49 0.68 49 0 C50.32 0.33 51.64 0.66 53 1 C50.9195946 2.15143825 48.83598003 3.29624112 46.75 4.4375 C46.16347656 4.76298828 45.57695312 5.08847656 44.97265625 5.42382812 C36.02855321 10.2978618 23.91952551 10.89235612 14.1015625 8.0234375 C8.66707608 5.9963865 4.42982899 3.77624766 0 0 Z " fill="#1E537A" transform="translate(406,558)"/>
<path d="M0 0 C0.33 0 0.66 0 1 0 C1.01030746 1.20554535 1.02061493 2.4110907 1.03123474 3.65316772 C1.12919062 15.04039688 1.23194457 26.42757409 1.33933926 37.81471825 C1.39439292 43.66829003 1.44778381 49.52186695 1.49731445 55.37548828 C1.54521825 61.02949752 1.59756852 66.68345004 1.65294075 72.3373909 C1.67324704 74.48941247 1.69197854 76.64144952 1.70907402 78.79349899 C1.73337975 81.81860669 1.7633956 84.84360981 1.79467773 87.86865234 C1.8004332 88.74907196 1.80618866 89.62949158 1.81211853 90.53659058 C1.8806304 96.40408271 2.32675678 102.17144571 3 108 C2.34 108 1.68 108 1 108 C0.20042761 105.17270458 -0.13409102 102.63954908 -0.16494751 99.70481873 C-0.17618149 98.85382599 -0.18741547 98.00283325 -0.19898987 97.12605286 C-0.20631638 96.2007225 -0.21364288 95.27539215 -0.22119141 94.32202148 C-0.2326973 93.34114563 -0.24420319 92.36026978 -0.25605774 91.34967041 C-0.29274593 88.10684331 -0.32239072 84.86399656 -0.3515625 81.62109375 C-0.37467777 79.36954981 -0.3980681 77.11800868 -0.42172241 74.86647034 C-0.4701684 70.14806557 -0.51510229 65.42964346 -0.55761719 60.71118164 C-0.61248427 54.65585065 -0.67631208 48.600653 -0.74279213 42.54543972 C-0.79280388 37.89674689 -0.83795407 33.24801659 -0.88163376 28.59926033 C-0.90323118 26.36606372 -0.92638327 24.1328816 -0.9510994 21.89971733 C-0.98489391 18.78269524 -1.01212518 15.66568368 -1.03759766 12.54858398 C-1.04897263 11.6212294 -1.0603476 10.69387482 -1.07206726 9.73841858 C-1.07766159 8.89024567 -1.08325592 8.04207275 -1.08901978 7.16819763 C-1.09601709 6.43134955 -1.10301441 5.69450148 -1.11022377 4.93532467 C-1 3 -1 3 0 0 Z " fill="#EBFCFE" transform="translate(216,331)"/>
<path d="M0 0 C5.28 0 10.56 0 16 0 C16 5.28 16 10.56 16 16 C10.39 16 4.78 16 -1 16 C-1 21.28 -1 26.56 -1 32 C-5.95 32 -10.9 32 -16 32 C-16 26.72 -16 21.44 -16 16 C-15.67 16 -15.34 16 -15 16 C-15 20.95 -15 25.9 -15 31 C-8.565 30.505 -8.565 30.505 -2 30 C-2 25.05 -2 20.1 -2 15 C5.14437201 12.95875085 7.98911784 13.03960518 15 14 C14.67 10.04 14.34 6.08 14 2 C7.07 1.505 7.07 1.505 0 1 C0 0.67 0 0.34 0 0 Z " fill="#E4FEFE" transform="translate(561,317)"/>
<path d="M0 0 C1.32 0.66 2.64 1.32 4 2 C-10 10 -24 18 -38 26 C-38.33 25.34 -38.66 24.68 -39 24 C-38.34 24 -37.68 24 -37 24 C-37 23.01 -37 22.02 -37 21 C-36.113125 20.649375 -35.22625 20.29875 -34.3125 19.9375 C-30.48434742 18.29573559 -26.80233598 16.38877034 -23.125 14.4375 C-21.42730469 13.53837891 -21.42730469 13.53837891 -19.6953125 12.62109375 C-16.9150694 11.27678607 -16.9150694 11.27678607 -16 9 C-12.9375 8.375 -12.9375 8.375 -10 8 C-9.67 7.01 -9.34 6.02 -9 5 C-7.1875 4.12109375 -7.1875 4.12109375 -5 3.4375 C-2.85458962 2.79318716 -2.85458962 2.79318716 -1 2 C-0.67 1.34 -0.34 0.68 0 0 Z " fill="#1E5379" transform="translate(610,468)"/>
<path d="M0 0 C0.66 0 1.32 0 2 0 C2.02683987 2.97922593 2.04676037 5.95821295 2.0625 8.9375 C2.07087891 9.78763672 2.07925781 10.63777344 2.08789062 11.51367188 C2.09272461 12.72700195 2.09272461 12.72700195 2.09765625 13.96484375 C2.10551147 15.08814087 2.10551147 15.08814087 2.11352539 16.23413086 C2 18 2 18 1 19 C-2.36109285 19.32526705 -5.7233399 19.5135946 -9.09375 19.71875 C-11.89050132 19.6785989 -11.89050132 19.6785989 -13 21 C-13.28400331 24.10149646 -13.4487471 27.20292646 -13.62109375 30.3125 C-13.74613281 31.199375 -13.87117187 32.08625 -14 33 C-14.99 33.495 -14.99 33.495 -16 34 C-16 28.39 -16 22.78 -16 17 C-10.72 17 -5.44 17 0 17 C0 11.39 0 5.78 0 0 Z " fill="#27688E" transform="translate(637,316)"/>
<path d="M0 0 C5.33617489 1.98396246 10.07004329 4.31340513 14.53125 7.85546875 C17.5013367 10.04395369 20.83885249 11.48349427 24.1640625 13.05859375 C22.6015625 13.80078125 22.6015625 13.80078125 20.1640625 14.05859375 C17.69858837 12.85493067 15.4768852 11.63031757 13.1640625 10.18359375 C7.9847113 6.86066073 7.9847113 6.86066073 2.1640625 5.05859375 C2.1640625 4.39859375 2.1640625 3.73859375 2.1640625 3.05859375 C1.48859375 2.99800781 0.813125 2.93742187 0.1171875 2.875 C-0.77484375 2.79121094 -1.666875 2.70742187 -2.5859375 2.62109375 C-3.46765625 2.53988281 -4.349375 2.45867187 -5.2578125 2.375 C-7.8359375 2.05859375 -7.8359375 2.05859375 -9.9296875 1.53125 C-15.70767831 0.09859244 -22.03373551 1.22970775 -27.8359375 2.05859375 C-19.23216244 -2.24329378 -9.37123866 -2.29986611 0 0 Z " fill="#7298BD" transform="translate(445.8359375,83.94140625)"/>
<path d="M0 0 C5.28 0 10.56 0 16 0 C16 5.61 16 11.22 16 17 C10.72 17 5.44 17 0 17 C0 16.34 0 15.68 0 15 C6.435 14.505 6.435 14.505 13 14 C13 10.04 13 6.08 13 2 C8.71 2 4.42 2 0 2 C0 1.34 0 0.68 0 0 Z " fill="#CEEDF4" transform="translate(621,316)"/>
<path d="M0 0 C-3.6948926 1.36719679 -5.7375255 0.59139689 -9.3125 -0.875 C-17.98050928 -4.41144886 -26.68583226 -4.26656307 -35.9375 -4.5625 C-37.19369141 -4.60568359 -38.44988281 -4.64886719 -39.74414062 -4.69335938 C-42.82932968 -4.79893619 -45.91459263 -4.90104551 -49 -5 C-49 -5.33 -49 -5.66 -49 -6 C-32.78810129 -10.12849595 -14.94964765 -6.67190157 0 0 Z " fill="#739AC0" transform="translate(465,261)"/>
<path d="M0 0 C19.53948019 -0.44273747 37.58122821 -0.11470204 56 7 C55.67 7.66 55.34 8.32 55 9 C53.55947266 8.56880859 53.55947266 8.56880859 52.08984375 8.12890625 C47.62385861 6.85435429 43.10696944 5.88682126 38.5625 4.9375 C37.75490234 4.76412109 36.94730469 4.59074219 36.11523438 4.41210938 C27.40678965 2.58059924 18.87688762 1.81094148 10 1.4375 C9.03449219 1.39431641 8.06898438 1.35113281 7.07421875 1.30664062 C4.71625575 1.20158287 2.35820584 1.09943086 0 1 C0 0.67 0 0.34 0 0 Z " fill="#7C9FC1" transform="translate(427,181)"/>
<path d="M0 0 C-2.34772433 2.34772433 -2.99242312 2.28002913 -6.1875 2.5 C-9.06334417 2.70146019 -11.3615933 3.11672862 -14.12646484 4.00927734 C-18.42646764 5.10907637 -22.15328255 5.25583759 -26.55859375 5.1953125 C-27.34774673 5.1924826 -28.13689972 5.18965271 -28.94996643 5.18673706 C-31.44597172 5.17563057 -33.94160498 5.15054455 -36.4375 5.125 C-38.13996874 5.11495785 -39.84244316 5.10583417 -41.54492188 5.09765625 C-45.69675576 5.0757226 -49.84831502 5.04125977 -54 5 C-54 4.67 -54 4.34 -54 4 C-53.17314697 3.97812622 -53.17314697 3.97812622 -52.32958984 3.95581055 C-40.62957679 3.61453002 -29.15684264 2.84629365 -17.58740234 1.01635742 C-11.67685997 0.10794959 -5.97793068 -0.16534362 0 0 Z " fill="#194F78" transform="translate(472,465)"/>
<path d="M0 0 C1.32 0.33 2.64 0.66 4 1 C1.09468045 3.37155154 -1.6012391 4.79374061 -5.125 6.0625 C-5.99382812 6.38347656 -6.86265625 6.70445312 -7.7578125 7.03515625 C-15.94788618 9.47244324 -23.59593404 10.28072733 -32.125 10.125 C-33.08148438 10.11597656 -34.03796875 10.10695313 -35.0234375 10.09765625 C-37.34923525 10.07439827 -39.67447294 10.04172213 -42 10 C-42 9.67 -42 9.34 -42 9 C-41.29617188 8.93006836 -40.59234375 8.86013672 -39.8671875 8.78808594 C-26.29011069 7.40999492 -13.1093019 5.90110646 0 2 C0 1.34 0 0.68 0 0 Z " fill="#21547A" transform="translate(463,386)"/>
<path d="M0 0 C0.66 0 1.32 0 2 0 C0.72145685 3.59886221 -0.97819816 6.69036899 -3.02124023 9.91113281 C-7.81614371 17.47136161 -11.36499377 25.17777489 -14.58984375 33.515625 C-16 37 -16 37 -18 40 C-17.88541307 38.56163249 -17.75790884 37.12429034 -17.625 35.6875 C-17.55539062 34.88699219 -17.48578125 34.08648437 -17.4140625 33.26171875 C-17 31 -17 31 -15 28 C-14.61500109 26.34450469 -14.27206865 24.6777567 -14 23 C-13.34 23 -12.68 23 -12 23 C-11.81824219 22.22914063 -11.63648438 21.45828125 -11.44921875 20.6640625 C-11.19785156 19.66117187 -10.94648438 18.65828125 -10.6875 17.625 C-10.44386719 16.62726563 -10.20023437 15.62953125 -9.94921875 14.6015625 C-9 12 -9 12 -6 10 C-5.67 9.01 -5.34 8.02 -5 7 C-4.34 7 -3.68 7 -3 7 C-2.87625 6.401875 -2.7525 5.80375 -2.625 5.1875 C-2 3 -2 3 0 0 Z " fill="#7198BE" transform="translate(314,241)"/>
<path d="M0 0 C0.33 0 0.66 0 1 0 C1 4.95 1 9.9 1 15 C5.62 15 10.24 15 15 15 C15 10.05 15 5.1 15 0 C15.66 0 16.32 0 17 0 C17 5.61 17 11.22 17 17 C11.39 17 5.78 17 0 17 C0 11.39 0 5.78 0 0 Z " fill="#B7DDEC" transform="translate(604,333)"/>
<path d="M0 0 C3.73013505 1.39257249 7.06334723 3.09747586 10.4921875 5.1171875 C11.52730469 5.72433594 12.56242188 6.33148438 13.62890625 6.95703125 C14.70011719 7.58996094 15.77132812 8.22289062 16.875 8.875 C18.99725794 10.12263042 21.11965036 11.37003213 23.2421875 12.6171875 C24.23573242 13.20209961 25.22927734 13.78701172 26.25292969 14.38964844 C29.48761277 16.28584197 32.73828968 18.15076822 36 20 C36 20.33 36 20.66 36 21 C33.69 20.67 31.38 20.34 29 20 C29 19.34 29 18.68 29 18 C28.13375 17.7525 27.2675 17.505 26.375 17.25 C22.81071059 15.92989281 20.11863198 14.14839092 17 12 C16.01 11.67 15.02 11.34 14 11 C14 10.34 14 9.68 14 9 C13.2265625 8.8453125 13.2265625 8.8453125 12.4375 8.6875 C9.13973565 7.75736134 6.13366668 6.38604488 3 5 C3 4.34 3 3.68 3 3 C2.01 2.67 1.02 2.34 0 2 C0 1.34 0 0.68 0 0 Z " fill="#7197BD" transform="translate(550,144)"/>
<path d="M0 0 C2.140625 0.40234375 2.140625 0.40234375 4 1 C-18.53688525 19 -18.53688525 19 -24 19 C-22.76293177 15.2887953 -21.77906668 15.03939115 -18.4375 13.1875 C-12.5881007 9.81991726 -7.30068665 6.03924499 -2.25 1.5625 C-1.5075 1.046875 -0.765 0.53125 0 0 Z " fill="#E0F2F8" transform="translate(524,432)"/>
<path d="M0 0 C2.7783909 1.10504183 5.54853438 2.2263998 8.3125 3.3671875 C18.29336604 7.44834671 28.28018606 11.39123149 39 13 C39 13.33 39 13.66 39 14 C28.66170733 14.60813486 18.97713642 12.04412773 10 7 C8.17037778 6.07594837 6.33691598 5.15946609 4.5 4.25 C3 3.5 1.5 2.75 0 2 C0 1.34 0 0.68 0 0 Z " fill="#24587B" transform="translate(366,452)"/>
<path d="M0 0 C-1.54107422 0.92619141 -1.54107422 0.92619141 -3.11328125 1.87109375 C-11.62637014 7.05181056 -19.49078679 12.41352909 -27 19 C-27.33 18.01 -27.66 17.02 -28 16 C-24.66848902 12.2877449 -22.81978738 10.91185167 -18 10 C-16.63979849 8.03241727 -16.63979849 8.03241727 -16 6 C-14.68 6 -13.36 6 -12 6 C-12 5.34 -12 4.68 -12 4 C-10.68 3.67 -9.36 3.34 -8 3 C-8 2.34 -8 1.68 -8 1 C-4.85571151 -0.9090323 -3.47925125 -1.04523725 0 0 Z " fill="#7199BF" transform="translate(365,199)"/>
<path d="M0 0 C8.40045942 1.33843798 8.40045942 1.33843798 10.8125 4 C11.204375 4.66 11.59625 5.32 12 6 C13.051875 6.495 13.051875 6.495 14.125 7 C16 8 16 8 16.75 10.125 C16.87375 11.053125 16.87375 11.053125 17 12 C19.31 12.66 21.62 13.32 24 14 C24 15.65 24 17.3 24 19 C19.54740464 15.71652186 15.1761929 12.35505607 10.875 8.875 C8.10853084 6.64218616 5.35800014 4.49722887 2.375 2.5625 C1.59125 2.046875 0.8075 1.53125 0 1 C0 0.67 0 0.34 0 0 Z " fill="#729BC0" transform="translate(509,203)"/>
<path d="M0 0 C2.63114582 1.01167157 5.27243603 1.98562727 7.92578125 2.9375 C10 4 10 4 11 7 C11.66 7.165 12.32 7.33 13 7.5 C13.66 7.665 14.32 7.83 15 8 C15.33 8.99 15.66 9.98 16 11 C10.99893519 9.10659275 6.20297634 6.7896312 1.375 4.5 C0.51648438 4.09652344 -0.34203125 3.69304687 -1.2265625 3.27734375 C-2.0515625 2.88675781 -2.8765625 2.49617187 -3.7265625 2.09375 C-4.84925537 1.56297852 -4.84925537 1.56297852 -5.99462891 1.02148438 C-8 0 -8 0 -11 -2 C-6.27409022 -3.52897081 -4.2527236 -2.32696197 0 0 Z " fill="#769CC1" transform="translate(493,192)"/>
<path d="M0 0 C4.44421603 -0.39213671 7.18687075 0.74678726 11 3 C11.33 3.66 11.66 4.32 12 5 C13.64363134 5.72159424 15.31050386 6.39351421 17 7 C17 7.66 17 8.32 17 9 C18.65 9 20.3 9 22 9 C22.33 10.32 22.66 11.64 23 13 C22.01 13.495 22.01 13.495 21 14 C21 13.34 21 12.68 21 12 C20.17242188 11.76410156 19.34484375 11.52820313 18.4921875 11.28515625 C14.3689175 9.76775599 10.85787735 7.72714279 7.125 5.4375 C6.43664062 5.02564453 5.74828125 4.61378906 5.0390625 4.18945312 C3.33910553 3.15902286 1.66662278 2.08351684 0 1 C0 0.67 0 0.34 0 0 Z " fill="#1C6592" transform="translate(536,383)"/>
<path d="M0 0 C3.0831351 1.19899698 6.06279492 2.47700477 9 4 C8.42000976 8.26029191 5.87612107 11.35161535 3.4375 14.75 C3.01275391 15.35199219 2.58800781 15.95398438 2.15039062 16.57421875 C1.10564478 18.05329714 0.05353984 19.52717259 -1 21 C-1.66 20.34 -2.32 19.68 -3 19 C-2.4946875 18.32453125 -1.989375 17.6490625 -1.46875 16.953125 C-0.8190625 16.06109375 -0.169375 15.1690625 0.5 14.25 C1.1496875 13.36828125 1.799375 12.4865625 2.46875 11.578125 C4.34043943 8.92657375 4.34043943 8.92657375 4 5 C2.0399719 3.36323743 2.0399719 3.36323743 0 2 C0 1.34 0 0.68 0 0 Z " fill="#D1EDF6" transform="translate(548,391)"/>
<path d="M0 0 C-0.5625 1.875 -0.5625 1.875 -2 4 C-4.30657014 4.75407101 -6.645752 5.411438 -9 6 C-13.49038214 8.05809181 -17.73049386 10.52368644 -22 13 C-22.66 12.34 -23.32 11.68 -24 11 C-17.49087958 6.10554511 -8.4149211 0 0 0 Z " fill="#769CC1" transform="translate(415,256)"/>
<path d="M0 0 C1.27079419 2.88816861 0.93629246 4.22509998 0.0625 7.3125 C-2.13771351 12.02580141 -6.0195452 14.81563616 -10 18 C-10.54269531 18.50015625 -11.08539062 19.0003125 -11.64453125 19.515625 C-14.97879011 22.57716084 -17.4884009 23.67774292 -22 24 C-19.64225295 21.450254 -17.08358291 19.65402993 -14.1875 17.75 C-7.16737152 12.87889045 -2.945857 8.01927739 0 0 Z " fill="#D1E9F2" transform="translate(645,441)"/>
<path d="M0 0 C0.33 0 0.66 0 1 0 C1.36625971 4.51720311 1.36625971 4.51720311 -0.375 6.8125 C-2 8 -2 8 -4 8 C-4 8.66 -4 9.32 -4 10 C-4.99 10.495 -4.99 10.495 -6 11 C-6.6496875 12.1446875 -6.6496875 12.1446875 -7.3125 13.3125 C-9.17518219 16.27899385 -11.18861522 17.94844894 -14 20 C-14.66 19.34 -15.32 18.68 -16 18 C-15.34773437 17.3709375 -14.69546875 16.741875 -14.0234375 16.09375 C-9.27231222 11.44073055 -4.86790036 6.85880335 -1.05859375 1.3984375 C-0.70925781 0.93695313 -0.35992188 0.47546875 0 0 Z " fill="#1F557C" transform="translate(546,412)"/>
<path d="M0 0 C5.45400952 1.52851222 9.93471913 4.10917958 14.75 7 C15.90048828 7.67675781 15.90048828 7.67675781 17.07421875 8.3671875 C22.72226732 11.72226732 22.72226732 11.72226732 25 14 C16.31715175 14 7.07621734 6.85622758 0 2 C0 1.34 0 0.68 0 0 Z " fill="#DDF1F7" transform="translate(274,483)"/>
<path d="M0 0 C-0.33 0.99 -0.66 1.98 -1 3 C-1.99 3 -2.98 3 -4 3 C-4.309375 3.8971875 -4.309375 3.8971875 -4.625 4.8125 C-6.93090581 8.48098651 -10.30413207 9.5545926 -14.39453125 10.62890625 C-16.59090103 11.12352181 -18.78786394 11.58215208 -21 12 C-17.15651589 8.74951058 -13.17601471 6.21217131 -8.8125 3.75 C-8.18408203 3.38648438 -7.55566406 3.02296875 -6.90820312 2.6484375 C-2.25352444 0 -2.25352444 0 0 0 Z " fill="#276C97" transform="translate(517,277)"/>
<path d="M0 0 C0 3 0 3 -2.0625 5.5625 C-5.37266047 8.3092289 -7.86780674 8.96695169 -12 10 C-12.886875 10.556875 -13.77375 11.11375 -14.6875 11.6875 C-17 13 -17 13 -21 12 C-14.07 8.04 -7.14 4.08 0 0 Z " fill="#739BC1" transform="translate(306,149)"/>
<path d="M0 0 C-0.33 0.99 -0.66 1.98 -1 3 C-1.66 3 -2.32 3 -3 3 C-3.33 3.99 -3.66 4.98 -4 6 C-6.28515625 6.94921875 -6.28515625 6.94921875 -9.0625 7.6875 C-10.44115234 8.06455078 -10.44115234 8.06455078 -11.84765625 8.44921875 C-12.55792969 8.63097656 -13.26820313 8.81273437 -14 9 C-14 9.66 -14 10.32 -14 11 C-17.465 12.485 -17.465 12.485 -21 14 C-21.66 13.34 -22.32 12.68 -23 12 C-21.35451172 11.07767578 -21.35451172 11.07767578 -19.67578125 10.13671875 C-18.22133265 9.32035083 -16.76690677 8.50394244 -15.3125 7.6875 C-14.59126953 7.28337891 -13.87003906 6.87925781 -13.12695312 6.46289062 C-10.08651345 4.75524642 -7.07063885 3.04375605 -4.10546875 1.20703125 C-2 0 -2 0 0 0 Z " fill="#789EC2" transform="translate(330,136)"/>
<path d="M0 0 C0.89332031 0.29777344 0.89332031 0.29777344 1.8046875 0.6015625 C-0.75567171 2.06376529 -3.3184481 3.52141403 -5.8828125 4.9765625 C-6.60404297 5.3890625 -7.32527344 5.8015625 -8.06835938 6.2265625 C-11.70538901 8.28588522 -15.24765038 10.18445302 -19.1953125 11.6015625 C-19.1953125 10.6115625 -19.1953125 9.6215625 -19.1953125 8.6015625 C-18.55464844 8.28703125 -17.91398437 7.9725 -17.25390625 7.6484375 C-13.18106626 5.63326183 -9.17882721 3.63077863 -5.3203125 1.2265625 C-2.1953125 -0.3984375 -2.1953125 -0.3984375 0 0 Z " fill="#D6F1F9" transform="translate(518.1953125,274.3984375)"/>
<path d="M0 0 C0.33 0.66 0.66 1.32 1 2 C-1.70325055 8.89794967 -6.82979295 12.39418027 -13 16 C-13.969375 16.639375 -14.93875 17.27875 -15.9375 17.9375 C-16.618125 18.288125 -17.29875 18.63875 -18 19 C-18.66 18.67 -19.32 18.34 -20 18 C-19.28714844 17.50371094 -18.57429688 17.00742187 -17.83984375 16.49609375 C-11.05920694 11.68667841 -4.65124566 6.97686849 0 0 Z " fill="#D1E7F1" transform="translate(489,368)"/>
<path d="M0 0 C0.66 0.33 1.32 0.66 2 1 C1.67 1.99 1.34 2.98 1 4 C-0.65 4 -2.3 4 -4 4 C-4 4.66 -4 5.32 -4 6 C-7.84473314 9.29792665 -11.48465256 11.84048974 -16.5625 12.375 C-17.366875 12.25125 -18.17125 12.1275 -19 12 C-15.3194903 9.09334106 -11.37683004 6.68023012 -7.375 4.25 C-6.694375 3.82589844 -6.01375 3.40179688 -5.3125 2.96484375 C-3.57871449 1.9129225 -1.79237311 0.9486565 0 0 Z " fill="#779EC2" transform="translate(409,89)"/>
<path d="M0 0 C0.66 0 1.32 0 2 0 C1.09440449 5.2013691 -2.28887863 8.44198973 -6 12 C-8.28381561 13.59027779 -10.49046628 14.77084063 -13 16 C-12.67 15.01 -12.34 14.02 -12 13 C-11.34 13 -10.68 13 -10 13 C-10 12.34 -10 11.68 -10 11 C-9.34 11 -8.68 11 -8 11 C-7.95875 10.38125 -7.9175 9.7625 -7.875 9.125 C-7.58625 8.42375 -7.2975 7.7225 -7 7 C-3.9375 5.75 -3.9375 5.75 -1 5 C-0.67 3.35 -0.34 1.7 0 0 Z " fill="#1F557A" transform="translate(641,445)"/>
<path d="M0 0 C7.39466676 4.09066672 14.51312408 8.55939439 21 14 C17.28754093 13.42177629 14.55091692 12.39136744 11.3125 10.5 C10.54550781 10.0565625 9.77851563 9.613125 8.98828125 9.15625 C8.33214844 8.7746875 7.67601562 8.393125 7 8 C6.34 7.67 5.68 7.34 5 7 C5 6.34 5 5.68 5 5 C4.01 4.67 3.02 4.34 2 4 C2 3.34 2 2.68 2 2 C1.34 2 0.68 2 0 2 C0 1.34 0 0.68 0 0 Z " fill="#1D5076" transform="translate(344,438)"/>
<path d="M0 0 C1.32 0 2.64 0 4 0 C4 0.66 4 1.32 4 2 C4.66 2 5.32 2 6 2 C6.33 3.32 6.66 4.64 7 6 C7.66 6 8.32 6 9 6 C10.625 7.375 10.625 7.375 12 9 C12 9.66 12 10.32 12 11 C12.66 11.33 13.32 11.66 14 12 C13.34 12.66 12.68 13.32 12 14 C10.55620057 12.61068357 9.12022488 11.21323422 7.6875 9.8125 C6.88699219 9.03519531 6.08648437 8.25789063 5.26171875 7.45703125 C3.08923692 5.09694305 1.53869987 2.80352112 0 0 Z " fill="#DCF0F6" transform="translate(321,414)"/>
<path d="M0 0 C1.31223496 3.93670488 0.24296256 6.12488144 -1 10 C-1.66 10 -2.32 10 -3 10 C-3 18.25 -3 26.5 -3 35 C-3.33 35 -3.66 35 -4 35 C-4.11727273 30.85440907 -4.18760933 26.70925138 -4.25 22.5625 C-4.28351563 21.39783203 -4.31703125 20.23316406 -4.3515625 19.03320312 C-4.43359896 11.752467 -3.68231881 6.34234786 0 0 Z " fill="#7094BC" transform="translate(222,204)"/>
<path d="M0 0 C4.39383706 1.59623144 8.28995807 3.78024333 12.3125 6.125 C12.95767578 6.49753906 13.60285156 6.87007812 14.26757812 7.25390625 C15.84675945 8.16632213 17.42361864 9.08275509 19 10 C14.81857651 11.29227216 12.09724467 10.54613006 8 9 C7.67 8.01 7.34 7.02 7 6 C5.37051936 4.77554716 5.37051936 4.77554716 3.4375 3.8125 C2.303125 3.214375 1.16875 2.61625 0 2 C0 1.34 0 0.68 0 0 Z " fill="#6E97BF" transform="translate(595,170)"/>
<path d="M0 0 C0.66 0.33 1.32 0.66 2 1 C0.625 2.5 0.625 2.5 -1 4 C-1.66 4 -2.32 4 -3 4 C-3.20625 4.61875 -3.4125 5.2375 -3.625 5.875 C-5.59142777 8.91402473 -7.535147 9.23773234 -11 10 C-13.1953125 9.54296875 -13.1953125 9.54296875 -15 9 C-12.54732365 7.46931512 -10.08866106 5.95031377 -7.625 4.4375 C-6.92632812 3.99986328 -6.22765625 3.56222656 -5.5078125 3.11132812 C-3.70814097 2.01249022 -1.85677657 0.99932133 0 0 Z " fill="#769CC2" transform="translate(378,107)"/>
<path d="M0 0 C3.63 0 7.26 0 11 0 C11 0.33 11 0.66 11 1 C9.2984375 1.2165625 9.2984375 1.2165625 7.5625 1.4375 C4.19222799 1.61171478 4.19222799 1.61171478 3 3 C2.71599669 6.10149646 2.5512529 9.20292646 2.37890625 12.3125 C2.25386719 13.199375 2.12882813 14.08625 2 15 C1.01 15.495 1.01 15.495 0 16 C0 10.72 0 5.44 0 0 Z " fill="#135C8A" transform="translate(621,334)"/>
<path d="M0 0 C1.9375 0.625 1.9375 0.625 4 2 C4.75 5.125 4.75 5.125 5 8 C5.66 8 6.32 8 7 8 C10.22265625 13.17578125 10.22265625 13.17578125 11 15 C10.67 15.99 10.34 16.98 10 18 C6.37 12.72 2.74 7.44 -1 2 C-0.67 1.34 -0.34 0.68 0 0 Z " fill="#6E98BF" transform="translate(547,235)"/>
<path d="M0 0 C-0.33 0.99 -0.66 1.98 -1 3 C-3.03125 3.66015625 -3.03125 3.66015625 -5.5 4.0625 C-7.91007019 4.42516952 -7.91007019 4.42516952 -10 5 C-10.33 5.66 -10.66 6.32 -11 7 C-17.625 7.25 -17.625 7.25 -21 5 C-19.87980469 4.72285156 -18.75960938 4.44570313 -17.60546875 4.16015625 C-16.13279698 3.79433333 -14.66014158 3.42844447 -13.1875 3.0625 C-12.08051758 2.78889648 -12.08051758 2.78889648 -10.95117188 2.50976562 C-0.86647727 0 -0.86647727 0 0 0 Z " fill="#D1E8F0" transform="translate(463,390)"/>
<path d="M0 0 C0.66 0.33 1.32 0.66 2 1 C1.43206678 4.47575128 0.33831755 6.02496366 -2.3125 8.3125 C-2.90675781 8.84488281 -3.50101562 9.37726563 -4.11328125 9.92578125 C-6 11 -6 11 -10 10 C-6.7 6.7 -3.4 3.4 0 0 Z " fill="#709AC2" transform="translate(389,268)"/>
<path d="M0 0 C2.08369901 0.95753798 4.16694547 1.9160608 6.25 2.875 C7.41015625 3.40867187 8.5703125 3.94234375 9.765625 4.4921875 C12.19853869 5.6263719 14.60910636 6.78088096 17 8 C10.42527587 8.53671217 6.34882112 8.01161584 1 4 C0.3125 1.859375 0.3125 1.859375 0 0 Z " fill="#DEF0F6" transform="translate(407,559)"/>
<path d="M0 0 C1.5 1.375 1.5 1.375 3 3 C3 3.66 3 4.32 3 5 C-1.95 7.64 -6.9 10.28 -12 13 C-11 9 -11 9 -9.125 7.75 C-7 7 -7 7 -4 7 C-4 6.34 -4 5.68 -4 5 C-2.68 5 -1.36 5 0 5 C0 3.35 0 1.7 0 0 Z " fill="#D4EFF7" transform="translate(554,249)"/>
<path d="M0 0 C0.99 0.66 1.98 1.32 3 2 C-2.61 5.3 -8.22 8.6 -14 12 C-14.33 11.01 -14.66 10.02 -15 9 C-11.03086143 6.56730216 -6.97485782 4.3173892 -2.890625 2.0859375 C-1.05256473 1.13955568 -1.05256473 1.13955568 0 0 Z " fill="#E4F5FB" transform="translate(249,179)"/>
<path d="M0 0 C4.35522853 0.50642192 7.44239635 1.38411497 11 4 C11 4.66 11 5.32 11 6 C12.65 6.33 14.3 6.66 16 7 C16 7.66 16 8.32 16 9 C16.99 8.67 17.98 8.34 19 8 C19 8.99 19 9.98 19 11 C14.60616294 9.40376856 10.71004193 7.21975667 6.6875 4.875 C6.04232422 4.50246094 5.39714844 4.12992188 4.73242188 3.74609375 C3.15324055 2.83367787 1.57638136 1.91724491 0 1 C0 0.67 0 0.34 0 0 Z " fill="#D6EAF5" transform="translate(593,168)"/>
<path d="M0 0 C0.66 0.33 1.32 0.66 2 1 C0.625 2.5 0.625 2.5 -1 4 C-1.66 4 -2.32 4 -3 4 C-3 4.66 -3 5.32 -3 6 C-9.4 10.06153846 -9.4 10.06153846 -12.4375 9.75 C-12.953125 9.5025 -13.46875 9.255 -14 9 C-9.80022081 5.3421278 -5.12798061 2.20634136 0 0 Z " fill="#DCF0F6" transform="translate(489,541)"/>
<path d="M0 0 C3.12290635 0.48578543 5.99580359 0.9986012 9 2 C9 2.66 9 3.32 9 4 C9.969375 4.12375 10.93875 4.2475 11.9375 4.375 C13.4534375 4.684375 13.4534375 4.684375 15 5 C15.33 5.66 15.66 6.32 16 7 C14.390625 7.7109375 14.390625 7.7109375 12 8 C8.984375 6.6015625 8.984375 6.6015625 5.75 4.625 C4.67234375 3.97789062 3.5946875 3.33078125 2.484375 2.6640625 C1.66453125 2.11492187 0.8446875 1.56578125 0 1 C0 0.67 0 0.34 0 0 Z " fill="#2B5C7F" transform="translate(238,461)"/>
<path d="M0 0 C3.79049707 1.42749981 7.27122456 3.16236542 10.8125 5.125 C12.27623047 5.93324219 12.27623047 5.93324219 13.76953125 6.7578125 C14.50558594 7.16773438 15.24164062 7.57765625 16 8 C13.44855176 8.93045933 12.25993522 9.08564091 9.640625 8.22265625 C8.85171875 7.83980469 8.0628125 7.45695312 7.25 7.0625 C6.45078125 6.68222656 5.6515625 6.30195313 4.828125 5.91015625 C4.22484375 5.60980469 3.6215625 5.30945313 3 5 C3 4.34 3 3.68 3 3 C2.01 2.67 1.02 2.34 0 2 C0 1.34 0 0.68 0 0 Z " fill="#DAF3F9" transform="translate(520,375)"/>
<path d="M0 0 C0.66 0.33 1.32 0.66 2 1 C-2.7266426 5.48110272 -6.83056298 8.81499106 -13 11 C-13 10.01 -13 9.02 -13 8 C-10.89407249 6.42203742 -8.87808391 5.08093564 -6.625 3.75 C-6.02171875 3.37359375 -5.4184375 2.9971875 -4.796875 2.609375 C-3.23911092 1.66779316 -1.62217532 0.82568307 0 0 Z " fill="#E0F1F9" transform="translate(365,198)"/>
<path d="M0 0 C0 2 0 2 -2.5 4.5625 C-6.17395407 7.55088369 -9.34965102 7.75946471 -14 8 C-4.57142857 0 -4.57142857 0 0 0 Z " fill="#236994" transform="translate(531,269)"/>
<path d="M0 0 C0.99 0.33 1.98 0.66 3 1 C2.45730469 1.60328125 1.91460937 2.2065625 1.35546875 2.828125 C0.64003906 3.62734375 -0.07539063 4.4265625 -0.8125 5.25 C-1.52019531 6.03890625 -2.22789062 6.8278125 -2.95703125 7.640625 C-4.74168935 9.7016833 -6.39759062 11.79605523 -8 14 C-8.67578125 12.234375 -8.67578125 12.234375 -9 10 C-7.85546875 8.078125 -7.85546875 8.078125 -6.1875 6.25 C-5.64480469 5.63640625 -5.10210937 5.0228125 -4.54296875 4.390625 C-3 3 -3 3 -1 3 C-0.67 2.01 -0.34 1.02 0 0 Z " fill="#E5F4FB" transform="translate(229,192)"/>
<path d="M0 0 C4.52615993 3.67832017 8.39424999 7.41086363 12 12 C11.01 12.33 10.02 12.66 9 13 C8.67 12.01 8.34 11.02 8 10 C7.34 10 6.68 10 6 10 C2 5.52941176 2 5.52941176 2 3 C1.34 3 0.68 3 0 3 C0 2.01 0 1.02 0 0 Z " fill="#769DC0" transform="translate(480,272)"/>
<path d="M0 0 C0.66 0.33 1.32 0.66 2 1 C-2.12324647 5.25209792 -6.51282966 9.13635705 -11 13 C-11.66 12.67 -12.32 12.34 -13 12 C-8.84792208 7.7373638 -4.63678779 3.73204871 0 0 Z " fill="#DFF1FA" transform="translate(345,211)"/>
<path d="M0 0 C2.64 0.33 5.28 0.66 8 1 C8 1.66 8 2.32 8 3 C10.475 3.99 10.475 3.99 13 5 C12.67 5.66 12.34 6.32 12 7 C7.69235185 5.43358249 3.93828536 3.31663844 0 1 C0 0.67 0 0.34 0 0 Z " fill="#21567C" transform="translate(353,527)"/>
<path d="M0 0 C8 0 8 0 10 1 C9.67 2.65 9.34 4.3 9 6 C5.59687262 4.94124926 2.98646769 3.99097846 0 2 C0 1.34 0 0.68 0 0 Z " fill="#215882" transform="translate(302,497)"/>
<path d="M0 0 C3.89608498 1.48904175 7.59097018 3.24378713 11.3125 5.125 C12.38113281 5.66382813 13.44976562 6.20265625 14.55078125 6.7578125 C15.76314453 7.37269531 15.76314453 7.37269531 17 8 C16.01 8.495 16.01 8.495 15 9 C12.57355255 8.16471385 10.28416064 7.27008379 7.9375 6.25 C7.28716797 5.98445313 6.63683594 5.71890625 5.96679688 5.4453125 C4.27072246 4.71817133 2.6298649 3.86541499 1 3 C0.67 2.01 0.34 1.02 0 0 Z " fill="#1D5376" transform="translate(366,452)"/>
<path d="M0 0 C2.31 0.33 4.62 0.66 7 1 C7.33 1.99 7.66 2.98 8 4 C9.1446875 4.185625 9.1446875 4.185625 10.3125 4.375 C13 5 13 5 16 7 C14.390625 7.7109375 14.390625 7.7109375 12 8 C8.984375 6.6015625 8.984375 6.6015625 5.75 4.625 C4.67234375 3.97789062 3.5946875 3.33078125 2.484375 2.6640625 C1.66453125 2.11492187 0.8446875 1.56578125 0 1 C0 0.67 0 0.34 0 0 Z " fill="#246894" transform="translate(503,364)"/>
<path d="M0 0 C0.99 0.99 1.98 1.98 3 3 C2.04663979 4.31611677 1.08714226 5.62778961 0.125 6.9375 C-0.40867187 7.66839844 -0.94234375 8.39929688 -1.4921875 9.15234375 C-3 11 -3 11 -5 12 C-4.54738642 10.56068883 -4.08767021 9.12361001 -3.625 7.6875 C-3.24214844 6.48673828 -3.24214844 6.48673828 -2.8515625 5.26171875 C-2 3 -2 3 0 0 Z " fill="#E3F3FA" transform="translate(306,258)"/>
<path d="M0 0 C0.99 0.33 1.98 0.66 3 1 C-0.63 4.63 -4.26 8.26 -8 12 C-8.33 11.01 -8.66 10.02 -9 9 C-8.38125 8.7525 -7.7625 8.505 -7.125 8.25 C-4.5927804 6.76045906 -4.19281342 5.62418952 -3 3 C-1.375 1.25 -1.375 1.25 0 0 Z " fill="#749AC0" transform="translate(334,218)"/>
<path d="M0 0 C7.83098592 1.95774648 7.83098592 1.95774648 11 5 C11 5.66 11 6.32 11 7 C9.55903414 6.57405412 8.12231288 6.13373367 6.6875 5.6875 C5.88699219 5.44386719 5.08648437 5.20023437 4.26171875 4.94921875 C1.90035427 3.95817977 0.66120007 2.91925057 -1 1 C-0.67 0.67 -0.34 0.34 0 0 Z " fill="#D7ECF3" transform="translate(369,451)"/>
<path d="M0 0 C0.66 0.33 1.32 0.66 2 1 C1.67 1.66 1.34 2.32 1 3 C3.97 3.495 3.97 3.495 7 4 C7.33 4.99 7.66 5.98 8 7 C7.01 7.495 7.01 7.495 6 8 C3.8359375 7.00390625 3.8359375 7.00390625 1.375 5.5625 C0.55773437 5.08941406 -0.25953125 4.61632812 -1.1015625 4.12890625 C-1.72804688 3.75636719 -2.35453125 3.38382812 -3 3 C-3 2.34 -3 1.68 -3 1 C-2.01 0.67 -1.02 0.34 0 0 Z " fill="#20567D" transform="translate(293,489)"/>
<path d="M0 0 C2.74792483 3.40219265 6 7.48464588 6 12 C4.68 11.67 3.36 11.34 2 11 C0.80712589 7.12315913 0 4.08378077 0 0 Z " fill="#749CC2" transform="translate(302,384)"/>
<path d="M0 0 C3.9492568 0.55105909 7.34920174 1.38935371 11 3 C11 3.66 11 4.32 11 5 C12.32 5.33 13.64 5.66 15 6 C12 7 12 7 9.08203125 5.78515625 C7.46361328 4.93244141 7.46361328 4.93244141 5.8125 4.0625 C4.72582031 3.49660156 3.63914062 2.93070313 2.51953125 2.34765625 C1.68808594 1.90292969 0.85664063 1.45820312 0 1 C0 0.67 0 0.34 0 0 Z " fill="#25577D" transform="translate(406,558)"/>
<path d="M0 0 C1.75215106 0.93347358 3.50163563 1.8719532 5.25 2.8125 C6.71179688 3.59560547 6.71179688 3.59560547 8.203125 4.39453125 C10.63355412 5.78965188 12.80787699 7.26195961 15 9 C12.03 8.505 12.03 8.505 9 8 C9 7.34 9 6.68 9 6 C6.03 5.505 6.03 5.505 3 5 C2.67 4.01 2.34 3.02 2 2 C1.34 2 0.68 2 0 2 C0 1.34 0 0.68 0 0 Z " fill="#D9EFF6" transform="translate(256,472)"/>
<path d="M0 0 C0.33 0 0.66 0 1 0 C1.36625971 4.51720311 1.36625971 4.51720311 -0.375 6.8125 C-2 8 -2 8 -4 8 C-4 8.66 -4 9.32 -4 10 C-5.32 10.33 -6.64 10.66 -8 11 C-7.59007812 10.45730469 -7.18015625 9.91460937 -6.7578125 9.35546875 C-6.21898437 8.64003906 -5.68015625 7.92460937 -5.125 7.1875 C-4.59132813 6.47980469 -4.05765625 5.77210938 -3.5078125 5.04296875 C-2.29185219 3.39543703 -1.13583859 1.70375789 0 0 Z " fill="#295D81" transform="translate(546,412)"/>
<path d="M0 0 C0.33 0.99 0.66 1.98 1 3 C-0.43359375 5.48046875 -0.43359375 5.48046875 -2.4375 8.1875 C-3.09621094 9.08855469 -3.75492188 9.98960937 -4.43359375 10.91796875 C-5.20896484 11.94857422 -5.20896484 11.94857422 -6 13 C-6.66 12.34 -7.32 11.68 -8 11 C-5.36 7.37 -2.72 3.74 0 0 Z " fill="#E4F6FB" transform="translate(553,399)"/>
<path d="M0 0 C0.99 0.33 1.98 0.66 3 1 C0.36 4.3 -2.28 7.6 -5 11 C-5.33 10.01 -5.66 9.02 -6 8 C-4.41866551 4.83733102 -2.61885488 2.36944013 0 0 Z " fill="#6F98BF" transform="translate(322,230)"/>
<path d="M0 0 C0.33 0.66 0.66 1.32 1 2 C0.52949219 2.53109375 0.05898438 3.0621875 -0.42578125 3.609375 C-1.04839844 4.31578125 -1.67101562 5.0221875 -2.3125 5.75 C-2.92738281 6.44609375 -3.54226563 7.1421875 -4.17578125 7.859375 C-5.87314734 9.85114506 -7.45477809 11.88898915 -9 14 C-9.66 13.67 -10.32 13.34 -11 13 C-9.73147606 11.39400651 -8.460089 9.79027425 -7.1875 8.1875 C-6.47980469 7.29417969 -5.77210938 6.40085938 -5.04296875 5.48046875 C-3.43588623 3.52923089 -1.82959577 1.73725024 0 0 Z " fill="#DBEEF8" transform="translate(329,226)"/>
<path d="M0 0 C-4.62 2.64 -9.24 5.28 -14 8 C-14 7.01 -14 6.02 -14 5 C-11.953125 3.359375 -11.953125 3.359375 -9.25 1.75 C-8.36828125 1.20859375 -7.4865625 0.6671875 -6.578125 0.109375 C-4 -1 -4 -1 0 0 Z " fill="#1E5277" transform="translate(475,550)"/>
<path d="M0 0 C5.52628901 1.19194469 8.17819158 2.5991297 12 7 C11.01 7.495 11.01 7.495 10 8 C7.87109375 7.109375 7.87109375 7.109375 5.4375 5.75 C4.63183594 5.31171875 3.82617188 4.8734375 2.99609375 4.421875 C1 3 1 3 0 0 Z " fill="#24587E" transform="translate(332,514)"/>
<path d="M0 0 C-2.23407889 3.35111834 -3.26215824 4.81553956 -7.25 5.8125 C-8.61125 5.9053125 -8.61125 5.9053125 -10 6 C-7.82304683 0.97626191 -5.41372848 -0.29263397 0 0 Z " fill="#1D557E" transform="translate(521,441)"/>
<path d="M0 0 C-1.13499394 3.29148243 -1.99283376 3.9959869 -5.125 5.75 C-6.07375 6.1625 -7.0225 6.575 -8 7 C-8.99 6.34 -9.98 5.68 -11 5 C-9.54462432 4.16151196 -8.08559627 3.32936066 -6.625 2.5 C-5.81289063 2.0359375 -5.00078125 1.571875 -4.1640625 1.09375 C-2 0 -2 0 0 0 Z " fill="#D4E9F0" transform="translate(543,511)"/>
<path d="M0 0 C0 3.86695678 -1.41909971 6.5088452 -3 10 C-3.66 10 -4.32 10 -5 10 C-5.33 11.32 -5.66 12.64 -6 14 C-6.66 13.67 -7.32 13.34 -8 13 C-6.40956621 7.91061189 -3.2553049 4.12543357 0 0 Z " fill="#7EA2C5" transform="translate(378,279)"/>
<path d="M0 0 C-1.0558098 2.78349856 -2.00518252 4.00409146 -4.375 5.875 C-5.674375 6.431875 -5.674375 6.431875 -7 7 C-9.1640625 6.0703125 -9.1640625 6.0703125 -11 5 C-9.54462432 4.16151196 -8.08559627 3.32936066 -6.625 2.5 C-5.81289063 2.0359375 -5.00078125 1.571875 -4.1640625 1.09375 C-2 0 -2 0 0 0 Z " fill="#749CC1" transform="translate(363,117)"/>
<path d="M0 0 C0.66 0.33 1.32 0.66 2 1 C2 1.66 2 2.32 2 3 C0.88625 3.12375 0.88625 3.12375 -0.25 3.25 C-3.51221354 4.1396946 -4.80954878 5.48503749 -7 8 C-7.66 7.67 -8.32 7.34 -9 7 C-9 6.34 -9 5.68 -9 5 C-7.54735962 4.1361871 -6.0876837 3.28419546 -4.625 2.4375 C-3.40683594 1.72400391 -3.40683594 1.72400391 -2.1640625 0.99609375 C-1.44992187 0.66738281 -0.73578125 0.33867187 0 0 Z " fill="#D6EAF1" transform="translate(588,484)"/>
<path d="M0 0 C0.99 0.33 1.98 0.66 3 1 C2.06862408 2.29608947 1.1296434 3.58671632 0.1875 4.875 C-0.33457031 5.59429687 -0.85664063 6.31359375 -1.39453125 7.0546875 C-3 9 -3 9 -6 11 C-6 9.68 -6 8.36 -6 7 C-5.01 7 -4.02 7 -3 7 C-2.67 5.68 -2.34 4.36 -2 3 C-1.34 3 -0.68 3 0 3 C0 2.01 0 1.02 0 0 Z " fill="#1E5379" transform="translate(488,365)"/>
<path d="M0 0 C0 0.66 0 1.32 0 2 C-1.76414623 2.72482748 -3.53662904 3.42939296 -5.3125 4.125 C-6.79169922 4.71667969 -6.79169922 4.71667969 -8.30078125 5.3203125 C-9.19152344 5.54460937 -10.08226562 5.76890625 -11 6 C-11.99 5.34 -12.98 4.68 -14 4 C-12.0429132 3.32968281 -10.08428887 2.66385317 -8.125 2 C-7.03445313 1.62875 -5.94390625 1.2575 -4.8203125 0.875 C-2 0 -2 0 0 0 Z " fill="#316082" transform="translate(487,458)"/>
<path d="M0 0 C3.56144099 -0.19785783 6.04454879 -0.11103658 9 2 C9.75 4.125 9.75 4.125 10 6 C6.40992874 4.66654496 3.20429093 3.1056769 0 1 C0 0.67 0 0.34 0 0 Z " fill="#2C6F96" transform="translate(536,383)"/>
<path d="M0 0 C-1.62170379 1.00533667 -3.24747237 2.00411907 -4.875 3 C-6.23238281 3.8353125 -6.23238281 3.8353125 -7.6171875 4.6875 C-10 6 -10 6 -12 6 C-11 3 -11 3 -9.2578125 1.796875 C-8.55398438 1.45140625 -7.85015625 1.1059375 -7.125 0.75 C-6.42632813 0.39421875 -5.72765625 0.0384375 -5.0078125 -0.328125 C-3 -1 -3 -1 0 0 Z " fill="#D7F2F9" transform="translate(532,268)"/>
<path d="M0 0 C4.27878027 2.03751441 8.11282869 4.31600076 12 7 C9.63986261 7.84290621 8.40341668 8.13867449 6 7.3125 C3.6534391 5.77256941 1.84740215 4.11131674 0 2 C0 1.34 0 0.68 0 0 Z " fill="#749BBF" transform="translate(466,262)"/>
<path d="M0 0 C-0.375 1.9375 -0.375 1.9375 -1 4 C-3.95664519 5.4783226 -6.74229737 5.06032783 -10 5 C-3.63636364 0 -3.63636364 0 0 0 Z " fill="#D3E9F1" transform="translate(458,560)"/>
<path d="M0 0 C0.66 0.33 1.32 0.66 2 1 C0.76265016 2.03613033 -0.49044637 3.05347802 -1.75 4.0625 C-2.79414062 4.91521484 -2.79414062 4.91521484 -3.859375 5.78515625 C-6 7 -6 7 -8.265625 6.68359375 C-8.83796875 6.45800781 -9.4103125 6.23242188 -10 6 C-2.83146067 1.11235955 -2.83146067 1.11235955 0 0 Z " fill="#1668A5" transform="translate(622,215)"/>
<path d="M0 0 C0.66 0.99 1.32 1.98 2 3 C0.71034824 4.37562854 -0.62689293 5.70766393 -2 7 C-2.66 7 -3.32 7 -4 7 C-4 7.66 -4 8.32 -4 9 C-4.66 9 -5.32 9 -6 9 C-4.68775452 5.06326356 -3.08089673 2.77280706 0 0 Z " fill="#739AC0" transform="translate(229,195)"/>
<path d="M0 0 C4.3177458 0.50797009 8.03302114 1.19682779 12 3 C11.67 3.66 11.34 4.32 11 5 C9.9275 4.690625 8.855 4.38125 7.75 4.0625 C5.17133778 3.33187904 2.60487898 2.62517096 0 2 C0 1.34 0 0.68 0 0 Z " fill="#7198BF" transform="translate(471,185)"/>
<path d="M0 0 C0 0.66 0 1.32 0 2 C-0.66 2 -1.32 2 -2 2 C-2.33 2.99 -2.66 3.98 -3 5 C-4.9375 5.8125 -4.9375 5.8125 -7 6 C-7.66 5.34 -8.32 4.68 -9 4 C-2.25 0 -2.25 0 0 0 Z " fill="#D1E7EE" transform="translate(472,552)"/>
<path d="M0 0 C0.66 0.33 1.32 0.66 2 1 C-0.54456151 3.96865509 -3.48994665 5.3619751 -7 7 C-7.66 6.34 -8.32 5.68 -9 5 C-7.54735962 4.1361871 -6.0876837 3.28419546 -4.625 2.4375 C-3.40683594 1.72400391 -3.40683594 1.72400391 -2.1640625 0.99609375 C-1.44992187 0.66738281 -0.73578125 0.33867188 0 0 Z " fill="#D1E6EF" transform="translate(510,529)"/>
<path d="M0 0 C4.55737263 0.43820891 7.57653445 0.85041169 11 4 C9.4375 4.75 9.4375 4.75 7 5 C4.49713591 3.86915563 2.32992278 2.47860484 0 1 C0 0.67 0 0.34 0 0 Z " fill="#265A7F" transform="translate(344,522)"/>
<path d="M0 0 C-1.62170379 1.00533667 -3.24747237 2.00411907 -4.875 3 C-6.23238281 3.8353125 -6.23238281 3.8353125 -7.6171875 4.6875 C-10 6 -10 6 -12 6 C-12 5.34 -12 4.68 -12 4 C-9 2 -9 2 -6 2 C-6 1.34 -6 0.68 -6 0 C-3.50907189 -1.24546405 -2.58919267 -0.7767578 0 0 Z " fill="#1E5277" transform="translate(558,502)"/>
<path d="M0 0 C1.12588014 0.95729916 2.2506715 1.91587895 3.375 2.875 C4.00148437 3.40867187 4.62796875 3.94234375 5.2734375 4.4921875 C6.55836651 5.61432007 7.79371975 6.79371975 9 8 C8.01 8.33 7.02 8.66 6 9 C0.77678571 4.17857143 0.77678571 4.17857143 0 0 Z " fill="#DAEFF5" transform="translate(226,452)"/>
<path d="M0 0 C-0.66 1.65 -1.32 3.3 -2 5 C-4.64 5 -7.28 5 -10 5 C-3.40909091 0 -3.40909091 0 0 0 Z " fill="#22587C" transform="translate(510,447)"/>
<path d="M0 0 C0.99 0.33 1.98 0.66 3 1 C3.185625 2.2065625 3.185625 2.2065625 3.375 3.4375 C3.58125 4.283125 3.7875 5.12875 4 6 C4.66 6.33 5.32 6.66 6 7 C5.01 7.99 4.02 8.98 3 10 C0 3.375 0 3.375 0 0 Z " fill="#759DC1" transform="translate(219,437)"/>
<path d="M0 0 C-1.03491649 2.82249951 -1.69915265 3.83374226 -4.375 5.3125 C-7.16653942 6.04361747 -8.30861211 5.79596365 -11 5 C-9.54462432 4.16151196 -8.08559627 3.32936066 -6.625 2.5 C-5.81289063 2.0359375 -5.00078125 1.571875 -4.1640625 1.09375 C-2 0 -2 0 0 0 Z " fill="#256A93" transform="translate(557,254)"/>
<path d="M0 0 C0.66 0.33 1.32 0.66 2 1 C1.375 2.875 1.375 2.875 0 5 C-3.125 6.25 -3.125 6.25 -6 7 C-6.66 6.34 -7.32 5.68 -8 5 C-6.71475739 4.13619741 -5.42157581 3.28419631 -4.125 2.4375 C-3.04605469 1.72400391 -3.04605469 1.72400391 -1.9453125 0.99609375 C-1.30335938 0.66738281 -0.66140625 0.33867188 0 0 Z " fill="#799EC4" transform="translate(388,101)"/>
<path d="M0 0 C2.97 1.65 5.94 3.3 9 5 C8.67 5.66 8.34 6.32 8 7 C5.125 6.3125 5.125 6.3125 2 5 C0.625 2.375 0.625 2.375 0 0 Z " fill="#E0F2F7" transform="translate(326,512)"/>
<path d="M0 0 C0.99 0.33 1.98 0.66 3 1 C2.6875 2.875 2.6875 2.875 2 5 C1.01 5.66 0.02 6.32 -1 7 C-1.99 6.67 -2.98 6.34 -4 6 C-2.68 4.02 -1.36 2.04 0 0 Z " fill="#235A81" transform="translate(554,401)"/>
<path d="M0 0 C-1.70625501 2.78388975 -2.47626739 3.85384206 -5.6875 4.75 C-6.8321875 4.87375 -6.8321875 4.87375 -8 5 C-8.66 4.01 -9.32 3.02 -10 2 C-8.71211992 1.46987262 -7.41953322 0.9511671 -6.125 0.4375 C-5.40570313 0.14746094 -4.68640625 -0.14257812 -3.9453125 -0.44140625 C-2 -1 -2 -1 0 0 Z " fill="#0A5F96" transform="translate(503,288)"/>
<path d="M0 0 C0.99 0.33 1.98 0.66 3 1 C0.81482901 3.40575607 -1.25919671 4.79535581 -4.1875 6.1875 C-4.90292969 6.53167969 -5.61835937 6.87585938 -6.35546875 7.23046875 C-6.89816406 7.48441406 -7.44085937 7.73835938 -8 8 C-7.67 7.01 -7.34 6.02 -7 5 C-5 4.33333333 -3 3.66666667 -1 3 C-0.67 2.01 -0.34 1.02 0 0 Z " fill="#1E5276" transform="translate(567,493)"/>
<path d="M0 0 C0.99 0 1.98 0 3 0 C3.66 3.3 4.32 6.6 5 10 C2.08772731 6.71195019 0.50298788 4.40114397 0 0 Z " fill="#DFF1F8" transform="translate(300,378)"/>
<path d="M0 0 C4.26086957 6.39130435 4.26086957 6.39130435 3.625 10.3125 C3.41875 10.869375 3.2125 11.42625 3 12 C0.05413171 7.58119757 -0.0985616 5.32232661 0 0 Z " fill="#7EA2C3" transform="translate(296,368)"/>
<path d="M0 0 C1.31223496 3.93670488 0.24296256 6.12488144 -1 10 C-1.66 10 -2.32 10 -3 10 C-3.33 10.66 -3.66 11.32 -4 12 C-3.45660208 7.43545749 -2.20536179 4.0271824 0 0 Z " fill="#81A5C5" transform="translate(222,204)"/>
<path d="M0 0 C1.15224028 0.92961422 2.29659176 1.8690125 3.4375 2.8125 C4.07558594 3.33457031 4.71367188 3.85664063 5.37109375 4.39453125 C7 6 7 6 8 9 C7.01 9 6.02 9 5 9 C3.61328125 7.5390625 3.61328125 7.5390625 2.3125 5.625 C1.65701172 4.68527344 1.65701172 4.68527344 0.98828125 3.7265625 C0 2 0 2 0 0 Z " fill="#7B9FC1" transform="translate(635,194)"/>
<path d="M0 0 C4.30764815 1.56641751 8.06171464 3.68336156 12 6 C9 7 9 7 6 6 C6 5.34 6 4.68 6 4 C4.02 3.34 2.04 2.68 0 2 C0 1.34 0 0.68 0 0 Z " fill="#759ABD" transform="translate(470,98)"/>
<path d="M0 0 C-3.96 1.32 -7.92 2.64 -12 4 C-11.67 2.68 -11.34 1.36 -11 0 C-3.375 -1.125 -3.375 -1.125 0 0 Z " fill="#DAECF7" transform="translate(424,84)"/>
<path d="M0 0 C0.8353125 0.433125 0.8353125 0.433125 1.6875 0.875 C4.08494645 2.0413253 6.51596939 3.0339881 9 4 C7.4375 5.25 7.4375 5.25 5 6 C2.42998985 4.93237266 0.3469597 3.53455057 -2 2 C-1.34 1.34 -0.68 0.68 0 0 Z " fill="#295C81" transform="translate(382,542)"/>
<path d="M0 0 C0.66 0.33 1.32 0.66 2 1 C-0.12121657 3.33333823 -2.01594365 4.9148886 -5 6 C-7.12890625 5.546875 -7.12890625 5.546875 -9 5 C-7.54735962 4.1361871 -6.0876837 3.28419546 -4.625 2.4375 C-3.40683594 1.72400391 -3.40683594 1.72400391 -2.1640625 0.99609375 C-1.44992187 0.66738281 -0.73578125 0.33867187 0 0 Z " fill="#175890" transform="translate(414,335)"/>
<path d="M0 0 C4.455 0.99 4.455 0.99 9 2 C8.34 3.32 7.68 4.64 7 6 C5.83054208 5.19152271 4.66449539 4.37810888 3.5 3.5625 C2.8503125 3.11003906 2.200625 2.65757812 1.53125 2.19140625 C1.0259375 1.79824219 0.520625 1.40507812 0 1 C0 0.67 0 0.34 0 0 Z " fill="#7CA1C5" transform="translate(509,203)"/>
<path d="M0 0 C2.97 1.98 2.97 1.98 6 4 C5.67 4.99 5.34 5.98 5 7 C3.02 5.35 1.04 3.7 -1 2 C-0.67 1.34 -0.34 0.68 0 0 Z " fill="#D9EDF5" transform="translate(342,433)"/>
<path d="M0 0 C3.37503669 1.1858237 5.64722731 2.27573689 8 5 C3.77471908 5 2.95481492 4.74375671 0 2 C0 1.34 0 0.68 0 0 Z " fill="#D9F2F9" transform="translate(510,369)"/>
<path d="M0 0 C-0.33 0.66 -0.66 1.32 -1 2 C-1.66 2 -2.32 2 -3 2 C-3.33 2.99 -3.66 3.98 -4 5 C-5.32 4.01 -6.64 3.02 -8 2 C-4.77208445 -0.1519437 -3.71599191 -0.20086443 0 0 Z " fill="#0F619C" transform="translate(441,322)"/>
<path d="M0 0 C0.33 0.99 0.66 1.98 1 3 C-1.3125 4.5625 -1.3125 4.5625 -4 6 C-4.99 5.67 -5.98 5.34 -7 5 C-4.87219421 2.65941363 -2.88437779 1.29299694 0 0 Z " fill="#E6F9FC" transform="translate(505,280)"/>
<path d="M0 0 C-3.23319447 2.15546298 -5.16896958 2.68074747 -9 3 C-9.99 2.34 -10.98 1.68 -12 1 C-8.0186217 -0.3271261 -4.14954773 -0.06915913 0 0 Z " fill="#D8ECF6" transform="translate(416,183)"/>
<path d="M0 0 C4.3890815 0.51035831 7.33708062 1.52214277 11 4 C9.4375 4.75 9.4375 4.75 7 5 C4.49713591 3.86915563 2.32992278 2.47860484 0 1 C0 0.67 0 0.34 0 0 Z " fill="#E2F3FA" transform="translate(593,168)"/>
<path d="M0 0 C2.64 1.32 5.28 2.64 8 4 C3.23374833 5.19156292 2.12120649 4.3415946 -2 2 C-1.34 1.34 -0.68 0.68 0 0 Z " fill="#749DBF" transform="translate(587,165)"/>
<path d="M0 0 C0.99 0.66 1.98 1.32 3 2 C-1.95 4.475 -1.95 4.475 -7 7 C-7 6.34 -7 5.68 -7 5 C-6.34 5 -5.68 5 -5 5 C-5 4.34 -5 3.68 -5 3 C-2.5 1.375 -2.5 1.375 0 0 Z " fill="#E5F5FB" transform="translate(306,146)"/>
<path d="M0 0 C6.75 0.875 6.75 0.875 9 2 C9 2.99 9 3.98 9 5 C5.9168649 3.80100302 2.93720508 2.52299523 0 1 C0 0.67 0 0.34 0 0 Z " fill="#D9ECF5" transform="translate(461,92)"/>
<path d="M0 0 C0 0.99 0 1.98 0 3 C-1.98 3.66 -3.96 4.32 -6 5 C-6 4.01 -6 3.02 -6 2 C-2.25 0 -2.25 0 0 0 Z " fill="#D5E9F0" transform="translate(609,473)"/>
<path d="M0 0 C0.66 0.33 1.32 0.66 2 1 C-0.06756277 3.7972908 -1.14440371 4.02692273 -4.6875 4.6875 C-5.780625 4.790625 -6.87375 4.89375 -8 5 C-5.45378681 2.99940392 -3.01962385 1.20784954 0 0 Z " fill="#336383" transform="translate(498,452)"/>
<path d="M0 0 C3.96 1.98 3.96 1.98 8 4 C8 4.66 8 5.32 8 6 C5.69 5.34 3.38 4.68 1 4 C0.67 2.68 0.34 1.36 0 0 Z " fill="#E6F7FC" transform="translate(396,386)"/>
<path d="M0 0 C3.25511789 0.56122722 4.99840071 1.33120095 7 4 C7.6875 6.6875 7.6875 6.6875 8 9 C5.06799526 6.14723863 2.35684596 3.34920216 0 0 Z " fill="#6F98BC" transform="translate(538,227)"/>
<path d="M0 0 C3.96 1.98 3.96 1.98 8 4 C7.67 4.66 7.34 5.32 7 6 C5.35 5.67 3.7 5.34 2 5 C2 4.01 2 3.02 2 2 C1.34 2 0.68 2 0 2 C0 1.34 0 0.68 0 0 Z " fill="#D6EBF3" transform="translate(357,530)"/>
<path d="M0 0 C6.15234375 0.5859375 6.15234375 0.5859375 8 1 C8.33 1.66 8.66 2.32 9 3 C7.3125 3.75 7.3125 3.75 5 4 C2.25 2.0625 2.25 2.0625 0 0 Z " fill="#23597D" transform="translate(262,475)"/>
<path d="M0 0 C0.66 0 1.32 0 2 0 C2.33 1.65 2.66 3.3 3 5 C3.99 5.33 4.98 5.66 6 6 C5.67 6.99 5.34 7.98 5 9 C0 3.375 0 3.375 0 0 Z " fill="#2A597E" transform="translate(223,445)"/>
<path d="M0 0 C2.96175123 0.61277612 4.38058783 1.25372522 7 3 C6.67 3.99 6.34 4.98 6 6 C3.97945196 4.35830472 1.97956942 2.69088222 0 1 C0 0.67 0 0.34 0 0 Z " fill="#20547A" transform="translate(382,374)"/>
<path d="M0 0 C0.66 0 1.32 0 2 0 C0.7874262 3.72433382 -0.50859979 7.37802806 -2 11 C-2.66 9.68 -3.32 8.36 -4 7 C-3.525625 6.401875 -3.05125 5.80375 -2.5625 5.1875 C-0.83534256 2.99617076 -0.83534256 2.99617076 0 0 Z " fill="#E1F4FB" transform="translate(368,291)"/>
<path d="M0 0 C-6.75 4 -6.75 4 -9 4 C-8 1 -8 1 -6.1875 -0.25 C-3.66056586 -1.11637742 -2.47778006 -0.88492145 0 0 Z " fill="#D5F2F9" transform="translate(541,263)"/>
<path d="M0 0 C5.94 0.99 5.94 0.99 12 2 C11.34 2.66 10.68 3.32 10 4 C8.25 3.75 8.25 3.75 6 3 C4.9275 2.649375 3.855 2.29875 2.75 1.9375 C1.8425 1.628125 0.935 1.31875 0 1 C0 0.67 0 0.34 0 0 Z " fill="#E1F4FC" transform="translate(453,183)"/>
<path d="M0 0 C6.75 0.75 6.75 0.75 9 3 C7.3125 3.75 7.3125 3.75 5 4 C2.25 2.0625 2.25 2.0625 0 0 Z " fill="#2C5F83" transform="translate(269,479)"/>
<path d="M0 0 C2.9375 0.375 2.9375 0.375 6 1 C6.33 1.66 6.66 2.32 7 3 C5.1875 3.6875 5.1875 3.6875 3 4 C1.25 2.625 1.25 2.625 0 1 C0 0.67 0 0.34 0 0 Z " fill="#1C557D" transform="translate(247,465)"/>
<path d="M0 0 C1.27875 -0.061875 2.5575 -0.12375 3.875 -0.1875 C4.95394531 -0.23970703 4.95394531 -0.23970703 6.0546875 -0.29296875 C6.69664062 -0.19628906 7.33859375 -0.09960938 8 0 C8.66 0.99 9.32 1.98 10 3 C3.375 2.25 3.375 2.25 0 0 Z " fill="#C9E2EC" transform="translate(389,461)"/>
<path d="M0 0 C1.11375 0.556875 1.11375 0.556875 2.25 1.125 C2.25 1.785 2.25 2.445 2.25 3.125 C-2.205 2.135 -2.205 2.135 -6.75 1.125 C-2.75 -0.875 -2.75 -0.875 0 0 Z " fill="#D5ECF3" transform="translate(386.75,457.875)"/>
<path d="M0 0 C0.33 0 0.66 0 1 0 C2.125 7.75 2.125 7.75 1 10 C0.34 10 -0.32 10 -1 10 C-0.67 6.7 -0.34 3.4 0 0 Z " fill="#D8EBF6" transform="translate(292,296)"/>
<path d="M0 0 C5.75 1.75 5.75 1.75 8 4 C6.25 4.6875 6.25 4.6875 4 5 C1.75 3.6875 1.75 3.6875 0 2 C0 1.34 0 0.68 0 0 Z " fill="#E4F5FB" transform="translate(486,192)"/>
<path d="M0 0 C3.93673644 1.31224548 6.22719294 2.91910327 9 6 C5.51669784 5.35494404 2.90567134 4.01782732 0 2 C0 1.34 0 0.68 0 0 Z " fill="#769ABF" transform="translate(626,188)"/>
<path d="M0 0 C3.45925163 1.2491742 6.14693203 2.67527795 9 5 C5.26512223 4.5020163 3.18762365 4.12508244 0 2 C0 1.34 0 0.68 0 0 Z " fill="#759BBE" transform="translate(614,181)"/>
</svg>
