<?xml version="1.0" encoding="UTF-8"?>
<svg version="1.1" xmlns="http://www.w3.org/2000/svg" width="626" height="626">
<path d="M0 0 C206.58 0 413.16 0 626 0 C626 206.58 626 413.16 626 626 C419.42 626 212.84 626 0 626 C0 419.42 0 212.84 0 0 Z " fill="#FDFDFD" transform="translate(0,0)"/>
<path d="M0 0 C0.83176474 -0.00265183 1.66352947 -0.00530365 2.5204992 -0.00803584 C5.31994586 -0.01572225 8.11934861 -0.01628776 10.91880512 -0.01688576 C12.94127131 -0.02090079 14.96373669 -0.02533908 16.98620111 -0.03016531 C22.55377038 -0.04213173 28.12133099 -0.04777941 33.6889106 -0.05234647 C39.68975749 -0.05830215 45.69059401 -0.06991194 51.69143391 -0.08063698 C65.50196973 -0.10400043 79.31250872 -0.11856652 93.12305772 -0.13086639 C97.90137574 -0.13512218 102.67969337 -0.13968793 107.45801091 -0.14444971 C132.86948762 -0.16970865 158.28096498 -0.19175478 183.69245148 -0.20417786 C189.57839364 -0.20709913 195.46433578 -0.21006667 201.3502779 -0.21308327 C202.44714651 -0.21363963 202.44714651 -0.21363963 203.56617408 -0.21420723 C227.27728583 -0.22636396 250.98832336 -0.25731141 274.69940025 -0.29900479 C299.07903386 -0.34179555 323.45862827 -0.36841915 347.83830045 -0.37365257 C351.28190695 -0.37439301 354.7255134 -0.37530369 358.16911983 -0.37631035 C358.84683999 -0.37650096 359.52456014 -0.37669158 360.22281727 -0.37688797 C371.12662272 -0.38040062 382.03033515 -0.40069395 392.93410645 -0.42710699 C403.89492043 -0.45325779 414.85564179 -0.46056215 425.81648471 -0.4500057 C431.75392738 -0.4448127 437.69107436 -0.44774802 443.62847424 -0.47247124 C449.06489044 -0.49491963 454.50079778 -0.49425776 459.93722264 -0.47526737 C461.90292474 -0.47246124 463.86866103 -0.4780998 465.83430805 -0.4930803 C484.55823925 -0.62704293 484.55823925 -0.62704293 492.74456501 5.13701439 C493.67269001 5.71451439 494.60081501 6.29201439 495.55706501 6.88701439 C501.65703766 13.16127197 503.871616 20.05276611 503.86481953 28.61632347 C503.86567395 29.26494244 503.86652838 29.91356142 503.86740869 30.58183551 C503.86905442 32.75292593 503.863557 34.92393891 503.8580904 37.0950222 C503.85780831 38.65224264 503.8579667 40.20946322 503.85853291 41.76668358 C503.85882001 45.99359627 503.85293721 50.22048064 503.84595895 54.44738674 C503.83971107 58.86498496 503.83912047 63.28258382 503.83793354 67.70018578 C503.83482446 76.06531031 503.82661677 84.43042179 503.81658405 92.79554057 C503.80540978 102.31902955 503.79990915 111.84251915 503.79488862 121.36601305 C503.78443382 140.95635412 503.76684255 160.54668343 503.74456501 180.13701439 C502.95952595 179.65490501 502.17448689 179.17279564 501.36565876 178.67607689 C500.31507282 178.04443626 499.26448689 177.41279564 498.18206501 176.76201439 C497.14952595 176.13553001 496.11698689 175.50904564 495.05315876 174.86357689 C488.78311146 171.59160415 483.08054001 170.84279775 476.15771008 170.87695217 C475.3144062 170.8731465 474.47110232 170.86934083 473.60224378 170.86541983 C470.7755067 170.85511073 467.94897069 170.85900899 465.12222004 170.86285973 C463.07541588 170.85840696 461.02861345 170.85309278 458.98181355 170.846991 C453.35613152 170.83280524 447.73050473 170.83114782 442.10480738 170.83158791 C436.03781045 170.82994021 429.97083632 170.81687457 423.90385151 170.80539513 C411.32757517 170.78373139 398.75131633 170.77513867 386.17502578 170.77036012 C385.4916397 170.77009895 384.80825362 170.76983777 384.10415888 170.76956868 C383.41938203 170.76930841 382.73460517 170.76904813 382.02907751 170.76877997 C374.43677228 170.76569629 366.84447052 170.75919102 359.2521677 170.75256729 C336.31509477 170.73292063 313.3780256 170.71651567 290.44094372 170.71369076 C289.70745212 170.7135967 288.97396052 170.71350264 288.21824191 170.71340572 C285.24578987 170.71302725 282.27333782 170.71266325 279.30088578 170.71230275 C277.06368771 170.71203103 274.82648964 170.71175435 272.58929157 170.71147728 C271.48040645 170.71134525 271.48040645 170.71134525 270.34911961 170.71121054 C247.12673062 170.70830578 223.90442491 170.68621522 200.68206501 170.64995384 C174.58550288 170.60920538 148.48899749 170.58553203 122.39240181 170.58523124 C119.60822017 170.58513442 116.82403854 170.58496771 114.03985691 170.58475113 C113.35433312 170.58470701 112.66880934 170.5846629 111.9625121 170.58461745 C100.94225564 170.58349873 89.92208277 170.56610646 78.9018532 170.54293181 C67.82024748 170.52006088 56.73873117 170.51630555 45.6571043 170.53048111 C39.65649851 170.53765207 33.65618161 170.53678394 27.65560818 170.51407051 C22.15804555 170.49346067 16.66099353 170.49610018 11.16343631 170.51694535 C9.17890134 170.52043634 7.19432938 170.51554694 5.20984291 170.50124092 C-8.45479076 170.409114 -20.00740548 171.45996305 -31.25543499 180.13701439 C-31.37238051 159.57876607 -31.4604781 139.02057281 -31.51449585 118.46205902 C-31.54024702 108.91577199 -31.57533836 99.36969197 -31.63263226 89.82353783 C-31.68256193 81.5004035 -31.71474844 73.17741915 -31.72587746 64.85413921 C-31.73238008 60.44939277 -31.74759816 56.04507527 -31.78408527 51.64046669 C-31.81819624 47.4887927 -31.82845779 43.33772154 -31.8209734 39.18592072 C-31.82234124 37.66783362 -31.83218384 36.14972494 -31.85146236 34.63175964 C-31.98472137 23.59119712 -30.47119925 15.50704713 -22.81793499 7.19951439 C-15.92391271 0.84385393 -9.05598377 -0.0140553 0 0 Z " fill="#000000" transform="translate(76.2554349899292,300.8629856109619)"/>
<path d="M0 0 C1.0064513 -0.00170885 2.0129026 -0.0034177 3.04985243 -0.00517833 C6.41396896 -0.00846611 9.77788495 0.00251887 13.14198303 0.01345825 C15.55677791 0.01402252 17.97157312 0.0137055 20.3863678 0.01257324 C25.5809923 0.01211817 30.77557167 0.01778195 35.97018242 0.02904892 C43.4806403 0.04532826 50.99107391 0.05051441 58.50154752 0.0530249 C70.68785883 0.05739819 82.87414331 0.07069734 95.06044006 0.08963013 C106.89572516 0.10799841 118.73100296 0.12215027 130.56629944 0.13064575 C131.29627429 0.1311712 132.02624914 0.13169665 132.77834444 0.13223802 C136.44054742 0.13484816 140.10275044 0.13737556 143.76495349 0.13986182 C174.12901184 0.16058291 204.49303765 0.19594752 234.85707092 0.24050903 C234.86515778 1.45049561 234.87324463 2.66048218 234.88157654 3.90713501 C234.95914779 15.32446435 235.04691483 26.74167613 235.14459801 38.15885162 C235.19448887 44.02816923 235.24081962 49.89746947 235.27894592 55.76687622 C235.31588968 61.43389389 235.36227443 67.10076365 235.41513443 72.76765442 C235.43363008 74.9268992 235.44875576 77.08617562 235.46041489 79.24546814 C235.47736 82.27586937 235.50641507 85.30593541 235.53822327 88.33621216 C235.54038345 89.22382233 235.54254364 90.1114325 235.54476929 91.02593994 C235.75194166 106.53275014 242.10794613 121.10409903 252.79847717 132.26785278 C268.46485589 146.73156001 285.15771509 147.84218824 305.43910217 147.84988403 C307.70739917 147.86488706 309.97568533 147.88161861 312.24395752 147.8999939 C318.17365559 147.94344108 324.10320634 147.96361618 330.03303528 147.97872925 C337.16944589 148.00184614 344.3056959 148.05424945 351.44197845 148.10166931 C362.24705089 148.17022646 373.05166351 148.20188381 383.85707092 148.24050903 C383.85707092 179.26050903 383.85707092 210.28050903 383.85707092 242.24050903 C243.60707092 242.24050903 103.35707092 242.24050903 -41.14292908 242.24050903 C-41.14292908 22.77099684 -41.14292908 22.77099684 -30.22105408 11.20535278 C-21.06357335 2.84648956 -12.21365398 -0.07627125 0 0 Z " fill="#000000" transform="translate(141.14292907714844,45.759490966796875)"/>
<path d="M0 0 C140.25 0 280.5 0 425 0 C425 71 425 71 417 81 C416.443125 81.825 415.88625 82.65 415.3125 83.5 C407.89250053 91.52162105 397.80706473 95.66791753 386.97195989 96.12880117 C385.35304303 96.13148402 385.35304303 96.13148402 383.70142078 96.13422108 C382.44920256 96.13867892 381.19698434 96.14313676 379.90682012 96.14772969 C378.52502301 96.14764041 377.14322591 96.14745059 375.76142883 96.14717102 C374.28741061 96.15047251 372.81339329 96.15419868 371.33937711 96.1583125 C367.29240515 96.16830784 363.24544802 96.1720453 359.19846547 96.17470181 C354.83226019 96.17861208 350.46606658 96.18818976 346.09986877 96.19691467 C335.55866195 96.21665648 325.0174542 96.22674143 314.47623351 96.23564246 C309.51012232 96.24002825 304.54401219 96.24539422 299.57790184 96.25063133 C283.0669149 96.26763971 266.55592862 96.28213423 250.04493427 96.28938007 C245.76245943 96.2912899 241.47998459 96.29321025 237.19750977 96.29516602 C236.1331481 96.29564976 235.06878644 96.2961335 233.97217139 96.2966319 C216.72725827 96.30493362 199.48241448 96.33027469 182.23753164 96.36274669 C164.52660282 96.39582407 146.81570925 96.41382936 129.10474938 96.41702431 C119.16304897 96.41918855 109.22144972 96.4279248 99.27977943 96.45348549 C90.81403617 96.47520156 82.34841867 96.48323834 73.88265071 96.47351871 C69.56530484 96.46897694 65.24821842 96.47085312 60.9309082 96.49028015 C56.97360319 96.50793312 53.0167465 96.50689708 49.05943658 96.49138286 C47.63277546 96.48901004 46.20608312 96.49331342 44.77946965 96.50521151 C31.0497742 96.61256686 21.19376371 93.62926642 11.12890625 84.2578125 C-9.07944216 63.31066426 0 22.10889496 0 0 Z " fill="#000000" transform="translate(100,484)"/>
<path d="M0 0 C10.93507454 6.74985177 18.60558293 16.18756269 21.71484375 28.67578125 C22.13177363 32.49045 22.15955398 36.2705298 22.1484375 40.10546875 C22.15367935 41.17644806 22.1589212 42.24742737 22.1643219 43.3508606 C22.17071362 45.60482928 22.1694423 47.85883145 22.16088867 50.11279297 C22.15238511 53.53414201 22.18117201 56.95381564 22.21289062 60.375 C22.21450323 62.57682242 22.21392397 64.77864776 22.2109375 66.98046875 C22.22217148 67.98915009 22.23340546 68.99783142 22.24497986 70.03707886 C22.17503305 77.27828234 20.52976355 83.03633839 17.71484375 89.67578125 C17.04622233 91.34166469 16.37898266 93.0081057 15.71484375 94.67578125 C16.14796875 95.11148438 16.58109375 95.5471875 17.02734375 95.99609375 C21.57325083 100.85768882 21.57325083 100.85768882 22.27734375 104.92578125 C21.71484375 107.67578125 21.71484375 107.67578125 20.65234375 109.55078125 C17.47652245 111.39480652 15.3034736 111.23263761 11.71484375 110.67578125 C9.59163844 108.84908341 8.32326305 107.01530023 6.71484375 104.67578125 C4.31294174 105.60473987 1.98126875 106.53375703 -0.29296875 107.74609375 C-9.38897446 112.27731431 -20.56244885 111.95589325 -30.3828125 110.0859375 C-40.65249005 106.55421004 -49.56656847 97.01777527 -54.40112305 87.47241211 C-58.28321538 77.65343903 -57.85538364 67.65172904 -57.75170898 57.23925781 C-57.72265738 54.05090506 -57.73114964 50.86421088 -57.74414062 47.67578125 C-57.73790408 45.62108578 -57.7295138 43.56639549 -57.71875 41.51171875 C-57.72168564 40.57290863 -57.72462128 39.63409851 -57.72764587 38.6668396 C-57.56669677 27.22788851 -53.98991228 16.45620772 -46.09765625 7.98828125 C-33.58642228 -3.75807378 -15.69512452 -7.64303046 0 0 Z " fill="#F5F5F5" transform="translate(330.28515625,332.32421875)"/>
<path d="M0 0 C6.67302235 5.48449359 12.71524422 11.57406488 18.81030273 17.6809082 C19.99337975 18.86262842 21.176669 20.04413618 22.3601532 21.22544861 C25.55618664 24.41694383 28.74907397 27.61156891 31.94124866 30.80692315 C35.28428852 34.15250175 38.62977535 37.49563202 41.97486877 40.8391571 C47.58424757 46.44672014 53.19152198 52.05638095 58.79760742 57.66723633 C65.28682058 64.16190689 71.77964986 70.65294566 78.27433819 77.14214069 C83.85164303 82.71491646 89.42700803 88.28962735 95.00073773 93.8659789 C98.32960481 97.19640785 101.65915073 100.52615057 104.99044609 103.85415077 C108.11584848 106.97667691 111.23881823 110.1016153 114.35988045 113.22847939 C115.508765 114.37869218 116.65851245 115.52804379 117.80915833 116.6764946 C119.37223159 118.23685928 120.93223013 119.80023223 122.49143982 121.36445618 C123.80518412 122.67876602 123.80518412 122.67876602 125.14546871 124.01962757 C127 126 127 126 127 127 C115.71624283 127.06972863 104.43253753 127.12292697 93.14860821 127.15543652 C87.90815773 127.17104505 82.66785545 127.19219486 77.42749023 127.22631836 C72.36353424 127.25908412 67.29972016 127.27688915 62.23566628 127.28463173 C60.3105121 127.29014447 58.38536506 127.30090897 56.46027184 127.31719017 C39.97650421 127.45096511 25.18824884 126.12254908 12.625 114.125 C0.16512221 100.622561 -0.58674023 85.75895699 -0.390625 68.26171875 C-0.38314901 66.28490272 -0.37746251 64.30807919 -0.37347412 62.33125305 C-0.35832463 57.17073496 -0.31913696 52.0106793 -0.2746582 46.8503418 C-0.23347287 41.56760917 -0.21541379 36.2848006 -0.1953125 31.00195312 C-0.1526307 20.66776745 -0.08451147 10.33392243 0 0 Z " fill="#000000" transform="translate(389,55)"/>
<path d="M0 0 C1.20665217 -0.01043099 2.41330435 -0.02086198 3.65652174 -0.03160906 C4.99724656 -0.02296062 6.33796899 -0.01393399 7.678689 -0.00457001 C9.10164039 -0.00917763 10.52458702 -0.01552961 11.94752365 -0.02347898 C15.86250519 -0.04021507 19.77709795 -0.03190673 23.69208109 -0.01953411 C27.91235021 -0.01050325 32.13255133 -0.02444361 36.35280704 -0.0354538 C44.622458 -0.05326513 52.89196397 -0.0493873 61.16162067 -0.03780323 C67.88155628 -0.02877883 74.60145118 -0.0275406 81.32139111 -0.0318985 C82.27690516 -0.03251143 83.23241921 -0.03312436 84.21688824 -0.03375587 C86.15785846 -0.03503474 88.09882867 -0.03633159 90.03979886 -0.03764623 C108.25206619 -0.04905985 126.46425305 -0.03592641 144.67650718 -0.01444477 C160.30984822 0.00342406 175.94307045 0.00032539 191.57640934 -0.01811981 C209.72084338 -0.03951767 227.86520683 -0.04795812 246.00965172 -0.03567076 C247.9438871 -0.03439653 249.8781225 -0.03313905 251.8123579 -0.0318985 C252.76409243 -0.0312814 253.71582696 -0.03066429 254.69640194 -0.03002849 C261.40921842 -0.02657212 268.1219902 -0.03241017 274.83479977 -0.04181671 C283.01422567 -0.05302616 291.19349799 -0.05001901 299.37290626 -0.02869374 C303.5477138 -0.01816863 307.72226514 -0.01408616 311.89707088 -0.02729034 C315.71724233 -0.03919026 319.53691955 -0.03269189 323.35704602 -0.01138014 C324.74058136 -0.00690377 326.12415827 -0.00920356 327.507667 -0.01888329 C329.38565723 -0.03101696 331.26376407 -0.01619914 333.14172363 0 C334.18568485 0.00064941 335.22964607 0.00129882 336.30524248 0.00196791 C339.87715416 0.63513718 341.57020798 1.98234079 344.13378239 4.50336456 C344.69628239 7.00336456 344.69628239 7.00336456 344.13378239 9.50336456 C342.01482778 12.2057165 340.83376862 13.37454757 337.41546625 14.00361055 C335.83902844 14.00377156 335.83902844 14.00377156 334.23074341 14.00393581 C332.40846486 14.01865725 332.40846486 14.01865725 330.54937261 14.03367609 C329.19940911 14.02433673 327.84944817 14.01462115 326.49948978 14.00457001 C325.06686429 14.00846165 323.63424266 14.01410099 322.20163018 14.02134091 C318.25997645 14.03613331 314.31872068 14.02589216 310.37707961 14.01160419 C306.12822549 14.00051975 301.87942837 14.01242855 297.63057804 14.02144623 C289.30544369 14.03539764 280.98046075 14.0278087 272.65533357 14.01277065 C262.96679251 13.99593403 253.27828942 13.9991178 243.58973826 14.00286473 C226.30726983 14.00874671 209.02487421 13.99455806 191.74242496 13.9699173 C174.95984512 13.94599182 158.17736255 13.93891405 141.39476871 13.94940948 C123.13243128 13.9608098 104.87013886 13.96276002 86.60780197 13.94831139 C84.66180679 13.9467855 82.71581159 13.94526514 80.7698164 13.94375038 C79.33350014 13.94261366 79.33350014 13.94261366 77.86816738 13.94145397 C71.10933705 13.93670458 64.35052677 13.93856719 57.59169674 13.94281578 C49.35953214 13.9477342 41.12745964 13.94179491 32.89531618 13.92192148 C28.69244441 13.91202635 24.4897131 13.9069682 20.28683376 13.914814 C16.44340078 13.9218422 12.60025193 13.91513388 8.75685657 13.89721037 C7.36259016 13.8931472 5.96829809 13.89419681 4.57404106 13.90072923 C2.6863629 13.90882006 0.79862997 13.89682357 -1.08901978 13.8836813 C-2.13981596 13.88265217 -3.19061215 13.88162304 -4.27325064 13.88056272 C-6.86621761 13.50336456 -6.86621761 13.50336456 -8.69994873 12.16318852 C-10.54832341 9.53259739 -10.31189035 7.62307373 -9.86621761 4.50336456 C-6.87417296 0.61185211 -4.82693951 0.00300313 0 0 Z " fill="#F3F3F3" transform="translate(145.86621761322021,229.49663543701172)"/>
<path d="M0 0 C5.23452746 3.83672546 8.70107994 8.54678641 11.12109375 14.5546875 C11.5513867 18.32715227 11.51784213 22.07378264 11.484375 25.8671875 C11.48512276 27.49781128 11.48512276 27.49781128 11.48588562 29.16137695 C11.4835505 31.45428297 11.47385523 33.7471918 11.45727539 36.04003906 C11.43367552 39.54255178 11.43672013 43.0443029 11.44335938 46.546875 C11.43778234 48.77865036 11.4306723 51.01042252 11.421875 53.2421875 C11.42324211 54.80803589 11.42324211 54.80803589 11.42463684 56.40551758 C11.37503558 61.51143395 11.16480209 65.77874605 9.12109375 70.5546875 C4.5306347 66.09924196 4.5306347 66.09924196 2.69921875 63.6640625 C-0.50147974 59.37143271 -0.50147974 59.37143271 -5.62890625 57.9921875 C-8.95469435 58.24637092 -8.95469435 58.24637092 -10.87890625 60.5546875 C-11.14856143 64.86917036 -10.55017183 66.70758371 -7.8359375 70.1328125 C-6.22187095 71.88801365 -4.58033674 73.61841972 -2.91015625 75.3203125 C-0.87890625 77.5546875 -0.87890625 77.5546875 0.12109375 80.5546875 C-1.12626192 81.2056134 -2.37692457 81.85020419 -3.62890625 82.4921875 C-4.325 82.85183594 -5.02109375 83.21148437 -5.73828125 83.58203125 C-12.0888426 86.46759653 -18.37663229 86.32548164 -24.87890625 84.0546875 C-31.80645274 80.99590928 -37.07287051 76.25972111 -40.0703125 69.21875 C-43.00597896 60.67040278 -42.51082258 51.55218577 -42.45532227 42.62084961 C-42.44142101 39.49550546 -42.47564773 36.37314103 -42.51367188 33.24804688 C-42.51462301 31.23437428 -42.51276455 29.22069798 -42.5078125 27.20703125 C-42.52107071 26.28695786 -42.53432892 25.36688446 -42.54798889 24.41893005 C-42.42581873 15.79511073 -39.31337016 9.0171198 -33.56640625 2.6171875 C-24.44109401 -5.65018941 -10.51195236 -6.11039595 0 0 Z " fill="#010101" transform="translate(327.87890625,345.4453125)"/>
<path d="M0 0 C0.9458345 -0.01140015 1.89166901 -0.02280029 2.86616516 -0.0345459 C4.86572832 -0.05340475 6.86535306 -0.06649752 8.86499023 -0.07421875 C11.89875121 -0.09357752 14.92976828 -0.15562673 17.96289062 -0.21875 C36.95393377 -0.42512854 36.95393377 -0.42512854 44.23828125 6.40625 C46.67578125 8.90625 46.67578125 8.90625 48.23828125 11.40625 C48.81578125 12.293125 49.39328125 13.18 49.98828125 14.09375 C51.64491894 18.48383988 52.05353321 22.76251089 51.23828125 27.40625 C49.29010734 29.97920272 48.56182284 30.35117909 45.30078125 30.90625 C42.23828125 30.40625 42.23828125 30.40625 39.98828125 28.40625 C38.17618428 25.29979805 37.51789791 22.88803045 37.0234375 19.37109375 C35.78472298 16.27122607 34.03808362 15.19513328 31.23828125 13.40625 C28.35916851 12.82980273 25.54227953 12.84496895 22.61328125 12.875 C21.78876465 12.8711731 20.96424805 12.86734619 20.11474609 12.86340332 C18.37661514 12.86068903 16.638443 12.86801642 14.90039062 12.88476562 C12.24646567 12.90618395 9.59524745 12.88494945 6.94140625 12.859375 C5.24869197 12.86201836 3.55597936 12.86714353 1.86328125 12.875 C1.07356934 12.86690308 0.28385742 12.85880615 -0.52978516 12.85046387 C-5.52658781 12.93511418 -8.1384688 13.66426058 -11.76171875 17.40625 C-14.79369271 21.95421094 -14.13014514 26.43033022 -14.13671875 31.78125 C-14.16121094 32.8228125 -14.18570313 33.864375 -14.2109375 34.9375 C-14.26106868 41.01382402 -14.26106868 41.01382402 -11.92578125 46.5078125 C-7.24258382 50.61617703 -3.8303286 50.66052067 2.1484375 50.609375 C3.96159567 50.61993256 5.77474718 50.63169059 7.58789062 50.64453125 C10.43611662 50.65479865 13.28340988 50.65637285 16.1315918 50.63623047 C36.64163344 50.52535571 36.64163344 50.52535571 44.23828125 57.40625 C51.52418254 64.87896927 51.73212097 72.35521508 51.67578125 82.28125 C51.69576172 83.52261719 51.71574219 84.76398438 51.73632812 86.04296875 C51.73244299 93.33926116 51.15756664 98.21053758 47.23828125 104.40625 C46.68140625 105.293125 46.12453125 106.18 45.55078125 107.09375 C40.15492081 112.48961044 34.30423816 114.96401302 26.71531677 115.07533264 C25.82441849 115.06207443 24.9335202 115.04881622 24.015625 115.03515625 C22.59824791 115.03877419 22.59824791 115.03877419 21.15223694 115.04246521 C19.16809869 115.04149187 17.18393154 115.02822204 15.19995117 115.00317383 C12.17988043 114.96879666 9.16273097 114.98256013 6.14257812 115.00195312 C4.20441476 114.99505511 2.26625886 114.98538312 0.328125 114.97265625 C-0.56479752 114.97761612 -1.45772003 114.98257599 -2.37770081 114.98768616 C-9.20711074 114.86063582 -14.52070474 113.19517757 -19.75 108.6953125 C-24.72828467 102.43941494 -27.08550519 97.77542153 -27.16015625 89.67578125 C-26.67869941 86.93336533 -25.98667046 86.04101499 -23.76171875 84.40625 C-20.67124896 84.01994128 -18.67259782 83.8722864 -15.94921875 85.46875 C-14.76171875 87.40625 -14.76171875 87.40625 -14.32421875 90.78125 C-13.68440237 94.90451112 -12.68012693 96.48784182 -9.76171875 99.40625 C-6.07358605 101.90965345 -2.22593392 101.71242873 2.07421875 101.70703125 C2.83119049 101.71131638 3.58816223 101.7156015 4.36807251 101.72001648 C5.96672569 101.72574896 7.56540495 101.72626801 9.1640625 101.72192383 C11.59811416 101.71876965 14.03094274 101.74221473 16.46484375 101.76757812 C18.02213389 101.76985197 19.57942728 101.77055422 21.13671875 101.76953125 C21.8587851 101.778741 22.58085144 101.78795074 23.32479858 101.79743958 C28.03494713 101.75475681 31.22895639 100.8684189 35.23828125 98.40625 C39.39769165 93.9038861 38.71739405 88.18664632 38.67578125 82.40625 C38.69576172 81.42140625 38.71574219 80.4365625 38.73632812 79.421875 C38.73332793 74.98157934 38.71914419 72.20666729 36.3984375 68.34375 C31.7447418 64.16972999 28.28260149 64.13894366 22.29296875 64.16796875 C20.47525304 64.15253877 18.65754458 64.13623439 16.83984375 64.11914062 C13.9829098 64.10274678 11.12650796 64.09371707 8.26953125 64.10083008 C5.50590551 64.10346896 2.74387959 64.07518504 -0.01953125 64.04296875 C-0.86049347 64.05317551 -1.70145569 64.06338226 -2.56790161 64.07389832 C-9.84866353 63.95543067 -15.67538869 61.45847697 -20.8828125 56.30859375 C-21.31722656 55.66019531 -21.75164062 55.01179688 -22.19921875 54.34375 C-22.65167969 53.69277344 -23.10414063 53.04179687 -23.5703125 52.37109375 C-23.96347656 51.72269531 -24.35664063 51.07429688 -24.76171875 50.40625 C-25.28318481 49.5551062 -25.28318481 49.5551062 -25.81518555 48.68676758 C-27.92218147 43.6103041 -27.13140602 37.56992628 -27.13671875 32.15625 C-27.17345703 30.20912109 -27.17345703 30.20912109 -27.2109375 28.22265625 C-27.23742566 19.56102776 -26.65421043 13.84817888 -20.796875 7.1640625 C-20.14589844 6.62523437 -19.49492187 6.08640625 -18.82421875 5.53125 C-18.17582031 4.97695313 -17.52742187 4.42265625 -16.859375 3.8515625 C-11.43666667 0.11524577 -6.38296405 0.05993093 0 0 Z " fill="#F9F9F9" transform="translate(200.76171875,328.59375)"/>
<path d="M0 0 C0.828851 -0.00623996 1.657702 -0.01247993 2.5116697 -0.01890898 C5.29322921 -0.03488309 8.07391776 -0.02221759 10.85548401 -0.00964355 C12.8479412 -0.01506275 14.84039439 -0.02218427 16.83283997 -0.03088379 C22.24815499 -0.04914523 27.66316575 -0.04203759 33.0784862 -0.02936745 C38.74163313 -0.01925301 44.40475369 -0.02862892 50.06790161 -0.03491211 C59.57998846 -0.04219364 69.09195116 -0.03258812 78.60401917 -0.0135498 C89.60471344 0.00821359 100.60511112 0.00117337 111.60579818 -0.02085543 C121.04539513 -0.03900243 130.48490274 -0.04157096 139.92451149 -0.03110075 C145.56465743 -0.02486119 151.20466394 -0.02404284 156.84480095 -0.0372467 C162.14804349 -0.04879411 167.45090344 -0.04079954 172.75410461 -0.01766968 C174.70158312 -0.01237641 176.64909377 -0.01390688 178.59655952 -0.02272034 C181.25312282 -0.03363518 183.90845666 -0.01996164 186.56494141 0 C187.72379613 -0.01338433 187.72379613 -0.01338433 188.90606207 -0.02703905 C192.5846346 0.0266556 194.68504826 0.40674315 197.82837009 2.38343048 C199.84596252 4.50793457 199.84596252 4.50793457 200.40846252 7.00793457 C199.64702949 10.3920814 198.61602044 11.41360134 195.84596252 13.50793457 C192.96977042 13.89859769 190.47748774 14.04436422 187.60253906 14.00914001 C186.34489521 14.01744161 186.34489521 14.01744161 185.06184441 14.02591091 C182.24796585 14.03954145 179.43497059 14.02453539 176.62110901 14.00964355 C174.60570396 14.01342583 172.59030151 14.01892511 170.5749054 14.02601624 C165.09773262 14.03999912 159.62087297 14.0287815 154.14371753 14.01230502 C148.41824761 13.99847582 142.69279626 14.0049121 136.96731567 14.00843811 C127.35267578 14.0111417 117.73816063 13.99765105 108.12355042 13.9744873 C96.9978869 13.94786913 85.87243188 13.94613234 74.74674743 13.95787567 C64.05518826 13.96864329 53.36370472 13.96247485 42.67215157 13.94832039 C38.1167682 13.94255253 33.56144003 13.94264953 29.00605583 13.94738579 C23.64541559 13.95214738 18.28500457 13.94208786 12.92440796 13.92043114 C10.95351497 13.9148522 8.9826 13.91440806 7.0117054 13.919384 C4.3283474 13.92531064 1.64569649 13.91288253 -1.03759766 13.89561462 C-2.21686375 13.90462969 -2.21686375 13.90462969 -3.41995341 13.91382688 C-8.64535511 13.85236934 -8.64535511 13.85236934 -11.13397121 12.16729832 C-12.77524996 9.49739484 -12.59024371 7.56137818 -12.15403748 4.50793457 C-8.89167528 -0.13429912 -5.26918686 -0.06068189 0 0 Z " fill="#F3F3F3" transform="translate(148.15403747558594,167.4920654296875)"/>
<path d="M0 0 C1.2432765 -0.00807831 1.2432765 -0.00807831 2.5116697 -0.01631981 C5.29309152 -0.03064412 8.07404042 -0.02348469 10.85548401 -0.01637268 C12.8479399 -0.02207391 14.84039252 -0.02903721 16.83283997 -0.03717041 C22.2481023 -0.05514424 27.66320297 -0.05392549 33.0784862 -0.04822803 C37.5965543 -0.04514227 42.11459108 -0.05122179 46.63265473 -0.05726677 C57.2898026 -0.07132427 67.94687034 -0.06974052 78.60401917 -0.05836487 C89.60470413 -0.04688213 100.60514535 -0.06095925 111.60579818 -0.08776134 C121.04538678 -0.1099004 130.48489877 -0.11655977 139.92451149 -0.11068493 C145.56466733 -0.1073099 151.2046669 -0.10976671 156.84480095 -0.12693596 C162.14802758 -0.14237438 167.45089244 -0.13848396 172.75410461 -0.11963081 C174.70158887 -0.11593634 176.64909974 -0.1190783 178.59655952 -0.1295166 C181.25310686 -0.14266956 183.90844649 -0.13122999 186.56494141 -0.11352539 C187.33751122 -0.1231304 188.11008104 -0.1327354 188.90606207 -0.14263147 C192.58546948 -0.09209988 194.68409723 0.2859134 197.82837009 2.26275539 C199.84596252 4.38768005 199.84596252 4.38768005 200.40846252 6.88768005 C199.64702949 10.27182689 198.61602044 11.29334683 195.84596252 13.38768005 C192.96977042 13.77834318 190.47748774 13.92410971 187.60253906 13.8888855 C186.34489521 13.89718709 186.34489521 13.89718709 185.06184441 13.9056564 C182.24796585 13.91928693 179.43497059 13.90428087 176.62110901 13.88938904 C174.60570396 13.89317131 172.59030151 13.89867059 170.5749054 13.90576172 C165.09773262 13.9197446 159.62087297 13.90852699 154.14371753 13.8920505 C148.41824761 13.8782213 142.69279626 13.88465758 136.96731567 13.88818359 C127.35267578 13.89088718 117.73816063 13.87739654 108.12355042 13.85423279 C96.9978869 13.82761461 85.87243188 13.82587782 74.74674743 13.83762115 C64.05518826 13.84838878 53.36370472 13.84222033 42.67215157 13.82806587 C38.1167682 13.82229801 33.56144003 13.82239501 29.00605583 13.82713127 C23.64541559 13.83189286 18.28500457 13.82183335 12.92440796 13.80017662 C10.95351497 13.79459768 8.9826 13.79415354 7.0117054 13.79912949 C4.3283474 13.80505612 1.64569649 13.79262802 -1.03759766 13.77536011 C-2.21686375 13.78437518 -2.21686375 13.78437518 -3.41995341 13.79357237 C-8.63140763 13.73227887 -8.63140763 13.73227887 -11.13397121 12.08220005 C-12.89766226 9.15238083 -12.56727898 6.69361211 -12.15403748 3.38768005 C-8.77453533 -0.38551099 -4.72311607 -0.03663671 0 0 Z " fill="#F3F3F3" transform="translate(148.15403747558594,105.61231994628906)"/>
<path d="M0 0 C3 2 3 2 3.36914349 3.80783272 C3.36637811 4.54342352 3.36361273 5.27901432 3.36076355 6.03689575 C3.36488754 6.88106049 3.36901154 7.72522522 3.3732605 8.5949707 C3.36247467 9.522854 3.35168884 10.4507373 3.34057617 11.40673828 C3.34101425 12.38238739 3.34145233 13.3580365 3.34190369 14.36325073 C3.33980794 17.59913917 3.31643971 20.8345142 3.29296875 24.0703125 C3.2873756 26.30947588 3.28310418 28.54864292 3.28010559 30.78781128 C3.26863477 36.68982018 3.23914828 42.59160865 3.20599365 48.49353027 C3.17534097 54.51258359 3.16161053 60.53167243 3.14648438 66.55078125 C3.11428078 78.36728451 3.0630574 90.18362395 3 102 C3.78260696 101.99333817 4.56521393 101.98667633 5.37153625 101.97981262 C12.74337122 101.91972568 20.11508761 101.8740381 27.48710346 101.84456348 C31.2772344 101.8289009 35.06716316 101.80765222 38.85717773 101.77368164 C42.51410601 101.7411087 46.1708397 101.72315145 49.82790184 101.71536827 C51.22378796 101.70982099 52.61966331 101.6989885 54.01546669 101.68280983 C55.9689459 101.66106571 57.92262051 101.65977485 59.8762207 101.65942383 C60.9887471 101.65276199 62.1012735 101.64610016 63.24751282 101.63923645 C66 102 66 102 67.85929871 103.33378601 C69.63987328 105.93465819 69.38243834 107.94049325 69 111 C67.90795898 112.66323853 67.90795898 112.66323853 66 114 C62.92602539 114.38095093 62.92602539 114.38095093 59.09765625 114.38818359 C58.39977997 114.39344055 57.70190369 114.39869751 56.98287964 114.40411377 C54.6758588 114.41731846 52.36952787 114.40857455 50.0625 114.3984375 C48.45971545 114.40045811 46.85693179 114.40336945 45.25415039 114.40713501 C41.8949305 114.41155898 38.5359499 114.40512513 35.17675781 114.39111328 C30.86893161 114.37402116 26.5616661 114.38386198 22.25386047 114.40183067 C18.94417082 114.41266666 15.6346143 114.40922307 12.32492065 114.4014473 C10.73648004 114.39944477 9.14802737 114.40190643 7.55960083 114.40888596 C5.34018904 114.41649763 3.12168766 114.40490145 0.90234375 114.38818359 C-0.36101807 114.38579681 -1.62437988 114.38341003 -2.92602539 114.38095093 C-6 114 -6 114 -7.66831398 112.75373268 C-9.35318613 110.53487981 -9.37698579 109.3279622 -9.38095093 106.55932617 C-9.3894104 105.65080902 -9.39786987 104.74229187 -9.40658569 103.8062439 C-9.400513 102.8118631 -9.39444031 101.8174823 -9.38818359 100.79296875 C-9.39344055 99.74396393 -9.39869751 98.69495911 -9.40411377 97.61416626 C-9.41734313 94.13846043 -9.40856504 90.66321068 -9.3984375 87.1875 C-9.40045738 84.77758699 -9.4033681 82.36767458 -9.40713501 79.95776367 C-9.41156236 74.90374947 -9.40511395 69.84989419 -9.39111328 64.79589844 C-9.37402137 58.30890759 -9.38386033 51.82228907 -9.40183067 45.33531189 C-9.41265731 40.35800355 -9.40922728 35.38078387 -9.4014473 30.4034729 C-9.3994422 28.01119951 -9.40191536 25.61891813 -9.40888596 23.22665405 C-9.41648184 19.88656202 -9.40492182 16.54707786 -9.38818359 13.20703125 C-9.39425629 12.21265045 -9.40032898 11.21826965 -9.40658569 10.1937561 C-9.39812622 9.28523895 -9.38966675 8.3767218 -9.38095093 7.44067383 C-9.37981985 6.65090652 -9.37868877 5.86113922 -9.37752342 5.04743958 C-8.40271212 -0.23929792 -4.72818769 -0.49251955 0 0 Z " fill="#FCFCFC" transform="translate(388,329)"/>
<path d="M0 0 C0 16.83 0 33.66 0 51 C-24.42857143 51 -24.42857143 51 -33.875 45.25 C-40.98135835 37.72562057 -42.50430783 30.80191371 -42.3984375 20.6171875 C-41.66648091 13.97216984 -38.81079769 9.33755114 -33.703125 5.08984375 C-22.21908978 -2.84765118 -17.57590369 0 0 0 Z " fill="#000000" transform="translate(88,484)"/>
<path d="M0 0 C27.647699 0 27.647699 0 35.49609375 7.3203125 C40.824406 13.27141449 42.38064717 19.53860261 42.27734375 27.34375 C41.492707 34.85858081 37.37367887 40.92485885 32 46 C22 50 22 50 0 50 C0 33.5 0 17 0 0 Z " fill="#020202" transform="translate(538,484)"/>
<path d="M0 0 C140.25 0 280.5 0 425 0 C425 20.46 425 40.92 425 62 C424.34 62 423.68 62 423 62 C422.67 63.32 422.34 64.64 422 66 C422.33 44.88 422.66 23.76 423 2 C283.74 2 144.48 2 1 2 C1 21.14 1 40.28 1 60 C0.67 60 0.34 60 0 60 C0 40.2 0 20.4 0 0 Z " fill="#121212" transform="translate(100,484)"/>
<path d="M0 0 C6.67302235 5.48449359 12.71524422 11.57406488 18.81030273 17.6809082 C19.99337975 18.86262842 21.176669 20.04413618 22.3601532 21.22544861 C25.55618664 24.41694383 28.74907397 27.61156891 31.94124866 30.80692315 C35.28428852 34.15250175 38.62977535 37.49563202 41.97486877 40.8391571 C47.58424757 46.44672014 53.19152198 52.05638095 58.79760742 57.66723633 C65.28682058 64.16190689 71.77964986 70.65294566 78.27433819 77.14214069 C83.85164303 82.71491646 89.42700803 88.28962735 95.00073773 93.8659789 C98.32960481 97.19640785 101.65915073 100.52615057 104.99044609 103.85415077 C108.11584848 106.97667691 111.23881823 110.1016153 114.35988045 113.22847939 C115.508765 114.37869218 116.65851245 115.52804379 117.80915833 116.6764946 C119.37223159 118.23685928 120.93223013 119.80023223 122.49143982 121.36445618 C123.80518412 122.67876602 123.80518412 122.67876602 125.14546871 124.01962757 C127 126 127 126 127 127 C115.71624283 127.06972863 104.43253753 127.12292697 93.14860821 127.15543652 C87.90815773 127.17104505 82.66785545 127.19219486 77.42749023 127.22631836 C72.36353424 127.25908412 67.29972016 127.27688915 62.23566628 127.28463173 C60.3105121 127.29014447 58.38536506 127.30090897 56.46027184 127.31719017 C37.09914241 127.4743165 37.09914241 127.4743165 28 124 C28.33 123.34 28.66 122.68 29 122 C30.46935753 122.24114784 30.46935753 122.24114784 31.96839905 122.48716736 C36.15430382 123.08191004 40.28291896 123.1733563 44.50561523 123.20532227 C45.7360984 123.22017166 45.7360984 123.22017166 46.99143982 123.23532104 C49.68046261 123.26669885 52.36950301 123.29159882 55.05859375 123.31640625 C56.9318943 123.33699631 58.80519042 123.3579933 60.67848206 123.37937927 C65.59223831 123.43438814 70.50603502 123.48389025 75.41986084 123.53222656 C80.44075083 123.58259693 85.4615826 123.63820165 90.48242188 123.69335938 C100.32156476 123.80068157 110.16075835 123.9021834 120 124 C117.60476892 119.80132661 114.87592087 116.83685842 111.25 113.6875 C107.05166891 109.95201668 103.25387694 106.14297926 99.640625 101.828125 C97.3014497 99.22161538 94.6485207 97.04942373 91.98046875 94.7890625 C89.26835808 92.33906904 86.94912554 89.62228055 84.58203125 86.84375 C81.49595968 83.24714314 78.13152345 80.09137839 74.5 77.0625 C72.22142785 75.14163918 70.48950464 73.38478764 68.5625 71.0625 C66.48454265 68.57908755 64.57128194 66.69565323 62.125 64.625 C59.32415343 62.24375591 56.87347307 59.80698414 54.5 57 C52.19817746 54.281558 49.84963115 51.91885943 47.125 49.625 C43.09220086 46.21082442 39.64881738 42.40431386 36.17578125 38.4296875 C32.55535465 34.38676946 28.68698331 30.67862157 24.64916992 27.05541992 C20.04146781 22.92007555 15.67830183 18.79228099 11.79296875 13.94921875 C9.11804935 11.0411909 5.99995916 8.57139356 3 6 C3 34.38 3 62.76 3 92 C-0.36846663 88.63153337 -0.34828825 87.53826834 -0.3732605 82.97868347 C-0.36247467 82.15725357 -0.35168884 81.33582367 -0.34057617 80.48950195 C-0.34101425 79.62099609 -0.34145233 78.75249023 -0.34190369 77.85766602 C-0.33981212 74.98430981 -0.31646374 72.11153564 -0.29296875 69.23828125 C-0.28737411 67.24717019 -0.28310339 65.25605501 -0.28010559 63.26493835 C-0.26864648 58.0221722 -0.23917005 52.77965503 -0.20599365 47.5369873 C-0.17531579 42.18810393 -0.16160514 36.83918035 -0.14648438 31.49023438 C-0.11430144 20.99338013 -0.06309214 10.49671077 0 0 Z " fill="#0D0D0D" transform="translate(389,55)"/>
<path d="M0 0 C0.66 0.33 1.32 0.66 2 1 C1.690625 2.11375 1.38125 3.2275 1.0625 4.375 C-0.15800664 9.20509012 -0.61399637 14.04290069 -1 19 C-1.33 19 -1.66 19 -2 19 C-2.33 85 -2.66 151 -3 219 C136.26 219 275.52 219 419 219 C419 189.3 419 159.6 419 129 C419.33 129 419.66 129 420 129 C420 159.03 420 189.06 420 220 C280.08 220 140.16 220 -4 220 C-4 8 -4 8 0 0 Z " fill="#222222" transform="translate(104,67)"/>
<path d="M0 0 C0.66128906 0.52980469 1.32257813 1.05960937 2.00390625 1.60546875 C2.47699219 2.00378906 2.95007813 2.40210938 3.4375 2.8125 C2.7775 3.4725 2.1175 4.1325 1.4375 4.8125 C0.94121094 4.40257812 0.44492187 3.99265625 -0.06640625 3.5703125 C-0.74574219 3.03148437 -1.42507813 2.49265625 -2.125 1.9375 C-2.78628906 1.40382813 -3.44757813 0.87015625 -4.12890625 0.3203125 C-9.753416 -3.16453624 -15.61925242 -3.47987827 -22.02949429 -3.44921303 C-23.27496663 -3.45520712 -23.27496663 -3.45520712 -24.54560003 -3.46132231 C-27.32802226 -3.47229165 -30.11024547 -3.46909597 -32.89268494 -3.4659729 C-34.90750639 -3.47097603 -36.92232582 -3.47685188 -38.93714243 -3.48352563 C-44.4739037 -3.4993375 -50.01061423 -3.50275697 -55.54739535 -3.50417423 C-61.5180313 -3.50786619 -67.48863936 -3.52302066 -73.45925903 -3.53678894 C-83.80384414 -3.55907198 -94.14842096 -3.5741483 -104.49302483 -3.58415604 C-115.34178647 -3.59468173 -126.19052977 -3.6093175 -137.03927803 -3.62943649 C-137.71394773 -3.63068536 -138.38861744 -3.63193423 -139.08373168 -3.63322094 C-142.51007095 -3.63958474 -145.93641008 -3.64602191 -149.36274917 -3.65248732 C-173.62829782 -3.69814384 -197.89385243 -3.73459413 -222.15942383 -3.765625 C-245.73234937 -3.79579119 -269.30526281 -3.83013077 -292.87817383 -3.87011719 C-293.60485837 -3.87134819 -294.33154292 -3.87257919 -295.08024821 -3.8738475 C-302.37794677 -3.88621441 -309.67564518 -3.89866613 -316.97334348 -3.91117998 C-331.83945168 -3.93666997 -346.70556081 -3.96159391 -361.57167053 -3.98617554 C-362.25518261 -3.98730645 -362.93869468 -3.98843736 -363.64291925 -3.98960253 C-409.28276549 -4.06505133 -454.92263142 -4.12726391 -500.5625 -4.1875 C-500.5625 -4.5175 -500.5625 -4.8475 -500.5625 -5.1875 C-454.26047869 -5.33424816 -407.95844741 -5.47738019 -361.65635681 -5.60054016 C-360.97105714 -5.60236407 -360.28575747 -5.60418798 -359.57969115 -5.60606716 C-344.68623663 -5.64568326 -329.79278042 -5.68462704 -314.89932233 -5.72287826 C-307.59556027 -5.74164077 -300.29179859 -5.76055185 -292.98803711 -5.77954102 C-292.26122555 -5.78142814 -291.53441399 -5.78331526 -290.78557784 -5.78525956 C-267.22807605 -5.84649474 -243.67061627 -5.91753987 -220.11315831 -5.99367301 C-195.90454708 -6.07185873 -171.69592761 -6.14014604 -147.48725402 -6.19598107 C-144.06784662 -6.20387223 -140.64843949 -6.21187653 -137.22903252 -6.21994972 C-136.55604504 -6.22153514 -135.88305756 -6.22312056 -135.18967653 -6.22475402 C-124.35700382 -6.25056451 -113.52438994 -6.28680748 -102.69176192 -6.32695345 C-91.80096369 -6.3670923 -80.91018121 -6.39599201 -70.01932407 -6.41417392 C-64.11854885 -6.42435414 -58.21789355 -6.43947235 -52.31717491 -6.46774101 C-46.91528772 -6.4935121 -41.51355563 -6.50536182 -36.11160868 -6.50612888 C-34.15720736 -6.50886571 -32.20280513 -6.51671624 -30.24844838 -6.53019472 C-27.59063361 -6.54777637 -24.93344248 -6.5466863 -22.27558994 -6.54102612 C-21.13908028 -6.55525419 -21.13908028 -6.55525419 -19.97961083 -6.56976971 C-12.67132371 -6.51575916 -5.73271978 -4.69040709 0 0 Z " fill="#222222" transform="translate(570.5625,307.1875)"/>
<path d="M0 0 C0.66 0.33 1.32 0.66 2 1 C1.67 52.48 1.34 103.96 1 157 C2.98 156.01 4.96 155.02 7 154 C9.875 154.3125 9.875 154.3125 12 155 C11.44828125 155.26554688 10.8965625 155.53109375 10.328125 155.8046875 C7.72960475 157.13882709 5.24877045 158.61258631 2.75 160.125 C1.85796875 160.66382813 0.9659375 161.20265625 0.046875 161.7578125 C-0.62859375 162.16773438 -1.3040625 162.57765625 -2 163 C-2.04669538 142.33806832 -2.08197676 121.67614532 -2.10362434 101.0141716 C-2.1139423 91.42072538 -2.12801255 81.82731192 -2.15087891 72.23388672 C-2.17079689 63.87345554 -2.18371266 55.51304809 -2.18817699 47.15259385 C-2.19078707 42.72472335 -2.19693267 38.29692073 -2.21146011 33.86907196 C-2.22501887 29.70277606 -2.2292261 25.53657611 -2.22621536 21.37026024 C-2.22676629 19.84000566 -2.2307539 18.30974793 -2.23841095 16.77951241 C-2.24834561 14.69198087 -2.24597445 12.6048127 -2.24050903 10.51727295 C-2.24235262 9.34843945 -2.24419621 8.17960594 -2.24609566 6.97535324 C-2.00759383 4.0918111 -1.50596594 2.43511158 0 0 Z " fill="#292929" transform="translate(47,318)"/>
<path d="M0 0 C1 3 1 3 0.9375 6.0625 C0.66376157 9.12503181 0.66376157 9.12503181 3 11 C5.73329279 11.19335225 8.36487751 11.26042936 11.09902954 11.24050903 C11.94603373 11.24221788 12.79303792 11.24392673 13.6657089 11.24568737 C16.52022508 11.24899672 19.37450917 11.23795489 22.22900391 11.22705078 C24.26868179 11.22648698 26.30836008 11.22680262 28.34803772 11.22793579 C33.8994304 11.22851152 39.45073732 11.21672174 45.00211 11.20278788 C50.79838919 11.19031703 56.59467016 11.1891129 62.39096069 11.18673706 C73.37340459 11.18051154 84.35580885 11.16408626 95.33823526 11.14403808 C107.83864287 11.12171237 120.33905234 11.11069404 132.83947492 11.10064721 C158.55967195 11.07972094 184.27983376 11.0445242 210 11 C210.66 8.03 211.32 5.06 212 2 C212.99 2.495 212.99 2.495 214 3 C214.44944162 6.86519791 214.37403197 8.49920059 212.00752354 11.66776943 C208.18453076 14.63236822 205.21144124 14.69793473 200.56712341 14.62818909 C199.29700561 14.63883067 199.29700561 14.63883067 198.00122887 14.64968723 C195.16498915 14.66728424 192.33011675 14.64915408 189.49389648 14.63110352 C187.46025976 14.63624164 185.42662748 14.64352211 183.39300537 14.65278625 C177.87031441 14.67132073 172.34810542 14.65834902 166.82543445 14.63869596 C161.04971921 14.6223274 155.27403493 14.63111975 149.49830627 14.63621521 C139.79965502 14.6407378 130.10119653 14.62485506 120.40258789 14.59692383 C109.18315218 14.56486227 97.96406399 14.56489068 86.74460357 14.5821386 C75.95852189 14.5979907 65.17256786 14.59127916 54.38649178 14.57420158 C49.79284336 14.56732169 45.19929696 14.56837315 40.60564995 14.57574654 C35.1989661 14.58339592 29.7926788 14.57132713 24.38606262 14.54389763 C22.39946737 14.53699892 20.41283518 14.53693165 18.42624092 14.54411316 C15.71901265 14.55277357 13.01301783 14.5369102 10.30589294 14.5146637 C9.51552861 14.52290446 8.72516428 14.53114523 7.91084951 14.53963572 C4.3980133 14.48617603 2.3886656 14.29138437 -0.46052456 12.15533352 C-2.45677324 9.36049731 -2.92859549 7.42741639 -3 4 C-1.5625 1.625 -1.5625 1.625 0 0 Z " fill="#020202" transform="translate(136,169)"/>
<path d="M0 0 C0.33 0.99 0.66 1.98 1 3 C-1.5478475 5.5478475 -3.17589707 5.23899098 -6.64982426 5.25816262 C-7.44553393 5.25233693 -8.24124359 5.24651125 -9.06106567 5.24050903 C-9.90398631 5.24221788 -10.74690695 5.24392673 -11.61537063 5.24568737 C-14.45606769 5.24899667 -17.29653152 5.23795498 -20.13720703 5.22705078 C-22.16703282 5.22648698 -24.19685902 5.22680262 -26.22668457 5.22793579 C-31.75121878 5.22851151 -37.2756668 5.21672181 -42.80018091 5.20278788 C-48.56843286 5.19031695 -54.3366866 5.1891129 -60.10494995 5.18673706 C-71.03426999 5.18051156 -81.9635502 5.16408632 -92.89285266 5.14403808 C-105.33280191 5.1217123 -117.77275302 5.11069402 -130.21271729 5.10064721 C-155.80850031 5.07972099 -181.40424793 5.04452429 -207 5 C-207.33 4.34 -207.66 3.68 -208 3 C-206.4102621 2.99503478 -206.4102621 2.99503478 -204.78840828 2.98996925 C-179.03436752 2.90907744 -153.28038694 2.81679359 -127.52643013 2.71247292 C-115.0721574 2.66229025 -102.61789144 2.6158481 -90.16357422 2.578125 C-79.31200185 2.54524709 -68.46048116 2.50543937 -57.60896575 2.45720994 C-51.85991939 2.43190305 -46.1109075 2.41013426 -40.36182022 2.39665604 C-34.95612348 2.38387357 -29.55054471 2.36186083 -24.14491272 2.33261681 C-22.15587002 2.32351105 -20.1668083 2.31784387 -18.17774582 2.31578636 C-15.47205003 2.31248489 -12.76669308 2.29706549 -10.06106567 2.2784729 C-9.26535601 2.28040763 -8.46964634 2.28234237 -7.64982426 2.28433573 C-3.36191088 2.39620252 -3.36191088 2.39620252 0 0 Z " fill="#111111" transform="translate(346,116)"/>
<path d="M0 0 C0.78656353 0.00446144 1.57312706 0.00892289 2.38352585 0.01351953 C3.63353945 0.00883955 3.63353945 0.00883955 4.90880585 0.00406504 C7.71718169 -0.00394871 10.52534349 0.00242176 13.33372116 0.00869775 C15.34059908 0.00598938 17.34747601 0.00242933 19.35435104 -0.00192237 C24.81702724 -0.01106703 30.27962818 -0.00749358 35.74230576 -0.0011642 C41.44823541 0.00388507 47.15415845 -0.00079265 52.86008835 -0.00393653 C62.44375902 -0.00757931 72.02739891 -0.0027689 81.61106491 0.00674462 C92.70485908 0.01762976 103.79857975 0.0141044 114.89237213 0.00309181 C124.40235017 -0.00597218 133.91230603 -0.0072707 143.42228699 -0.00203085 C149.10871969 0.00109375 154.7951178 0.00148481 160.48154831 -0.00510383 C165.82650839 -0.01086377 171.17137333 -0.00690527 176.51632309 0.00468469 C178.48280301 0.00733853 180.44929087 0.00655392 182.41576767 0.00215936 C185.09067689 -0.00326908 187.76527718 0.00350491 190.44016647 0.01351953 C191.22673 0.00905808 192.01329353 0.00459664 192.82369232 0 C198.18354606 0.03918671 198.18354606 0.03918671 200.41184616 2.26748681 C196.65592115 3.51946182 193.17865487 3.38350004 189.26848984 3.34977746 C188.42879833 3.34654833 187.58910682 3.34331921 186.72397012 3.33999223 C183.90023798 3.32789391 181.07660197 3.30852585 178.25291061 3.28921533 C176.2327915 3.279075 174.2126701 3.26938106 172.19254684 3.26010156 C166.69906668 3.23359592 161.20563944 3.20082142 155.7122004 3.16695166 C149.97466519 3.13263302 144.23710159 3.1040377 138.49953842 3.0748446 C127.63045319 3.01866754 116.76140351 2.95731654 105.89235705 2.89412326 C93.52011326 2.82244098 81.14784097 2.75650137 68.77556288 2.69105279 C43.32095366 2.55627039 17.86638893 2.41424814 -7.58815384 2.26748681 C-5.0532246 -0.26744243 -3.45741448 0.02527769 0 0 Z " fill="#0F0F0F" transform="translate(145.58815383911133,165.7325131893158)"/>
<path d="M0 0 C3.125 0.625 3.125 0.625 6 2 C6.9906302 4.69769261 7.12402997 7.23334147 7.12025452 10.08758545 C7.12162918 10.89242874 7.12300385 11.69727203 7.12442017 12.52650452 C7.12082489 13.40044357 7.11722961 14.27438263 7.11352539 15.17480469 C7.11367142 16.101978 7.11381744 17.02915131 7.1139679 17.98442078 C7.11327162 21.04692937 7.10549249 24.10937704 7.09765625 27.171875 C7.09579106 29.2960812 7.09436763 31.42028784 7.09336853 33.54449463 C7.08955131 39.13402495 7.07972778 44.72352927 7.06866455 50.31304932 C7.05663437 57.02029381 7.0520444 63.727547 7.04621124 70.43479919 C7.03651563 80.62321755 7.01735348 90.81157884 7 101 C26.14 101 45.28 101 65 101 C65 101.33 65 101.66 65 102 C64.26306412 101.99777939 63.52612823 101.99555878 62.76686096 101.99327087 C55.83587231 101.97326797 48.90488796 101.95802587 41.97387791 101.94818783 C38.41022578 101.94296005 34.84659743 101.93586431 31.28295898 101.92456055 C27.18993903 101.91165824 23.0969442 101.90677094 19.00390625 101.90234375 C17.71851456 101.89718246 16.43312286 101.89202118 15.10877991 101.88670349 C13.92763107 101.88662796 12.74648224 101.88655243 11.52954102 101.88647461 C10.48363297 101.884254 9.43772491 101.88203339 8.36012268 101.87974548 C6.04310705 101.73349015 6.04310705 101.73349015 5 103 C24.8 103 44.6 103 65 103 C65 103.33 65 103.66 65 104 C44.87 104 24.74 104 4 104 C3.67 71 3.34 38 3 4 C1.02 3.34 -0.96 2.68 -3 2 C-2.01 1.34 -1.02 0.68 0 0 Z " fill="#434343" transform="translate(387,327)"/>
<path d="M0 0 C4.32897247 3.6345158 8.48123993 7.35775175 12.47631836 11.36279297 C12.97477264 11.86110123 13.47322693 12.35940948 13.98678589 12.87281799 C15.60685841 14.49357804 17.22337612 16.11783281 18.83984375 17.7421875 C19.97305199 18.87726406 21.10648362 20.01211763 22.24012756 21.14675903 C25.20308335 24.11350744 28.16302193 27.08324802 31.12231445 30.0536499 C34.15066856 33.0922886 37.18190499 36.12804909 40.21289062 39.1640625 C46.14473089 45.1065826 52.07338261 51.052271 58 57 C57.34 57.66 56.68 58.32 56 59 C55.34 58.154375 54.68 57.30875 54 56.4375 C51.92597683 53.93818556 49.73302095 51.84070364 47.25 49.75 C43.17965829 46.2875165 39.6883014 42.44950033 36.17578125 38.4296875 C32.55535465 34.38676946 28.68698331 30.67862157 24.64916992 27.05541992 C20.04146781 22.92007555 15.67830183 18.79228099 11.79296875 13.94921875 C9.11804935 11.0411909 5.99995916 8.57139356 3 6 C3 34.38 3 62.76 3 92 C-0.36846663 88.63153337 -0.34828825 87.53826834 -0.3732605 82.97868347 C-0.36247467 82.15725357 -0.35168884 81.33582367 -0.34057617 80.48950195 C-0.34101425 79.62099609 -0.34145233 78.75249023 -0.34190369 77.85766602 C-0.33981212 74.98430981 -0.31646374 72.11153564 -0.29296875 69.23828125 C-0.28737411 67.24717019 -0.28310339 65.25605501 -0.28010559 63.26493835 C-0.26864648 58.0221722 -0.23917005 52.77965503 -0.20599365 47.5369873 C-0.17531579 42.18810393 -0.16160514 36.83918035 -0.14648438 31.49023438 C-0.11430144 20.99338013 -0.06309214 10.49671077 0 0 Z " fill="#0E0E0E" transform="translate(389,55)"/>
<path d="M0 0 C0 16.83 0 33.66 0 51 C-20 51 -20 51 -29 48 C-29 47.67 -29 47.34 -29 47 C-16.13 47.495 -16.13 47.495 -3 48 C-3 32.82 -3 17.64 -3 2 C-18.45792983 2.14851914 -18.45792983 2.14851914 -32.5 7.625 C-33.1703125 8.07101562 -33.840625 8.51703125 -34.53125 8.9765625 C-35.0159375 9.31429688 -35.500625 9.65203125 -36 10 C-36 9.01 -36 8.02 -36 7 C-34.13671875 5.4296875 -34.13671875 5.4296875 -31.6875 3.875 C-30.48673828 3.09769531 -30.48673828 3.09769531 -29.26171875 2.3046875 C-19.93091843 -3.07784671 -12.90107028 0 0 0 Z " fill="#323232" transform="translate(88,484)"/>
<path d="M0 0 C0.66 0.33 1.32 0.66 2 1 C1.690625 2.11375 1.38125 3.2275 1.0625 4.375 C-0.15800664 9.20509012 -0.61399637 14.04290069 -1 19 C-1.33 19 -1.66 19 -2 19 C-2.33 85 -2.66 151 -3 219 C-3.33 219 -3.66 219 -4 219 C-4.07015305 192.47858783 -4.12301905 165.95718962 -4.15543652 139.43570328 C-4.17089013 127.12067814 -4.1919509 114.80571073 -4.22631836 102.49072266 C-4.25626677 91.75408728 -4.27558594 81.01749373 -4.28226548 70.28081775 C-4.28616851 64.59846744 -4.29530985 58.91623675 -4.31719017 53.23392487 C-4.33764126 47.87910164 -4.3438164 42.52444666 -4.33932304 37.16958809 C-4.3401444 35.21052446 -4.34605839 33.25145486 -4.35761642 31.29242516 C-4.48281537 8.96563074 -4.48281537 8.96563074 0 0 Z " fill="#171717" transform="translate(104,67)"/>
<path d="M0 0 C0.99 0.495 0.99 0.495 2 1 C2.44955724 4.86619228 2.37351795 6.4997468 0.00683308 9.66945171 C-3.81681723 12.63310199 -6.77925534 12.68719112 -11.42182922 12.60127258 C-12.69005509 12.60768077 -12.69005509 12.60768077 -13.98390168 12.61421841 C-16.81573524 12.62245147 -19.64608623 12.59495866 -22.4777832 12.56762695 C-24.5080512 12.56621655 -26.53832175 12.56700831 -28.56858826 12.56983948 C-34.08073614 12.57127533 -39.59234112 12.54185775 -45.10436273 12.50696969 C-50.86456574 12.4757346 -56.62478091 12.47277769 -62.38505554 12.46684265 C-73.29312713 12.45129588 -84.20094845 12.41025594 -95.10890979 12.3600952 C-107.52713381 12.30422783 -119.94536972 12.27672176 -132.36368811 12.25161803 C-157.90926421 12.19934099 -183.45461809 12.11138231 -209 12 C-209 11.67 -209 11.34 -209 11 C-141.35 11 -73.7 11 -4 11 C-4 10.34 -4 9.68 -4 9 C-3.34 9 -2.68 9 -2 9 C-1.34 6.03 -0.68 3.06 0 0 Z " fill="#181818" transform="translate(348,171)"/>
<path d="M0 0 C0.32136429 0.48986893 0.64272858 0.97973785 0.97383118 1.48445129 C-10.44811442 1.5307435 -21.87003778 1.56630464 -33.29205799 1.58807564 C-38.59547038 1.59852336 -43.8988187 1.61270062 -49.20219421 1.6353302 C-54.31797607 1.6570233 -59.4336962 1.66901247 -64.54952049 1.67420578 C-66.5036027 1.67790789 -68.45768144 1.68513697 -70.41173744 1.69591141 C-73.14372242 1.71037935 -75.87545068 1.71243121 -78.60746765 1.71150208 C-79.41954681 1.71869263 -80.23162598 1.72588318 -81.0683136 1.73329163 C-84.9212994 1.71906445 -86.74297417 1.67324773 -90.02616882 -0.51554871 C-78.60444847 -0.71556698 -67.18259432 -0.89930917 -55.76027966 -1.06213665 C-50.45673209 -1.13825432 -45.1533962 -1.22002742 -39.85014343 -1.31462097 C-34.73450377 -1.40566174 -29.61883884 -1.48198302 -24.50281715 -1.54799843 C-22.54866119 -1.57582123 -20.59457401 -1.60899408 -18.6406002 -1.64754295 C-15.9086776 -1.70053556 -13.1771316 -1.73468924 -10.44487 -1.764328 C-9.63279083 -1.78446457 -8.82071167 -1.80460114 -7.98402405 -1.8253479 C-2.48272376 -1.85704603 -2.48272376 -1.85704603 0 0 Z " fill="#2A2A2A" transform="translate(515.0261688232422,180.5155487060547)"/>
<path d="M0 0 C0.51810242 0.32342377 1.03620483 0.64684753 1.57000732 0.98007202 C4.76988269 2.32313879 7.40994212 2.28140225 10.87988281 2.31884766 C11.90488388 2.33391609 11.90488388 2.33391609 12.95059204 2.34928894 C15.20142808 2.38009398 17.45214531 2.39714829 19.703125 2.4140625 C21.26683574 2.43277634 22.8305364 2.45234992 24.39422607 2.4727478 C28.50408994 2.52405233 32.61398655 2.56368695 36.72399902 2.60089111 C40.92024827 2.64094133 45.11636156 2.69202902 49.3125 2.7421875 C57.54157375 2.83892689 65.77071484 2.92333794 74 3 C74 3.99 74 4.98 74 6 C65.09029269 6.22354839 56.18043782 6.42500763 47.26961231 6.59840012 C43.13179727 6.679608 38.99443432 6.76837321 34.85717773 6.87451172 C30.86332541 6.97669151 26.86951263 7.05888584 22.87494469 7.12732697 C21.35219552 7.15691181 19.82956782 7.19365618 18.30716896 7.2377243 C16.17186537 7.29830196 14.03754449 7.33323449 11.90161133 7.36230469 C10.6869368 7.38895203 9.47226227 7.41559937 8.22077942 7.4430542 C4.34404233 6.90976569 2.68423436 5.80907004 0 3 C0 2.01 0 1.02 0 0 Z " fill="#222222" transform="translate(378,440)"/>
<path d="M0 0 C0.33 0 0.66 0 1 0 C1.05078757 7.01087342 1.08577044 14.02169922 1.10986328 21.03271484 C1.11990924 23.41684746 1.13354839 25.8009678 1.15087891 28.18505859 C1.17518864 31.61559078 1.18649734 35.04595977 1.1953125 38.4765625 C1.20563507 39.53928375 1.21595764 40.602005 1.22659302 41.69692993 C1.22737326 46.86500094 1.0929635 51.16952714 -1 56 C-2.65 54.35 -4.3 52.7 -6 51 C-5.67 50.01 -5.34 49.02 -5 48 C-4.34 48.99 -3.68 49.98 -3 51 C-1.80208827 48.60417654 -1.8793256 47.13222462 -1.88647461 44.45849609 C-1.88655014 43.51767181 -1.88662567 42.57684753 -1.88670349 41.60751343 C-1.89186478 40.58976837 -1.89702606 39.57202332 -1.90234375 38.5234375 C-1.90446617 36.96286118 -1.90446617 36.96286118 -1.90663147 35.37075806 C-1.91224134 32.03880979 -1.92479553 28.70692805 -1.9375 25.375 C-1.94251373 23.11979264 -1.94707686 20.86458422 -1.95117188 18.609375 C-1.96221397 13.07289386 -1.97896173 7.53645168 -2 2 C-1.34 2 -0.68 2 0 2 C0 1.34 0 0.68 0 0 Z " fill="#131313" transform="translate(338,360)"/>
<path d="M0 0 C12.54 0 25.08 0 38 0 C38 0.99 38 1.98 38 3 C24.8 3.33 11.6 3.66 -2 4 C-1.34 2.68 -0.68 1.36 0 0 Z " fill="#1C1C1C" transform="translate(194,341)"/>
<path d="M0 0 C0.33 0 0.66 0 1 0 C1.05063235 7.20822151 1.08570496 14.4163973 1.10986328 21.62475586 C1.11993245 24.07789829 1.13358861 26.53102869 1.15087891 28.98413086 C1.17508679 32.50637783 1.18647388 36.02846639 1.1953125 39.55078125 C1.20563507 40.65086014 1.21595764 41.75093903 1.22659302 42.88435364 C1.22674408 43.90518539 1.22689514 44.92601715 1.22705078 45.9777832 C1.231492 46.87713089 1.23593323 47.77647858 1.24050903 48.70307922 C1 51 1 51 -1 54 C-1.87496184 51.00239588 -2.102337 48.39605051 -2.03759766 45.27905273 C-2.01229477 43.88256752 -2.01229477 43.88256752 -1.98648071 42.45787048 C-1.9625827 41.45985916 -1.93868469 40.46184784 -1.9140625 39.43359375 C-1.89282318 38.40315445 -1.87158386 37.37271515 -1.84970093 36.31105042 C-1.80348343 34.13479948 -1.75455885 31.9586046 -1.703125 29.7824707 C-1.62521941 26.44689435 -1.55809263 23.11122328 -1.4921875 19.77539062 C-1.44595772 17.66144412 -1.3991039 15.54751116 -1.3515625 13.43359375 C-1.33171295 12.4335582 -1.3118634 11.43352264 -1.29141235 10.40318298 C-1.26823944 9.475345 -1.24506653 8.54750702 -1.22119141 7.59155273 C-1.20263092 6.77532944 -1.18407043 5.95910614 -1.16494751 5.1181488 C-1 3 -1 3 0 0 Z " fill="#111111" transform="translate(353,361)"/>
<path d="M0 0 C0.97957169 0.16076523 1.95914337 0.32153046 2.96839905 0.48716736 C7.15430382 1.08191004 11.28291896 1.1733563 15.50561523 1.20532227 C16.32593735 1.21522186 17.14625946 1.22512146 17.99143982 1.23532104 C20.68046261 1.26669885 23.36950301 1.29159882 26.05859375 1.31640625 C27.9318943 1.33699631 29.80519042 1.3579933 31.67848206 1.37937927 C36.59223831 1.43438814 41.50603502 1.48389025 46.41986084 1.53222656 C51.44075083 1.58259693 56.4615826 1.63820165 61.48242188 1.69335938 C71.32156476 1.80068157 81.16075835 1.9021834 91 2 C91 2.33 91 2.66 91 3 C79.8907783 3.17716129 68.78145085 3.34310325 57.6718502 3.49477577 C52.51306579 3.56555694 47.35439704 3.64018253 42.19580078 3.72363281 C37.21627124 3.80404425 32.2366919 3.87430635 27.25691605 3.93757248 C25.35830038 3.96346984 23.45973071 3.9930066 21.56122971 4.02626419 C18.89941181 4.07226804 16.23772343 4.10525815 13.57568359 4.13525391 C12.79309174 4.1517952 12.01049988 4.16833649 11.20419312 4.18537903 C6.73560825 4.21996703 3.14909593 3.66963842 -1 2 C-0.67 1.34 -0.34 0.68 0 0 Z " fill="#131313" transform="translate(418,177)"/>
<path d="M0 0 C4 5 4 5 5.75 7.5625 C9.74489483 11.89030273 14.60357227 14.13320867 20.48828125 14.54589844 C22.09597998 14.58653085 23.70428973 14.60694098 25.3125 14.609375 C26.59398926 14.63417938 26.59398926 14.63417938 27.90136719 14.65948486 C30.60098688 14.7076482 33.30004466 14.7292645 36 14.75 C37.84247571 14.77818628 39.6849256 14.80811739 41.52734375 14.83984375 C46.01818283 14.91339811 50.50871575 14.96316537 55 15 C55 15.33 55 15.66 55 16 C49.45061275 16.24307233 43.90109457 16.45776114 38.34960938 16.64697266 C36.46389983 16.7151503 34.57844689 16.7908831 32.69335938 16.87451172 C29.9729911 16.99385134 27.25283738 17.08538308 24.53125 17.171875 C23.69758911 17.21439392 22.86392822 17.25691284 22.00500488 17.30072021 C15.93276836 17.45493332 12.24516641 16.06494664 7 13 C7 12.34 7 11.68 7 11 C6.01 10.67 5.02 10.34 4 10 C2.578125 8.4765625 2.578125 8.4765625 1.25 6.625 C0.80140625 6.01914062 0.3528125 5.41328125 -0.109375 4.7890625 C-1 3 -1 3 0 0 Z " fill="#272727" transform="translate(175,428)"/>
<path d="M0 0 C2.33963388 3.50945081 2.20198221 4.74889607 2.046875 8.875 C1.98306641 10.59976562 1.98306641 10.59976562 1.91796875 12.359375 C1.86253906 13.56078125 1.80710938 14.7621875 1.75 16 C1.71003906 17.20140625 1.67007813 18.4028125 1.62890625 19.640625 C1.25664973 28.6150254 1.25664973 28.6150254 -1 32 C-3.62527519 29.37472481 -2.18561695 21.78260023 -2.1875 18.25 C-2.19974609 17.05632812 -2.21199219 15.86265625 -2.22460938 14.6328125 C-2.22654297 13.48039062 -2.22847656 12.32796875 -2.23046875 11.140625 C-2.23457764 10.08391602 -2.23868652 9.02720703 -2.24291992 7.93847656 C-1.99332533 4.91925994 -1.27256968 2.73238394 0 0 Z " fill="#202020" transform="translate(173,343)"/>
<path d="M0 0 C1.32 0.33 2.64 0.66 4 1 C4 1.66 4 2.32 4 3 C5.0194873 2.98952637 6.03897461 2.97905273 7.08935547 2.96826172 C10.86503602 2.93211273 14.64070121 2.90911823 18.41650391 2.89013672 C20.05194672 2.88006746 21.68737149 2.86641119 23.32275391 2.84912109 C25.6709437 2.82491295 28.01889588 2.81352643 30.3671875 2.8046875 C31.10057343 2.79436493 31.83395935 2.78404236 32.58956909 2.77340698 C34.39462697 2.77300632 36.1990783 2.87787245 38 3 C38.66 3.66 39.32 4.32 40 5 C35.10704853 5.07433779 30.21442817 5.12869027 25.32104492 5.16479492 C23.65757519 5.17985114 21.99414495 5.20030063 20.33081055 5.22631836 C17.93528478 5.26284207 15.54028533 5.27975782 13.14453125 5.29296875 C12.4047554 5.30845261 11.66497955 5.32393646 10.90278625 5.33988953 C6.44266251 5.34133257 3.51056474 4.83298915 0 2 C0 1.34 0 0.68 0 0 Z " fill="#292929" transform="translate(190,426)"/>
<path d="M0 0 C2.48192204 2.33858915 4.41517552 4.8850765 6.4375 7.625 C12.57291444 15.35652779 20.5877639 21.79128315 30 25 C29.67 25.66 29.34 26.32 29 27 C22.71814165 25.51219144 18.07691385 21.7972989 13 18 C11.4221875 16.824375 11.4221875 16.824375 9.8125 15.625 C6.08133664 12.14258086 2.64907285 8.38115894 0 4 C0 2.68 0 1.36 0 0 Z " fill="#161616" transform="translate(383,165)"/>
<path d="M0 0 C0.5775 0.37125 1.155 0.7425 1.75 1.125 C0.80640625 1.5271875 0.80640625 1.5271875 -0.15625 1.9375 C-6.85416842 5.00401687 -11.32337205 8.71431472 -16.25 14.125 C-17.57749826 15.46414298 -18.90930442 16.79906979 -20.25 18.125 C-20.58 17.465 -20.91 16.805 -21.25 16.125 C-17.5744737 10.57567598 -7.67703899 -2.98551516 0 0 Z " fill="#161616" transform="translate(126.25,48.875)"/>
<path d="M0 0 C3.12273351 2.25721997 4.76575441 3.59480368 5.41259766 7.47509766 C5.49185597 10.43424514 5.43549656 13.35490573 5.3125 16.3125 C5.28994141 17.33923828 5.26738281 18.36597656 5.24414062 19.42382812 C5.18537575 21.9507179 5.10327849 24.47460255 5 27 C4.01 27.33 3.02 27.66 2 28 C1.98018066 27.32420898 1.96036133 26.64841797 1.93994141 25.95214844 C1.84456762 22.88437956 1.73493835 19.81728002 1.625 16.75 C1.57859375 15.15478516 1.57859375 15.15478516 1.53125 13.52734375 C1.49257812 12.50253906 1.45390625 11.47773438 1.4140625 10.421875 C1.3826416 9.47924805 1.3512207 8.53662109 1.31884766 7.56542969 C0.99399023 4.95164571 0.32323838 3.25646966 -1 1 C-0.67 0.67 -0.34 0.34 0 0 Z " fill="#353535" transform="translate(235,395)"/>
<path d="M0 0 C0.98291016 0.04833984 1.96582031 0.09667969 2.97851562 0.14648438 C4.51475586 0.2305957 4.51475586 0.2305957 6.08203125 0.31640625 C7.11779297 0.36861328 8.15355469 0.42082031 9.22070312 0.47460938 C11.77895174 0.60429018 14.33681063 0.73925603 16.89453125 0.87890625 C16.89453125 1.20890625 16.89453125 1.53890625 16.89453125 1.87890625 C15.68796875 1.92789062 14.48140625 1.976875 13.23828125 2.02734375 C11.62367819 2.10244157 10.00909586 2.17798628 8.39453125 2.25390625 C7.60304688 2.28484375 6.8115625 2.31578125 5.99609375 2.34765625 C-1.01607299 2.69251691 -7.64962169 3.4624386 -13.60546875 7.50390625 C-14.27578125 7.94992187 -14.94609375 8.3959375 -15.63671875 8.85546875 C-16.12140625 9.19320313 -16.60609375 9.5309375 -17.10546875 9.87890625 C-17.10546875 8.88890625 -17.10546875 7.89890625 -17.10546875 6.87890625 C-15.2421875 5.30859375 -15.2421875 5.30859375 -12.79296875 3.75390625 C-11.59220703 2.97660156 -11.59220703 2.97660156 -10.3671875 2.18359375 C-6.7196575 0.07949182 -4.12058554 -0.21436572 0 0 Z " fill="#222222" transform="translate(69.10546875,484.12109375)"/>
<path d="M0 0 C1.0625 1.875 1.0625 1.875 2 4 C1.67 4.66 1.34 5.32 1 6 C0.88232528 7.4494793 0.82310732 8.90393996 0.79467773 10.35791016 C0.77473251 11.25869293 0.75478729 12.15947571 0.73423767 13.08755493 C0.71752518 14.06155243 0.70081268 15.03554993 0.68359375 16.0390625 C0.66281265 17.03505463 0.64203156 18.03104675 0.62062073 19.05722046 C0.55510958 22.24640854 0.49623296 25.43568058 0.4375 28.625 C0.39431627 30.78386293 0.35070203 32.9427173 0.30664062 35.1015625 C0.19942664 40.4009523 0.09766315 45.70042606 0 51 C-0.33 51 -0.66 51 -1 51 C-1.02532087 44.21900224 -1.04285457 37.43801663 -1.05493164 30.65698242 C-1.05996551 28.3493606 -1.06679305 26.04174197 -1.07543945 23.73413086 C-1.08754635 20.42040214 -1.09323773 17.10671552 -1.09765625 13.79296875 C-1.10281754 12.7585112 -1.10797882 11.72405365 -1.11329651 10.6582489 C-1.11337204 9.6974794 -1.11344757 8.7367099 -1.11352539 7.74682617 C-1.115746 6.90077316 -1.11796661 6.05472015 -1.12025452 5.18302917 C-1 3 -1 3 0 0 Z " fill="#1C1C1C" transform="translate(272,358)"/>
<path d="M0 0 C5.94 0.66 11.88 1.32 18 2 C18 2.66 18 3.32 18 4 C10.95591454 6.34802849 5.56628878 4.81412376 -1 2 C-0.67 1.34 -0.34 0.68 0 0 Z " fill="#232323" transform="translate(301,426)"/>
<path d="M0 0 C0.99 0.33 1.98 0.66 3 1 C1.8553125 2.0209375 1.8553125 2.0209375 0.6875 3.0625 C-3.31831637 7.44095045 -5.11671258 12.17030303 -6 18 C-6.99 18.33 -7.98 18.66 -9 19 C-8.57221768 11.01473009 -5.80921488 5.52045273 0 0 Z " fill="#222222" transform="translate(295,348)"/>
<path d="M0 0 C-0.33 0.66 -0.66 1.32 -1 2 C-3.62201871 2.45329815 -6.17071751 2.79670386 -8.8125 3.0625 C-14.97157091 3.66196766 -14.97157091 3.66196766 -21 5 C-21.33 4.34 -21.66 3.68 -22 3 C-14.69065285 -0.50848663 -8.00945568 -0.30372936 0 0 Z " fill="#131313" transform="translate(320,342)"/>
<path d="M0 0 C0.66 0 1.32 0 2 0 C1.67 0.99 1.34 1.98 1 3 C0.76632961 7.1628674 0.8148289 11.3312685 0.8125 15.5 C0.80025391 16.65371094 0.78800781 17.80742187 0.77539062 18.99609375 C0.77345703 20.10082031 0.77152344 21.20554687 0.76953125 22.34375 C0.76542236 23.35630859 0.76131348 24.36886719 0.75708008 25.41210938 C0.81585842 28.2378417 0.81585842 28.2378417 3 31 C1.68 30.67 0.36 30.34 -1 30 C-1.02465746 25.8882744 -1.04283959 21.77657722 -1.05493164 17.66479492 C-1.0599708 16.26504772 -1.06680216 14.8653058 -1.07543945 13.46557617 C-1.0875232 11.45754223 -1.09269807 9.44947043 -1.09765625 7.44140625 C-1.10289307 6.23170166 -1.10812988 5.02199707 -1.11352539 3.77563477 C-1 1 -1 1 0 0 Z " fill="#0E0E0E" transform="translate(189,345)"/>
<path d="M0 0 C2.66674777 3.4921697 5.0869537 7.11140875 7.5 10.78125 C8.93751335 12.90757183 10.44252157 14.96044491 12 17 C8.12197951 16.4692334 6.682128 14.90771262 4.3125 11.875 C1.26914003 7.8106838 0.10733081 5.0445483 0 0 Z " fill="#141414" transform="translate(393,152)"/>
<path d="M0 0 C0.66 0.66 1.32 1.32 2 2 C1.46890625 2.42410156 0.9378125 2.84820312 0.390625 3.28515625 C-4.28170538 7.16455465 -7.32694461 10.54251191 -10 16 C-10.66 15.67 -11.32 15.34 -12 15 C-10.63692947 10.99598033 -8.84380836 8.36564298 -6 5.25 C-5.29875 4.47140625 -4.5975 3.6928125 -3.875 2.890625 C-2 1 -2 1 0 0 Z " fill="#121212" transform="translate(288,335)"/>
<path d="M0 0 C2.64 0 5.28 0 8 0 C8 0.66 8 1.32 8 2 C17.9 1.505 17.9 1.505 28 1 C28 1.66 28 2.32 28 3 C24.27089934 3.0582462 20.54191636 3.09367917 16.8125 3.125 C15.75740234 3.14175781 14.70230469 3.15851562 13.61523438 3.17578125 C12.08286133 3.18544922 12.08286133 3.18544922 10.51953125 3.1953125 C9.11344604 3.21102295 9.11344604 3.21102295 7.67895508 3.22705078 C4.78369188 2.98166713 2.62937303 2.20521619 0 1 C0 0.67 0 0.34 0 0 Z " fill="#0E0E0E" transform="translate(59,531)"/>
<path d="M0 0 C1.42018178 1.86866024 2.82313244 3.73804152 4.13671875 5.68359375 C6.71981074 9.47267191 9.21753686 12.29824062 13 15 C12.01 15.495 12.01 15.495 11 16 C6.23779661 12.09314382 1.88270791 8.51474557 -1 3 C-0.67 2.01 -0.34 1.02 0 0 Z " fill="#222222" transform="translate(174,375)"/>
<path d="M0 0 C6.30214697 0.33169195 10.85216936 3.67323988 16 7 C13.26980214 8.06528748 12.20701188 8.07998186 9.421875 7.00390625 C8.54015625 6.52824219 7.6584375 6.05257813 6.75 5.5625 C5.85796875 5.08941406 4.9659375 4.61632812 4.046875 4.12890625 C3.37140625 3.75636719 2.6959375 3.38382812 2 3 C2 2.34 2 1.68 2 1 C1.34 0.67 0.68 0.34 0 0 Z " fill="#131313" transform="translate(322,328)"/>
<path d="M0 0 C5.12779375 2.98127544 7.75269769 6.03353764 11 11 C10.01 12.485 10.01 12.485 9 14 C8.68546875 13.45730469 8.3709375 12.91460937 8.046875 12.35546875 C5.69092465 8.41705778 3.79119955 5.66788117 0 3 C0 2.01 0 1.02 0 0 Z " fill="#181818" transform="translate(567,487)"/>
<path d="M0 0 C3.08031355 2.50328511 3.64066484 4.71098698 4.3125 8.5625 C4.49425781 9.53316406 4.67601562 10.50382812 4.86328125 11.50390625 C4.93095703 12.73947266 4.93095703 12.73947266 5 14 C4.34 14.66 3.68 15.32 3 16 C2.79503906 15.16855469 2.59007812 14.33710938 2.37890625 13.48046875 C2.10949219 12.39378906 1.84007812 11.30710937 1.5625 10.1875 C1.29566406 9.10855469 1.02882812 8.02960938 0.75390625 6.91796875 C0.23922588 4.9259157 -0.34937175 2.95188476 -1 1 C-0.67 0.67 -0.34 0.34 0 0 Z " fill="#151515" transform="translate(250,340)"/>
<path d="M0 0 C0.66 0.66 1.32 1.32 2 2 C1.2884375 3.3921875 1.2884375 3.3921875 0.5625 4.8125 C-1.56443214 9.68839162 -1.72443895 14.74533582 -2 20 C-2.33 20 -2.66 20 -3 20 C-4.7610915 7.27037119 -4.7610915 7.27037119 -2.0625 2.6875 C-1.381875 1.800625 -0.70125 0.91375 0 0 Z " fill="#1F1F1F" transform="translate(50,494)"/>
<path d="M0 0 C4.92289989 0.43437352 7.48750825 2.643619 11 6 C12.375 8.3125 12.375 8.3125 13 10 C12.01 10 11.02 10 10 10 C10 9.34 10 8.68 10 8 C9.34 8 8.68 8 8 8 C6.29006566 6.3777546 4.62652316 4.70586575 3 3 C2.401875 2.401875 1.80375 1.80375 1.1875 1.1875 C0.795625 0.795625 0.40375 0.40375 0 0 Z " fill="#131313" transform="translate(323,345)"/>
<path d="M0 0 C0.33 0 0.66 0 1 0 C1.16435547 0.8353125 1.16435547 0.8353125 1.33203125 1.6875 C2.44275248 7.03341031 3.97225526 11.93063816 6 17 C5.34 17.33 4.68 17.66 4 18 C3.12720138 16.13360019 2.27748973 14.25639389 1.4375 12.375 C0.96183594 11.33085938 0.48617187 10.28671875 -0.00390625 9.2109375 C-1.10684175 5.65559246 -0.89552313 3.57136768 0 0 Z " fill="#111111" transform="translate(102,544)"/>
<path d="M0 0 C2.64220704 0.93755734 3.82194588 1.74453104 5.4375 4.0625 C7.43958017 6.54507941 8.90228009 6.66511136 12 7 C9 9 9 9 7.125 8.9375 C4.10527795 7.60526968 2.28352473 5.34361749 0 3 C-0.66 3 -1.32 3 -2 3 C-2 2.34 -2 1.68 -2 1 C-1.34 0.67 -0.68 0.34 0 0 Z " fill="#1F1F1F" transform="translate(335,436)"/>
<path d="M0 0 C0.66 0 1.32 0 2 0 C2.67305018 1.60149886 3.33822227 3.20631029 4 4.8125 C4.37125 5.70582031 4.7425 6.59914063 5.125 7.51953125 C6 10 6 10 6 13 C5.34 13 4.68 13 4 13 C3.32694982 11.39850114 2.66177773 9.79368971 2 8.1875 C1.62875 7.29417969 1.2575 6.40085937 0.875 5.48046875 C0 3 0 3 0 0 Z " fill="#0C0C0C" transform="translate(347,347)"/>
<path d="M0 0 C5.32697239 1.45281065 8.36402802 5.08111378 12 9 C11.34 9.66 10.68 10.32 10 11 C9.484375 10.2575 8.96875 9.515 8.4375 8.75 C5.52465608 5.46371455 2.87566094 4.01236241 -1 2 C-0.67 1.34 -0.34 0.68 0 0 Z " fill="#1A1A1A" transform="translate(238,329)"/>
<path d="M0 0 C5.44208234 0.34013015 8.93668198 3.70296528 13 7 C12.34 7.66 11.68 8.32 11 9 C10.45730469 8.57847656 9.91460938 8.15695312 9.35546875 7.72265625 C8.64003906 7.17480469 7.92460938 6.62695312 7.1875 6.0625 C6.47980469 5.51722656 5.77210938 4.97195313 5.04296875 4.41015625 C2.95874948 2.83143752 2.95874948 2.83143752 0 2 C0 1.34 0 0.68 0 0 Z " fill="#181818" transform="translate(561,303)"/>
<path d="M0 0 C1.68156755 2.52235132 3.16468006 5.03586642 4.625 7.6875 C5.07101563 8.49574219 5.51703125 9.30398438 5.9765625 10.13671875 C6.31429687 10.75160156 6.65203125 11.36648438 7 12 C6.01 12 5.02 12 4 12 C2.578125 10.390625 2.578125 10.390625 1.25 8.25 C0.80140625 7.55390625 0.3528125 6.8578125 -0.109375 6.140625 C-1.16007332 3.61526236 -0.93134261 2.52143975 0 0 Z " fill="#1F1F1F" transform="translate(48,515)"/>
<path d="M0 0 C3.26008643 3.16952847 6.22237877 6.39937989 9 10 C6 10 6 10 4.17578125 8.25 C3.56089844 7.5075 2.94601562 6.765 2.3125 6 C1.68988281 5.2575 1.06726563 4.515 0.42578125 3.75 C-0.04472656 3.1725 -0.51523437 2.595 -1 2 C-0.67 1.34 -0.34 0.68 0 0 Z " fill="#222222" transform="translate(279,425)"/>
<path d="M0 0 C1.07424559 3.22273677 1.07030019 5.62559107 1 9 C1 9.99 1 10.98 1 12 C-2 10 -2 10 -2.875 7.125 C-3 4 -3 4 -1.5625 1.625 C-0.7890625 0.820625 -0.7890625 0.820625 0 0 Z " fill="#1F1F1F" transform="translate(136,169)"/>
<path d="M0 0 C1.15224028 0.92961422 2.29659176 1.8690125 3.4375 2.8125 C4.07558594 3.33457031 4.71367187 3.85664063 5.37109375 4.39453125 C7 6 7 6 8 9 C7.01 9.495 7.01 9.495 6 10 C3.69 7.36 1.38 4.72 -1 2 C-0.67 1.34 -0.34 0.68 0 0 Z " fill="#1E1E1E" transform="translate(339,337)"/>
<path d="M0 0 C5.94 0.99 5.94 0.99 12 2 C12 2.33 12 2.66 12 3 C6.96488101 4.0070238 3.76052962 3.97387813 -1 2 C-0.67 1.34 -0.34 0.68 0 0 Z " fill="#212121" transform="translate(418,177)"/>
<path d="M0 0 C0.99 0.33 1.98 0.66 3 1 C2.21625 1.7425 1.4325 2.485 0.625 3.25 C-1.56504531 5.54433318 -2.82731386 7.12158858 -4 10 C-4.66 10 -5.32 10 -6 10 C-5.58578031 5.16743695 -3.53586014 3.17320782 0 0 Z " fill="#131313" transform="translate(295,348)"/>
<path d="M0 0 C0.48210937 0.42152344 0.96421875 0.84304688 1.4609375 1.27734375 C2.09257812 1.82519531 2.72421875 2.37304688 3.375 2.9375 C4.00148438 3.48277344 4.62796875 4.02804687 5.2734375 4.58984375 C6.95632334 6.06958624 6.95632334 6.06958624 9 7 C9 7.66 9 8.32 9 9 C4.74822077 8.52758009 2.70030797 6.15035929 0 3 C0 2.01 0 1.02 0 0 Z " fill="#121212" transform="translate(292,418)"/>
<path d="M0 0 C4.55737263 0.43820891 7.57653445 0.85041169 11 4 C7.59068103 5.13643966 6.99664544 4.86747764 3.8125 3.5625 C3.09707031 3.27503906 2.38164062 2.98757813 1.64453125 2.69140625 C1.10183594 2.46324219 0.55914062 2.23507812 0 2 C0 1.34 0 0.68 0 0 Z " fill="#151515" transform="translate(231,378)"/>
<path d="M0 0 C0.66 0 1.32 0 2 0 C3.28571429 7.42857143 3.28571429 7.42857143 2 11 C1.01 10.67 0.02 10.34 -1 10 C-0.67 9.67 -0.34 9.34 0 9 C0.07179964 7.48071962 0.08392007 5.95832518 0.0625 4.4375 C0.05347656 3.61121094 0.04445313 2.78492188 0.03515625 1.93359375 C0.02355469 1.29550781 0.01195312 0.65742188 0 0 Z " fill="#1F1F1F" transform="translate(456,431)"/>
<path d="M0 0 C2.7972908 2.06756277 3.02692273 3.14440371 3.6875 6.6875 C3.790625 7.780625 3.89375 8.87375 4 10 C3.34 10 2.68 10 2 10 C1.01 7.03 0.02 4.06 -1 1 C-0.67 0.67 -0.34 0.34 0 0 Z " fill="#141414" transform="translate(250,391)"/>
<path d="M0 0 C2.6855594 2.6855594 3.06049974 5.37621328 4 9 C3.34 9.66 2.68 10.32 2 11 C0.19769832 7.17010894 -0.19622241 4.21878192 0 0 Z " fill="#161616" transform="translate(375,145)"/>
<path d="M0 0 C1.17539996 0.92652701 2.34010577 1.86663387 3.5 2.8125 C4.1496875 3.33457031 4.799375 3.85664062 5.46875 4.39453125 C7 6 7 6 7 9 C5.82460004 8.07347299 4.65989423 7.13336613 3.5 6.1875 C2.52546875 5.40439453 2.52546875 5.40439453 1.53125 4.60546875 C0 3 0 3 0 0 Z " fill="#141414" transform="translate(110,564)"/>
<path d="M0 0 C-4.95 2.97 -4.95 2.97 -10 6 C-10 5.01 -10 4.02 -10 3 C-4.85106383 -1.21276596 -4.85106383 -1.21276596 0 0 Z " fill="#171717" transform="translate(62,488)"/>
<path d="M0 0 C-5.14285714 4.42857143 -5.14285714 4.42857143 -9 5 C-8 2 -8 2 -5.625 0.25 C-3 -1 -3 -1 0 0 Z " fill="#1A1A1A" transform="translate(245,439)"/>
<path d="M0 0 C0.66 0.33 1.32 0.66 2 1 C2 3.31 2 5.62 2 8 C1.01 7.67 0.02 7.34 -1 7 C-0.67 4.69 -0.34 2.38 0 0 Z " fill="#212121" transform="translate(187,416)"/>
<path d="M0 0 C2.875 0.3125 2.875 0.3125 6 1 C6.66 1.99 7.32 2.98 8 4 C4.61976483 4 2.16531063 3.12544378 -1 2 C-0.67 1.34 -0.34 0.68 0 0 Z " fill="#121212" transform="translate(178,410)"/>
<path d="M0 0 C3 2 3 2 3.8125 5.5 C3.874375 6.655 3.93625 7.81 4 9 C3.34 9.66 2.68 10.32 2 11 C0.57741188 7.17679443 -0.24042276 4.08718695 0 0 Z " fill="#070707" transform="translate(390,143)"/>
<path d="M0 0 C-1.29299694 2.88437779 -2.65941363 4.87219421 -5 7 C-5.99 6.67 -6.98 6.34 -8 6 C-7.0479279 4.99403703 -6.08812654 3.99538437 -5.125 3 C-4.59132813 2.443125 -4.05765625 1.88625 -3.5078125 1.3125 C-2 0 -2 0 0 0 Z " fill="#2C2C2C" transform="translate(116,54)"/>
<path d="M0 0 C2.40072955 2.88087546 4.47291037 5.56404834 6 9 C3.53199953 7.84826645 1.95216435 6.95216435 0 5 C-0.125 2.375 -0.125 2.375 0 0 Z " fill="#191919" transform="translate(347,425)"/>
<path d="M0 0 C1.98 0.66 3.96 1.32 6 2 C5.67 3.32 5.34 4.64 5 6 C3.2925002 4.71937515 1.62626404 3.38232443 0 2 C0 1.34 0 0.68 0 0 Z " fill="#151515" transform="translate(574,475)"/>
<path d="M0 0 C4.455 2.97 4.455 2.97 9 6 C8.34 6.66 7.68 7.32 7 8 C5.8274869 7.04882866 4.66212985 6.08882991 3.5 5.125 C2.8503125 4.59132813 2.200625 4.05765625 1.53125 3.5078125 C1.0259375 3.01023437 0.520625 2.51265625 0 2 C0 1.34 0 0.68 0 0 Z " fill="#1C1C1C" transform="translate(178,383)"/>
<path d="M0 0 C0.66 0.33 1.32 0.66 2 1 C0.35 2.98 -1.3 4.96 -3 7 C-3.66 6.34 -4.32 5.68 -5 5 C-3.35 3.35 -1.7 1.7 0 0 Z " fill="#0F0F0F" transform="translate(574,522)"/>
<path d="M0 0 C-1.39332574 3.36720387 -2.9789286 4.9859524 -6 7 C-5.37162381 3.35541809 -4.14650034 0 0 0 Z " fill="#151515" transform="translate(59,305)"/>
<path d="M0 0 C0.66 0.33 1.32 0.66 2 1 C1.34 3.64 0.68 6.28 0 9 C-0.66 8.01 -1.32 7.02 -2 6 C-1.125 2.8125 -1.125 2.8125 0 0 Z " fill="#1F1F1F" transform="translate(104,67)"/>
</svg>
